G04 #@! TF.GenerationSoftware,KiCad,Pcbnew,(5.1.10)-1*
G04 #@! TF.CreationDate,2021-10-28T01:20:31+09:00*
G04 #@! TF.ProjectId,cat_tracker,6361745f-7472-4616-936b-65722e6b6963,rev?*
G04 #@! TF.SameCoordinates,Original*
G04 #@! TF.FileFunction,Legend,Bot*
G04 #@! TF.FilePolarity,Positive*
%FSLAX46Y46*%
G04 Gerber Fmt 4.6, Leading zero omitted, Abs format (unit mm)*
G04 Created by KiCad (PCBNEW (5.1.10)-1) date 2021-10-28 01:20:31*
%MOMM*%
%LPD*%
G01*
G04 APERTURE LIST*
%ADD10C,0.100000*%
%ADD11C,0.150000*%
%ADD12C,0.120000*%
G04 APERTURE END LIST*
D10*
X41166666Y-42350000D02*
X41000000Y-42816666D01*
X40833333Y-42350000D01*
X38850000Y-42350000D02*
X38850000Y-42916666D01*
X38883333Y-42983333D01*
X38916666Y-43016666D01*
X38983333Y-43050000D01*
X39083333Y-43050000D01*
X39150000Y-43016666D01*
X38850000Y-42783333D02*
X38916666Y-42816666D01*
X39050000Y-42816666D01*
X39116666Y-42783333D01*
X39150000Y-42750000D01*
X39183333Y-42683333D01*
X39183333Y-42483333D01*
X39150000Y-42416666D01*
X39116666Y-42383333D01*
X39050000Y-42350000D01*
X38916666Y-42350000D01*
X38850000Y-42383333D01*
X37050000Y-42816666D02*
X37050000Y-42350000D01*
X37050000Y-42483333D02*
X37016666Y-42416666D01*
X36983333Y-42383333D01*
X36916666Y-42350000D01*
X36850000Y-42350000D01*
X35133333Y-42350000D02*
X34866666Y-42350000D01*
X35033333Y-42116666D02*
X35033333Y-42716666D01*
X35000000Y-42783333D01*
X34933333Y-42816666D01*
X34866666Y-42816666D01*
D11*
X30071428Y-33619047D02*
X30071428Y-34380952D01*
X30071428Y-31619047D02*
X30071428Y-32380952D01*
X30452380Y-32000000D02*
X29690476Y-32000000D01*
D12*
X22000000Y-48500000D02*
X22000000Y-38500000D01*
X54000000Y-48500000D02*
X22000000Y-48500000D01*
X54000000Y-38500000D02*
X54000000Y-48500000D01*
X22000000Y-38500000D02*
X54000000Y-38500000D01*
X42060000Y-41560000D02*
X42060000Y-40500000D01*
X41000000Y-41560000D02*
X42060000Y-41560000D01*
X40000000Y-41560000D02*
X40000000Y-39440000D01*
X40000000Y-39440000D02*
X33940000Y-39440000D01*
X40000000Y-41560000D02*
X33940000Y-41560000D01*
X33940000Y-41560000D02*
X33940000Y-39440000D01*
X55500000Y-38000000D02*
X55500000Y-38500000D01*
X56500000Y-38000000D02*
X55500000Y-38000000D01*
X56500000Y-38500000D02*
X56500000Y-38000000D01*
X61000000Y-34500000D02*
X51000000Y-34500000D01*
X61000000Y-38500000D02*
X61000000Y-34500000D01*
X51000000Y-38500000D02*
X61000000Y-38500000D01*
X51000000Y-34500000D02*
X51000000Y-38500000D01*
X58762742Y-44977500D02*
X59237258Y-44977500D01*
X58762742Y-46022500D02*
X59237258Y-46022500D01*
X62977500Y-33237258D02*
X62977500Y-32762742D01*
X64022500Y-33237258D02*
X64022500Y-32762742D01*
X62737258Y-46522500D02*
X62262742Y-46522500D01*
X62737258Y-45477500D02*
X62262742Y-45477500D01*
X53977500Y-32737258D02*
X53977500Y-32262742D01*
X55022500Y-32737258D02*
X55022500Y-32262742D01*
X58859420Y-46490000D02*
X59140580Y-46490000D01*
X58859420Y-47510000D02*
X59140580Y-47510000D01*
X37359420Y-35490000D02*
X37640580Y-35490000D01*
X37359420Y-36510000D02*
X37640580Y-36510000D01*
X46640580Y-35510000D02*
X46359420Y-35510000D01*
X46640580Y-34490000D02*
X46359420Y-34490000D01*
X46359420Y-36490000D02*
X46640580Y-36490000D01*
X46359420Y-37510000D02*
X46640580Y-37510000D01*
X46359420Y-32490000D02*
X46640580Y-32490000D01*
X46359420Y-33510000D02*
X46640580Y-33510000D01*
X62359420Y-43990000D02*
X62640580Y-43990000D01*
X62359420Y-45010000D02*
X62640580Y-45010000D01*
X61510000Y-32359420D02*
X61510000Y-32640580D01*
X60490000Y-32359420D02*
X60490000Y-32640580D01*
X34010000Y-32859420D02*
X34010000Y-33140580D01*
X32990000Y-32859420D02*
X32990000Y-33140580D01*
X59650000Y-44100000D02*
X59650000Y-44400000D01*
X59650000Y-44400000D02*
X56350000Y-44400000D01*
X56350000Y-44400000D02*
X56350000Y-44100000D01*
X59650000Y-41900000D02*
X59650000Y-41600000D01*
X59650000Y-41600000D02*
X56350000Y-41600000D01*
X56350000Y-41600000D02*
X56350000Y-41900000D01*
X64100000Y-37850000D02*
X64400000Y-37850000D01*
X64400000Y-37850000D02*
X64400000Y-41150000D01*
X64400000Y-41150000D02*
X64100000Y-41150000D01*
X61900000Y-37850000D02*
X61600000Y-37850000D01*
X61600000Y-37850000D02*
X61600000Y-41150000D01*
X61600000Y-41150000D02*
X61900000Y-41150000D01*
D11*
X39850000Y-37150000D02*
X39850000Y-36625000D01*
X44150000Y-37150000D02*
X44150000Y-36625000D01*
X44150000Y-32850000D02*
X44150000Y-33375000D01*
X39850000Y-32850000D02*
X39850000Y-33375000D01*
X44150000Y-37150000D02*
X43625000Y-37150000D01*
X44150000Y-32850000D02*
X43625000Y-32850000D01*
X39850000Y-37150000D02*
X40375000Y-37150000D01*
D12*
X51900000Y-34110000D02*
X49450000Y-34110000D01*
X50100000Y-30890000D02*
X51900000Y-30890000D01*
X58760000Y-30920000D02*
X57300000Y-30920000D01*
X58760000Y-34080000D02*
X56600000Y-34080000D01*
X58760000Y-34080000D02*
X58760000Y-33150000D01*
X58760000Y-30920000D02*
X58760000Y-31850000D01*
D11*
X42512380Y-40166666D02*
X43226666Y-40166666D01*
X43369523Y-40119047D01*
X43464761Y-40023809D01*
X43512380Y-39880952D01*
X43512380Y-39785714D01*
X42607619Y-40595238D02*
X42560000Y-40642857D01*
X42512380Y-40738095D01*
X42512380Y-40976190D01*
X42560000Y-41071428D01*
X42607619Y-41119047D01*
X42702857Y-41166666D01*
X42798095Y-41166666D01*
X42940952Y-41119047D01*
X43512380Y-40547619D01*
X43512380Y-41166666D01*
X28616666Y-32766666D02*
X29116666Y-32766666D01*
X29216666Y-32733333D01*
X29283333Y-32666666D01*
X29316666Y-32566666D01*
X29316666Y-32500000D01*
X29316666Y-33466666D02*
X29316666Y-33066666D01*
X29316666Y-33266666D02*
X28616666Y-33266666D01*
X28716666Y-33200000D01*
X28783333Y-33133333D01*
X28816666Y-33066666D01*
X57316666Y-45383333D02*
X56983333Y-45150000D01*
X57316666Y-44983333D02*
X56616666Y-44983333D01*
X56616666Y-45250000D01*
X56650000Y-45316666D01*
X56683333Y-45350000D01*
X56750000Y-45383333D01*
X56850000Y-45383333D01*
X56916666Y-45350000D01*
X56950000Y-45316666D01*
X56983333Y-45250000D01*
X56983333Y-44983333D01*
X56616666Y-46016666D02*
X56616666Y-45683333D01*
X56950000Y-45650000D01*
X56916666Y-45683333D01*
X56883333Y-45750000D01*
X56883333Y-45916666D01*
X56916666Y-45983333D01*
X56950000Y-46016666D01*
X57016666Y-46050000D01*
X57183333Y-46050000D01*
X57250000Y-46016666D01*
X57283333Y-45983333D01*
X57316666Y-45916666D01*
X57316666Y-45750000D01*
X57283333Y-45683333D01*
X57250000Y-45650000D01*
X63616666Y-35316666D02*
X63850000Y-34983333D01*
X64016666Y-35316666D02*
X64016666Y-34616666D01*
X63750000Y-34616666D01*
X63683333Y-34650000D01*
X63650000Y-34683333D01*
X63616666Y-34750000D01*
X63616666Y-34850000D01*
X63650000Y-34916666D01*
X63683333Y-34950000D01*
X63750000Y-34983333D01*
X64016666Y-34983333D01*
X63016666Y-34616666D02*
X63150000Y-34616666D01*
X63216666Y-34650000D01*
X63250000Y-34683333D01*
X63316666Y-34783333D01*
X63350000Y-34916666D01*
X63350000Y-35183333D01*
X63316666Y-35250000D01*
X63283333Y-35283333D01*
X63216666Y-35316666D01*
X63083333Y-35316666D01*
X63016666Y-35283333D01*
X62983333Y-35250000D01*
X62950000Y-35183333D01*
X62950000Y-35016666D01*
X62983333Y-34950000D01*
X63016666Y-34916666D01*
X63083333Y-34883333D01*
X63216666Y-34883333D01*
X63283333Y-34916666D01*
X63316666Y-34950000D01*
X63350000Y-35016666D01*
X64816666Y-45883333D02*
X64483333Y-45650000D01*
X64816666Y-45483333D02*
X64116666Y-45483333D01*
X64116666Y-45750000D01*
X64150000Y-45816666D01*
X64183333Y-45850000D01*
X64250000Y-45883333D01*
X64350000Y-45883333D01*
X64416666Y-45850000D01*
X64450000Y-45816666D01*
X64483333Y-45750000D01*
X64483333Y-45483333D01*
X64116666Y-46116666D02*
X64116666Y-46550000D01*
X64383333Y-46316666D01*
X64383333Y-46416666D01*
X64416666Y-46483333D01*
X64450000Y-46516666D01*
X64516666Y-46550000D01*
X64683333Y-46550000D01*
X64750000Y-46516666D01*
X64783333Y-46483333D01*
X64816666Y-46416666D01*
X64816666Y-46216666D01*
X64783333Y-46150000D01*
X64750000Y-46116666D01*
X55816666Y-32383333D02*
X55483333Y-32150000D01*
X55816666Y-31983333D02*
X55116666Y-31983333D01*
X55116666Y-32250000D01*
X55150000Y-32316666D01*
X55183333Y-32350000D01*
X55250000Y-32383333D01*
X55350000Y-32383333D01*
X55416666Y-32350000D01*
X55450000Y-32316666D01*
X55483333Y-32250000D01*
X55483333Y-31983333D01*
X55183333Y-32650000D02*
X55150000Y-32683333D01*
X55116666Y-32750000D01*
X55116666Y-32916666D01*
X55150000Y-32983333D01*
X55183333Y-33016666D01*
X55250000Y-33050000D01*
X55316666Y-33050000D01*
X55416666Y-33016666D01*
X55816666Y-32616666D01*
X55816666Y-33050000D01*
X57250000Y-46550000D02*
X57283333Y-46516666D01*
X57316666Y-46416666D01*
X57316666Y-46350000D01*
X57283333Y-46250000D01*
X57216666Y-46183333D01*
X57150000Y-46150000D01*
X57016666Y-46116666D01*
X56916666Y-46116666D01*
X56783333Y-46150000D01*
X56716666Y-46183333D01*
X56650000Y-46250000D01*
X56616666Y-46350000D01*
X56616666Y-46416666D01*
X56650000Y-46516666D01*
X56683333Y-46550000D01*
X57316666Y-47216666D02*
X57316666Y-46816666D01*
X57316666Y-47016666D02*
X56616666Y-47016666D01*
X56716666Y-46950000D01*
X56783333Y-46883333D01*
X56816666Y-46816666D01*
X56616666Y-47450000D02*
X56616666Y-47883333D01*
X56883333Y-47650000D01*
X56883333Y-47750000D01*
X56916666Y-47816666D01*
X56950000Y-47850000D01*
X57016666Y-47883333D01*
X57183333Y-47883333D01*
X57250000Y-47850000D01*
X57283333Y-47816666D01*
X57316666Y-47750000D01*
X57316666Y-47550000D01*
X57283333Y-47483333D01*
X57250000Y-47450000D01*
X37950000Y-35250000D02*
X37983333Y-35283333D01*
X38083333Y-35316666D01*
X38150000Y-35316666D01*
X38250000Y-35283333D01*
X38316666Y-35216666D01*
X38350000Y-35150000D01*
X38383333Y-35016666D01*
X38383333Y-34916666D01*
X38350000Y-34783333D01*
X38316666Y-34716666D01*
X38250000Y-34650000D01*
X38150000Y-34616666D01*
X38083333Y-34616666D01*
X37983333Y-34650000D01*
X37950000Y-34683333D01*
X37283333Y-35316666D02*
X37683333Y-35316666D01*
X37483333Y-35316666D02*
X37483333Y-34616666D01*
X37550000Y-34716666D01*
X37616666Y-34783333D01*
X37683333Y-34816666D01*
X36616666Y-35316666D02*
X37016666Y-35316666D01*
X36816666Y-35316666D02*
X36816666Y-34616666D01*
X36883333Y-34716666D01*
X36950000Y-34783333D01*
X37016666Y-34816666D01*
X48750000Y-34550000D02*
X48783333Y-34516666D01*
X48816666Y-34416666D01*
X48816666Y-34350000D01*
X48783333Y-34250000D01*
X48716666Y-34183333D01*
X48650000Y-34150000D01*
X48516666Y-34116666D01*
X48416666Y-34116666D01*
X48283333Y-34150000D01*
X48216666Y-34183333D01*
X48150000Y-34250000D01*
X48116666Y-34350000D01*
X48116666Y-34416666D01*
X48150000Y-34516666D01*
X48183333Y-34550000D01*
X48816666Y-35216666D02*
X48816666Y-34816666D01*
X48816666Y-35016666D02*
X48116666Y-35016666D01*
X48216666Y-34950000D01*
X48283333Y-34883333D01*
X48316666Y-34816666D01*
X48116666Y-35650000D02*
X48116666Y-35716666D01*
X48150000Y-35783333D01*
X48183333Y-35816666D01*
X48250000Y-35850000D01*
X48383333Y-35883333D01*
X48550000Y-35883333D01*
X48683333Y-35850000D01*
X48750000Y-35816666D01*
X48783333Y-35783333D01*
X48816666Y-35716666D01*
X48816666Y-35650000D01*
X48783333Y-35583333D01*
X48750000Y-35550000D01*
X48683333Y-35516666D01*
X48550000Y-35483333D01*
X48383333Y-35483333D01*
X48250000Y-35516666D01*
X48183333Y-35550000D01*
X48150000Y-35583333D01*
X48116666Y-35650000D01*
X48750000Y-36883333D02*
X48783333Y-36850000D01*
X48816666Y-36750000D01*
X48816666Y-36683333D01*
X48783333Y-36583333D01*
X48716666Y-36516666D01*
X48650000Y-36483333D01*
X48516666Y-36450000D01*
X48416666Y-36450000D01*
X48283333Y-36483333D01*
X48216666Y-36516666D01*
X48150000Y-36583333D01*
X48116666Y-36683333D01*
X48116666Y-36750000D01*
X48150000Y-36850000D01*
X48183333Y-36883333D01*
X48816666Y-37216666D02*
X48816666Y-37350000D01*
X48783333Y-37416666D01*
X48750000Y-37450000D01*
X48650000Y-37516666D01*
X48516666Y-37550000D01*
X48250000Y-37550000D01*
X48183333Y-37516666D01*
X48150000Y-37483333D01*
X48116666Y-37416666D01*
X48116666Y-37283333D01*
X48150000Y-37216666D01*
X48183333Y-37183333D01*
X48250000Y-37150000D01*
X48416666Y-37150000D01*
X48483333Y-37183333D01*
X48516666Y-37216666D01*
X48550000Y-37283333D01*
X48550000Y-37416666D01*
X48516666Y-37483333D01*
X48483333Y-37516666D01*
X48416666Y-37550000D01*
X48750000Y-32883333D02*
X48783333Y-32850000D01*
X48816666Y-32750000D01*
X48816666Y-32683333D01*
X48783333Y-32583333D01*
X48716666Y-32516666D01*
X48650000Y-32483333D01*
X48516666Y-32450000D01*
X48416666Y-32450000D01*
X48283333Y-32483333D01*
X48216666Y-32516666D01*
X48150000Y-32583333D01*
X48116666Y-32683333D01*
X48116666Y-32750000D01*
X48150000Y-32850000D01*
X48183333Y-32883333D01*
X48416666Y-33283333D02*
X48383333Y-33216666D01*
X48350000Y-33183333D01*
X48283333Y-33150000D01*
X48250000Y-33150000D01*
X48183333Y-33183333D01*
X48150000Y-33216666D01*
X48116666Y-33283333D01*
X48116666Y-33416666D01*
X48150000Y-33483333D01*
X48183333Y-33516666D01*
X48250000Y-33550000D01*
X48283333Y-33550000D01*
X48350000Y-33516666D01*
X48383333Y-33483333D01*
X48416666Y-33416666D01*
X48416666Y-33283333D01*
X48450000Y-33216666D01*
X48483333Y-33183333D01*
X48550000Y-33150000D01*
X48683333Y-33150000D01*
X48750000Y-33183333D01*
X48783333Y-33216666D01*
X48816666Y-33283333D01*
X48816666Y-33416666D01*
X48783333Y-33483333D01*
X48750000Y-33516666D01*
X48683333Y-33550000D01*
X48550000Y-33550000D01*
X48483333Y-33516666D01*
X48450000Y-33483333D01*
X48416666Y-33416666D01*
X64750000Y-44383333D02*
X64783333Y-44350000D01*
X64816666Y-44250000D01*
X64816666Y-44183333D01*
X64783333Y-44083333D01*
X64716666Y-44016666D01*
X64650000Y-43983333D01*
X64516666Y-43950000D01*
X64416666Y-43950000D01*
X64283333Y-43983333D01*
X64216666Y-44016666D01*
X64150000Y-44083333D01*
X64116666Y-44183333D01*
X64116666Y-44250000D01*
X64150000Y-44350000D01*
X64183333Y-44383333D01*
X64116666Y-44616666D02*
X64116666Y-45083333D01*
X64816666Y-44783333D01*
X62250000Y-32383333D02*
X62283333Y-32350000D01*
X62316666Y-32250000D01*
X62316666Y-32183333D01*
X62283333Y-32083333D01*
X62216666Y-32016666D01*
X62150000Y-31983333D01*
X62016666Y-31950000D01*
X61916666Y-31950000D01*
X61783333Y-31983333D01*
X61716666Y-32016666D01*
X61650000Y-32083333D01*
X61616666Y-32183333D01*
X61616666Y-32250000D01*
X61650000Y-32350000D01*
X61683333Y-32383333D01*
X61616666Y-33016666D02*
X61616666Y-32683333D01*
X61950000Y-32650000D01*
X61916666Y-32683333D01*
X61883333Y-32750000D01*
X61883333Y-32916666D01*
X61916666Y-32983333D01*
X61950000Y-33016666D01*
X62016666Y-33050000D01*
X62183333Y-33050000D01*
X62250000Y-33016666D01*
X62283333Y-32983333D01*
X62316666Y-32916666D01*
X62316666Y-32750000D01*
X62283333Y-32683333D01*
X62250000Y-32650000D01*
X33616666Y-31250000D02*
X33650000Y-31283333D01*
X33750000Y-31316666D01*
X33816666Y-31316666D01*
X33916666Y-31283333D01*
X33983333Y-31216666D01*
X34016666Y-31150000D01*
X34050000Y-31016666D01*
X34050000Y-30916666D01*
X34016666Y-30783333D01*
X33983333Y-30716666D01*
X33916666Y-30650000D01*
X33816666Y-30616666D01*
X33750000Y-30616666D01*
X33650000Y-30650000D01*
X33616666Y-30683333D01*
X33383333Y-30616666D02*
X32950000Y-30616666D01*
X33183333Y-30883333D01*
X33083333Y-30883333D01*
X33016666Y-30916666D01*
X32983333Y-30950000D01*
X32950000Y-31016666D01*
X32950000Y-31183333D01*
X32983333Y-31250000D01*
X33016666Y-31283333D01*
X33083333Y-31316666D01*
X33283333Y-31316666D01*
X33350000Y-31283333D01*
X33383333Y-31250000D01*
X58933333Y-41283333D02*
X58833333Y-41316666D01*
X58666666Y-41316666D01*
X58600000Y-41283333D01*
X58566666Y-41250000D01*
X58533333Y-41183333D01*
X58533333Y-41116666D01*
X58566666Y-41050000D01*
X58600000Y-41016666D01*
X58666666Y-40983333D01*
X58800000Y-40950000D01*
X58866666Y-40916666D01*
X58900000Y-40883333D01*
X58933333Y-40816666D01*
X58933333Y-40750000D01*
X58900000Y-40683333D01*
X58866666Y-40650000D01*
X58800000Y-40616666D01*
X58633333Y-40616666D01*
X58533333Y-40650000D01*
X58300000Y-40616666D02*
X58133333Y-41316666D01*
X58000000Y-40816666D01*
X57866666Y-41316666D01*
X57700000Y-40616666D01*
X57466666Y-40683333D02*
X57433333Y-40650000D01*
X57366666Y-40616666D01*
X57200000Y-40616666D01*
X57133333Y-40650000D01*
X57100000Y-40683333D01*
X57066666Y-40750000D01*
X57066666Y-40816666D01*
X57100000Y-40916666D01*
X57500000Y-41316666D01*
X57066666Y-41316666D01*
X40533333Y-31616666D02*
X40533333Y-32183333D01*
X40500000Y-32250000D01*
X40466666Y-32283333D01*
X40400000Y-32316666D01*
X40266666Y-32316666D01*
X40200000Y-32283333D01*
X40166666Y-32250000D01*
X40133333Y-32183333D01*
X40133333Y-31616666D01*
X39500000Y-31616666D02*
X39633333Y-31616666D01*
X39700000Y-31650000D01*
X39733333Y-31683333D01*
X39800000Y-31783333D01*
X39833333Y-31916666D01*
X39833333Y-32183333D01*
X39800000Y-32250000D01*
X39766666Y-32283333D01*
X39700000Y-32316666D01*
X39566666Y-32316666D01*
X39500000Y-32283333D01*
X39466666Y-32250000D01*
X39433333Y-32183333D01*
X39433333Y-32016666D01*
X39466666Y-31950000D01*
X39500000Y-31916666D01*
X39566666Y-31883333D01*
X39700000Y-31883333D01*
X39766666Y-31916666D01*
X39800000Y-31950000D01*
X39833333Y-32016666D01*
X50533333Y-34616666D02*
X50533333Y-35183333D01*
X50500000Y-35250000D01*
X50466666Y-35283333D01*
X50400000Y-35316666D01*
X50266666Y-35316666D01*
X50200000Y-35283333D01*
X50166666Y-35250000D01*
X50133333Y-35183333D01*
X50133333Y-34616666D01*
X49866666Y-34616666D02*
X49433333Y-34616666D01*
X49666666Y-34883333D01*
X49566666Y-34883333D01*
X49500000Y-34916666D01*
X49466666Y-34950000D01*
X49433333Y-35016666D01*
X49433333Y-35183333D01*
X49466666Y-35250000D01*
X49500000Y-35283333D01*
X49566666Y-35316666D01*
X49766666Y-35316666D01*
X49833333Y-35283333D01*
X49866666Y-35250000D01*
X59116666Y-30466666D02*
X59683333Y-30466666D01*
X59750000Y-30500000D01*
X59783333Y-30533333D01*
X59816666Y-30600000D01*
X59816666Y-30733333D01*
X59783333Y-30800000D01*
X59750000Y-30833333D01*
X59683333Y-30866666D01*
X59116666Y-30866666D01*
X59816666Y-31566666D02*
X59816666Y-31166666D01*
X59816666Y-31366666D02*
X59116666Y-31366666D01*
X59216666Y-31300000D01*
X59283333Y-31233333D01*
X59316666Y-31166666D01*
M02*
