G04 #@! TF.GenerationSoftware,KiCad,Pcbnew,(5.1.10)-1*
G04 #@! TF.CreationDate,2021-10-28T01:20:31+09:00*
G04 #@! TF.ProjectId,cat_tracker,6361745f-7472-4616-936b-65722e6b6963,rev?*
G04 #@! TF.SameCoordinates,Original*
G04 #@! TF.FileFunction,Soldermask,Top*
G04 #@! TF.FilePolarity,Negative*
%FSLAX46Y46*%
G04 Gerber Fmt 4.6, Leading zero omitted, Abs format (unit mm)*
G04 Created by KiCad (PCBNEW (5.1.10)-1) date 2021-10-28 01:20:31*
%MOMM*%
%LPD*%
G01*
G04 APERTURE LIST*
%ADD10O,2.000000X1.400000*%
%ADD11O,1.400000X2.200000*%
%ADD12R,0.800000X0.900000*%
%ADD13R,0.900000X2.000000*%
%ADD14R,2.000000X0.900000*%
%ADD15R,5.000000X5.000000*%
%ADD16R,1.060000X0.650000*%
%ADD17R,1.500000X1.500000*%
G04 APERTURE END LIST*
D10*
X54200000Y-36500000D03*
X57800000Y-36500000D03*
D11*
X51675000Y-36100000D03*
X60325000Y-36100000D03*
G36*
G01*
X53775000Y-42575000D02*
X53225000Y-42575000D01*
G75*
G02*
X53025000Y-42375000I0J200000D01*
G01*
X53025000Y-41975000D01*
G75*
G02*
X53225000Y-41775000I200000J0D01*
G01*
X53775000Y-41775000D01*
G75*
G02*
X53975000Y-41975000I0J-200000D01*
G01*
X53975000Y-42375000D01*
G75*
G02*
X53775000Y-42575000I-200000J0D01*
G01*
G37*
G36*
G01*
X53775000Y-44225000D02*
X53225000Y-44225000D01*
G75*
G02*
X53025000Y-44025000I0J200000D01*
G01*
X53025000Y-43625000D01*
G75*
G02*
X53225000Y-43425000I200000J0D01*
G01*
X53775000Y-43425000D01*
G75*
G02*
X53975000Y-43625000I0J-200000D01*
G01*
X53975000Y-44025000D01*
G75*
G02*
X53775000Y-44225000I-200000J0D01*
G01*
G37*
G36*
G01*
X52275000Y-42575000D02*
X51725000Y-42575000D01*
G75*
G02*
X51525000Y-42375000I0J200000D01*
G01*
X51525000Y-41975000D01*
G75*
G02*
X51725000Y-41775000I200000J0D01*
G01*
X52275000Y-41775000D01*
G75*
G02*
X52475000Y-41975000I0J-200000D01*
G01*
X52475000Y-42375000D01*
G75*
G02*
X52275000Y-42575000I-200000J0D01*
G01*
G37*
G36*
G01*
X52275000Y-44225000D02*
X51725000Y-44225000D01*
G75*
G02*
X51525000Y-44025000I0J200000D01*
G01*
X51525000Y-43625000D01*
G75*
G02*
X51725000Y-43425000I200000J0D01*
G01*
X52275000Y-43425000D01*
G75*
G02*
X52475000Y-43625000I0J-200000D01*
G01*
X52475000Y-44025000D01*
G75*
G02*
X52275000Y-44225000I-200000J0D01*
G01*
G37*
G36*
G01*
X53425000Y-46275000D02*
X53425000Y-45725000D01*
G75*
G02*
X53625000Y-45525000I200000J0D01*
G01*
X54025000Y-45525000D01*
G75*
G02*
X54225000Y-45725000I0J-200000D01*
G01*
X54225000Y-46275000D01*
G75*
G02*
X54025000Y-46475000I-200000J0D01*
G01*
X53625000Y-46475000D01*
G75*
G02*
X53425000Y-46275000I0J200000D01*
G01*
G37*
G36*
G01*
X51775000Y-46275000D02*
X51775000Y-45725000D01*
G75*
G02*
X51975000Y-45525000I200000J0D01*
G01*
X52375000Y-45525000D01*
G75*
G02*
X52575000Y-45725000I0J-200000D01*
G01*
X52575000Y-46275000D01*
G75*
G02*
X52375000Y-46475000I-200000J0D01*
G01*
X51975000Y-46475000D01*
G75*
G02*
X51775000Y-46275000I0J200000D01*
G01*
G37*
G36*
G01*
X57925000Y-39775000D02*
X57925000Y-39225000D01*
G75*
G02*
X58125000Y-39025000I200000J0D01*
G01*
X58525000Y-39025000D01*
G75*
G02*
X58725000Y-39225000I0J-200000D01*
G01*
X58725000Y-39775000D01*
G75*
G02*
X58525000Y-39975000I-200000J0D01*
G01*
X58125000Y-39975000D01*
G75*
G02*
X57925000Y-39775000I0J200000D01*
G01*
G37*
G36*
G01*
X56275000Y-39775000D02*
X56275000Y-39225000D01*
G75*
G02*
X56475000Y-39025000I200000J0D01*
G01*
X56875000Y-39025000D01*
G75*
G02*
X57075000Y-39225000I0J-200000D01*
G01*
X57075000Y-39775000D01*
G75*
G02*
X56875000Y-39975000I-200000J0D01*
G01*
X56475000Y-39975000D01*
G75*
G02*
X56275000Y-39775000I0J200000D01*
G01*
G37*
D12*
X56000000Y-42000000D03*
X56950000Y-44000000D03*
X55050000Y-44000000D03*
X59500000Y-42000000D03*
X60450000Y-44000000D03*
X58550000Y-44000000D03*
G36*
G01*
X54150000Y-39243750D02*
X54150000Y-39756250D01*
G75*
G02*
X53931250Y-39975000I-218750J0D01*
G01*
X53493750Y-39975000D01*
G75*
G02*
X53275000Y-39756250I0J218750D01*
G01*
X53275000Y-39243750D01*
G75*
G02*
X53493750Y-39025000I218750J0D01*
G01*
X53931250Y-39025000D01*
G75*
G02*
X54150000Y-39243750I0J-218750D01*
G01*
G37*
G36*
G01*
X55725000Y-39243750D02*
X55725000Y-39756250D01*
G75*
G02*
X55506250Y-39975000I-218750J0D01*
G01*
X55068750Y-39975000D01*
G75*
G02*
X54850000Y-39756250I0J218750D01*
G01*
X54850000Y-39243750D01*
G75*
G02*
X55068750Y-39025000I218750J0D01*
G01*
X55506250Y-39025000D01*
G75*
G02*
X55725000Y-39243750I0J-218750D01*
G01*
G37*
G36*
G01*
X52675000Y-47250000D02*
X52675000Y-47750000D01*
G75*
G02*
X52450000Y-47975000I-225000J0D01*
G01*
X52000000Y-47975000D01*
G75*
G02*
X51775000Y-47750000I0J225000D01*
G01*
X51775000Y-47250000D01*
G75*
G02*
X52000000Y-47025000I225000J0D01*
G01*
X52450000Y-47025000D01*
G75*
G02*
X52675000Y-47250000I0J-225000D01*
G01*
G37*
G36*
G01*
X54225000Y-47250000D02*
X54225000Y-47750000D01*
G75*
G02*
X54000000Y-47975000I-225000J0D01*
G01*
X53550000Y-47975000D01*
G75*
G02*
X53325000Y-47750000I0J225000D01*
G01*
X53325000Y-47250000D01*
G75*
G02*
X53550000Y-47025000I225000J0D01*
G01*
X54000000Y-47025000D01*
G75*
G02*
X54225000Y-47250000I0J-225000D01*
G01*
G37*
G36*
G01*
X63750000Y-32675000D02*
X63250000Y-32675000D01*
G75*
G02*
X63025000Y-32450000I0J225000D01*
G01*
X63025000Y-32000000D01*
G75*
G02*
X63250000Y-31775000I225000J0D01*
G01*
X63750000Y-31775000D01*
G75*
G02*
X63975000Y-32000000I0J-225000D01*
G01*
X63975000Y-32450000D01*
G75*
G02*
X63750000Y-32675000I-225000J0D01*
G01*
G37*
G36*
G01*
X63750000Y-34225000D02*
X63250000Y-34225000D01*
G75*
G02*
X63025000Y-34000000I0J225000D01*
G01*
X63025000Y-33550000D01*
G75*
G02*
X63250000Y-33325000I225000J0D01*
G01*
X63750000Y-33325000D01*
G75*
G02*
X63975000Y-33550000I0J-225000D01*
G01*
X63975000Y-34000000D01*
G75*
G02*
X63750000Y-34225000I-225000J0D01*
G01*
G37*
G36*
G01*
X57250000Y-33325000D02*
X57750000Y-33325000D01*
G75*
G02*
X57975000Y-33550000I0J-225000D01*
G01*
X57975000Y-34000000D01*
G75*
G02*
X57750000Y-34225000I-225000J0D01*
G01*
X57250000Y-34225000D01*
G75*
G02*
X57025000Y-34000000I0J225000D01*
G01*
X57025000Y-33550000D01*
G75*
G02*
X57250000Y-33325000I225000J0D01*
G01*
G37*
G36*
G01*
X57250000Y-31775000D02*
X57750000Y-31775000D01*
G75*
G02*
X57975000Y-32000000I0J-225000D01*
G01*
X57975000Y-32450000D01*
G75*
G02*
X57750000Y-32675000I-225000J0D01*
G01*
X57250000Y-32675000D01*
G75*
G02*
X57025000Y-32450000I0J225000D01*
G01*
X57025000Y-32000000D01*
G75*
G02*
X57250000Y-31775000I225000J0D01*
G01*
G37*
G36*
G01*
X52175000Y-31750000D02*
X52175000Y-32250000D01*
G75*
G02*
X51950000Y-32475000I-225000J0D01*
G01*
X51500000Y-32475000D01*
G75*
G02*
X51275000Y-32250000I0J225000D01*
G01*
X51275000Y-31750000D01*
G75*
G02*
X51500000Y-31525000I225000J0D01*
G01*
X51950000Y-31525000D01*
G75*
G02*
X52175000Y-31750000I0J-225000D01*
G01*
G37*
G36*
G01*
X53725000Y-31750000D02*
X53725000Y-32250000D01*
G75*
G02*
X53500000Y-32475000I-225000J0D01*
G01*
X53050000Y-32475000D01*
G75*
G02*
X52825000Y-32250000I0J225000D01*
G01*
X52825000Y-31750000D01*
G75*
G02*
X53050000Y-31525000I225000J0D01*
G01*
X53500000Y-31525000D01*
G75*
G02*
X53725000Y-31750000I0J-225000D01*
G01*
G37*
G36*
G01*
X52175000Y-33250000D02*
X52175000Y-33750000D01*
G75*
G02*
X51950000Y-33975000I-225000J0D01*
G01*
X51500000Y-33975000D01*
G75*
G02*
X51275000Y-33750000I0J225000D01*
G01*
X51275000Y-33250000D01*
G75*
G02*
X51500000Y-33025000I225000J0D01*
G01*
X51950000Y-33025000D01*
G75*
G02*
X52175000Y-33250000I0J-225000D01*
G01*
G37*
G36*
G01*
X53725000Y-33250000D02*
X53725000Y-33750000D01*
G75*
G02*
X53500000Y-33975000I-225000J0D01*
G01*
X53050000Y-33975000D01*
G75*
G02*
X52825000Y-33750000I0J225000D01*
G01*
X52825000Y-33250000D01*
G75*
G02*
X53050000Y-33025000I225000J0D01*
G01*
X53500000Y-33025000D01*
G75*
G02*
X53725000Y-33250000I0J-225000D01*
G01*
G37*
D13*
X31995000Y-31000000D03*
X33265000Y-31000000D03*
X34535000Y-31000000D03*
X35805000Y-31000000D03*
X37075000Y-31000000D03*
X38345000Y-31000000D03*
X39615000Y-31000000D03*
X40885000Y-31000000D03*
X42155000Y-31000000D03*
X43425000Y-31000000D03*
X44695000Y-31000000D03*
X45965000Y-31000000D03*
X47235000Y-31000000D03*
X48505000Y-31000000D03*
D14*
X49505000Y-33785000D03*
X49505000Y-35055000D03*
X49505000Y-36325000D03*
X49505000Y-37595000D03*
X49505000Y-38865000D03*
X49505000Y-40135000D03*
X49505000Y-41405000D03*
X49505000Y-42675000D03*
X49505000Y-43945000D03*
X49505000Y-45215000D03*
D13*
X48505000Y-48000000D03*
X47235000Y-48000000D03*
X45965000Y-48000000D03*
X44695000Y-48000000D03*
X43425000Y-48000000D03*
X42155000Y-48000000D03*
X40885000Y-48000000D03*
X39615000Y-48000000D03*
X38345000Y-48000000D03*
X37075000Y-48000000D03*
X35805000Y-48000000D03*
X34535000Y-48000000D03*
X33265000Y-48000000D03*
X31995000Y-48000000D03*
D15*
X39495000Y-40500000D03*
D16*
X61600000Y-32050000D03*
X61600000Y-33950000D03*
X59400000Y-33950000D03*
X59400000Y-33000000D03*
X59400000Y-32050000D03*
D17*
X63000000Y-38500000D03*
X63000000Y-40500000D03*
M02*
