M48
INCH,TZ
T1C0.0118
T2C0.0157
%
G90
G05
T1
X13110Y-13780
X13583Y-18268
X13622Y-12835
X13780Y-14961
X14134Y-16654
X14407Y-14961
X15276Y-13268
X15433Y-14606
X17047Y-14882
X17638Y-13661
X17717Y-14134
X17992Y-13425
X17992Y-14173
X17992Y-14882
X18701Y-16614
X18898Y-14173
X19094Y-12795
X20079Y-18701
X20433Y-15000
X20748Y-16181
X20974Y-12864
X21063Y-16339
X21929Y-12756
X22165Y-18071
X22441Y-12087
X22992Y-13346
X23425Y-12205
X23819Y-16929
X24055Y-18543
X24173Y-15512
X24331Y-16693
X24331Y-17136
X24616Y-12490
X24803Y-17205
X25000Y-14488
X25354Y-13740
T2
G00X20344Y-14370
M15
G01X20344Y-14055
M16
G05
G00X21457Y-14370
M15
G01X21220Y-14370
M16
G05
G00X22874Y-14370
M15
G01X22638Y-14370
M16
G05
G00X23750Y-14370
M15
G01X23750Y-14055
M16
G05
T0
M30
