G04 #@! TF.GenerationSoftware,KiCad,Pcbnew,(5.1.10)-1*
G04 #@! TF.CreationDate,2021-12-13T15:30:26+09:00*
G04 #@! TF.ProjectId,cat_tracker,6361745f-7472-4616-936b-65722e6b6963,rev?*
G04 #@! TF.SameCoordinates,Original*
G04 #@! TF.FileFunction,Copper,L1,Top*
G04 #@! TF.FilePolarity,Positive*
%FSLAX46Y46*%
G04 Gerber Fmt 4.6, Leading zero omitted, Abs format (unit mm)*
G04 Created by KiCad (PCBNEW (5.1.10)-1) date 2021-12-13 15:30:26*
%MOMM*%
%LPD*%
G01*
G04 APERTURE LIST*
G04 #@! TA.AperFunction,ComponentPad*
%ADD10O,2.000000X1.400000*%
G04 #@! TD*
G04 #@! TA.AperFunction,ComponentPad*
%ADD11O,1.400000X2.200000*%
G04 #@! TD*
G04 #@! TA.AperFunction,SMDPad,CuDef*
%ADD12R,0.800000X0.900000*%
G04 #@! TD*
G04 #@! TA.AperFunction,SMDPad,CuDef*
%ADD13R,0.900000X2.000000*%
G04 #@! TD*
G04 #@! TA.AperFunction,SMDPad,CuDef*
%ADD14R,2.000000X0.900000*%
G04 #@! TD*
G04 #@! TA.AperFunction,SMDPad,CuDef*
%ADD15R,5.000000X5.000000*%
G04 #@! TD*
G04 #@! TA.AperFunction,SMDPad,CuDef*
%ADD16R,1.060000X0.650000*%
G04 #@! TD*
G04 #@! TA.AperFunction,SMDPad,CuDef*
%ADD17R,1.500000X1.500000*%
G04 #@! TD*
G04 #@! TA.AperFunction,ViaPad*
%ADD18C,0.400000*%
G04 #@! TD*
G04 #@! TA.AperFunction,Conductor*
%ADD19C,0.400000*%
G04 #@! TD*
G04 #@! TA.AperFunction,Conductor*
%ADD20C,0.250000*%
G04 #@! TD*
G04 #@! TA.AperFunction,Conductor*
%ADD21C,0.100000*%
G04 #@! TD*
G04 APERTURE END LIST*
G04 #@! TA.AperFunction,SMDPad,CuDef*
G36*
G01*
X56725000Y-47425000D02*
X57275000Y-47425000D01*
G75*
G02*
X57475000Y-47625000I0J-200000D01*
G01*
X57475000Y-48025000D01*
G75*
G02*
X57275000Y-48225000I-200000J0D01*
G01*
X56725000Y-48225000D01*
G75*
G02*
X56525000Y-48025000I0J200000D01*
G01*
X56525000Y-47625000D01*
G75*
G02*
X56725000Y-47425000I200000J0D01*
G01*
G37*
G04 #@! TD.AperFunction*
G04 #@! TA.AperFunction,SMDPad,CuDef*
G36*
G01*
X56725000Y-45775000D02*
X57275000Y-45775000D01*
G75*
G02*
X57475000Y-45975000I0J-200000D01*
G01*
X57475000Y-46375000D01*
G75*
G02*
X57275000Y-46575000I-200000J0D01*
G01*
X56725000Y-46575000D01*
G75*
G02*
X56525000Y-46375000I0J200000D01*
G01*
X56525000Y-45975000D01*
G75*
G02*
X56725000Y-45775000I200000J0D01*
G01*
G37*
G04 #@! TD.AperFunction*
G04 #@! TA.AperFunction,SMDPad,CuDef*
G36*
G01*
X58775000Y-46575000D02*
X58225000Y-46575000D01*
G75*
G02*
X58025000Y-46375000I0J200000D01*
G01*
X58025000Y-45975000D01*
G75*
G02*
X58225000Y-45775000I200000J0D01*
G01*
X58775000Y-45775000D01*
G75*
G02*
X58975000Y-45975000I0J-200000D01*
G01*
X58975000Y-46375000D01*
G75*
G02*
X58775000Y-46575000I-200000J0D01*
G01*
G37*
G04 #@! TD.AperFunction*
G04 #@! TA.AperFunction,SMDPad,CuDef*
G36*
G01*
X58775000Y-48225000D02*
X58225000Y-48225000D01*
G75*
G02*
X58025000Y-48025000I0J200000D01*
G01*
X58025000Y-47625000D01*
G75*
G02*
X58225000Y-47425000I200000J0D01*
G01*
X58775000Y-47425000D01*
G75*
G02*
X58975000Y-47625000I0J-200000D01*
G01*
X58975000Y-48025000D01*
G75*
G02*
X58775000Y-48225000I-200000J0D01*
G01*
G37*
G04 #@! TD.AperFunction*
D10*
X54200000Y-36500000D03*
X57800000Y-36500000D03*
D11*
X51675000Y-36100000D03*
X60325000Y-36100000D03*
G04 #@! TA.AperFunction,SMDPad,CuDef*
G36*
G01*
X53775000Y-42575000D02*
X53225000Y-42575000D01*
G75*
G02*
X53025000Y-42375000I0J200000D01*
G01*
X53025000Y-41975000D01*
G75*
G02*
X53225000Y-41775000I200000J0D01*
G01*
X53775000Y-41775000D01*
G75*
G02*
X53975000Y-41975000I0J-200000D01*
G01*
X53975000Y-42375000D01*
G75*
G02*
X53775000Y-42575000I-200000J0D01*
G01*
G37*
G04 #@! TD.AperFunction*
G04 #@! TA.AperFunction,SMDPad,CuDef*
G36*
G01*
X53775000Y-44225000D02*
X53225000Y-44225000D01*
G75*
G02*
X53025000Y-44025000I0J200000D01*
G01*
X53025000Y-43625000D01*
G75*
G02*
X53225000Y-43425000I200000J0D01*
G01*
X53775000Y-43425000D01*
G75*
G02*
X53975000Y-43625000I0J-200000D01*
G01*
X53975000Y-44025000D01*
G75*
G02*
X53775000Y-44225000I-200000J0D01*
G01*
G37*
G04 #@! TD.AperFunction*
G04 #@! TA.AperFunction,SMDPad,CuDef*
G36*
G01*
X52275000Y-42575000D02*
X51725000Y-42575000D01*
G75*
G02*
X51525000Y-42375000I0J200000D01*
G01*
X51525000Y-41975000D01*
G75*
G02*
X51725000Y-41775000I200000J0D01*
G01*
X52275000Y-41775000D01*
G75*
G02*
X52475000Y-41975000I0J-200000D01*
G01*
X52475000Y-42375000D01*
G75*
G02*
X52275000Y-42575000I-200000J0D01*
G01*
G37*
G04 #@! TD.AperFunction*
G04 #@! TA.AperFunction,SMDPad,CuDef*
G36*
G01*
X52275000Y-44225000D02*
X51725000Y-44225000D01*
G75*
G02*
X51525000Y-44025000I0J200000D01*
G01*
X51525000Y-43625000D01*
G75*
G02*
X51725000Y-43425000I200000J0D01*
G01*
X52275000Y-43425000D01*
G75*
G02*
X52475000Y-43625000I0J-200000D01*
G01*
X52475000Y-44025000D01*
G75*
G02*
X52275000Y-44225000I-200000J0D01*
G01*
G37*
G04 #@! TD.AperFunction*
G04 #@! TA.AperFunction,SMDPad,CuDef*
G36*
G01*
X53425000Y-46275000D02*
X53425000Y-45725000D01*
G75*
G02*
X53625000Y-45525000I200000J0D01*
G01*
X54025000Y-45525000D01*
G75*
G02*
X54225000Y-45725000I0J-200000D01*
G01*
X54225000Y-46275000D01*
G75*
G02*
X54025000Y-46475000I-200000J0D01*
G01*
X53625000Y-46475000D01*
G75*
G02*
X53425000Y-46275000I0J200000D01*
G01*
G37*
G04 #@! TD.AperFunction*
G04 #@! TA.AperFunction,SMDPad,CuDef*
G36*
G01*
X51775000Y-46275000D02*
X51775000Y-45725000D01*
G75*
G02*
X51975000Y-45525000I200000J0D01*
G01*
X52375000Y-45525000D01*
G75*
G02*
X52575000Y-45725000I0J-200000D01*
G01*
X52575000Y-46275000D01*
G75*
G02*
X52375000Y-46475000I-200000J0D01*
G01*
X51975000Y-46475000D01*
G75*
G02*
X51775000Y-46275000I0J200000D01*
G01*
G37*
G04 #@! TD.AperFunction*
G04 #@! TA.AperFunction,SMDPad,CuDef*
G36*
G01*
X57925000Y-39775000D02*
X57925000Y-39225000D01*
G75*
G02*
X58125000Y-39025000I200000J0D01*
G01*
X58525000Y-39025000D01*
G75*
G02*
X58725000Y-39225000I0J-200000D01*
G01*
X58725000Y-39775000D01*
G75*
G02*
X58525000Y-39975000I-200000J0D01*
G01*
X58125000Y-39975000D01*
G75*
G02*
X57925000Y-39775000I0J200000D01*
G01*
G37*
G04 #@! TD.AperFunction*
G04 #@! TA.AperFunction,SMDPad,CuDef*
G36*
G01*
X56275000Y-39775000D02*
X56275000Y-39225000D01*
G75*
G02*
X56475000Y-39025000I200000J0D01*
G01*
X56875000Y-39025000D01*
G75*
G02*
X57075000Y-39225000I0J-200000D01*
G01*
X57075000Y-39775000D01*
G75*
G02*
X56875000Y-39975000I-200000J0D01*
G01*
X56475000Y-39975000D01*
G75*
G02*
X56275000Y-39775000I0J200000D01*
G01*
G37*
G04 #@! TD.AperFunction*
D12*
X56000000Y-42000000D03*
X56950000Y-44000000D03*
X55050000Y-44000000D03*
X59500000Y-42000000D03*
X60450000Y-44000000D03*
X58550000Y-44000000D03*
G04 #@! TA.AperFunction,SMDPad,CuDef*
G36*
G01*
X54150000Y-39243750D02*
X54150000Y-39756250D01*
G75*
G02*
X53931250Y-39975000I-218750J0D01*
G01*
X53493750Y-39975000D01*
G75*
G02*
X53275000Y-39756250I0J218750D01*
G01*
X53275000Y-39243750D01*
G75*
G02*
X53493750Y-39025000I218750J0D01*
G01*
X53931250Y-39025000D01*
G75*
G02*
X54150000Y-39243750I0J-218750D01*
G01*
G37*
G04 #@! TD.AperFunction*
G04 #@! TA.AperFunction,SMDPad,CuDef*
G36*
G01*
X55725000Y-39243750D02*
X55725000Y-39756250D01*
G75*
G02*
X55506250Y-39975000I-218750J0D01*
G01*
X55068750Y-39975000D01*
G75*
G02*
X54850000Y-39756250I0J218750D01*
G01*
X54850000Y-39243750D01*
G75*
G02*
X55068750Y-39025000I218750J0D01*
G01*
X55506250Y-39025000D01*
G75*
G02*
X55725000Y-39243750I0J-218750D01*
G01*
G37*
G04 #@! TD.AperFunction*
G04 #@! TA.AperFunction,SMDPad,CuDef*
G36*
G01*
X52675000Y-47250000D02*
X52675000Y-47750000D01*
G75*
G02*
X52450000Y-47975000I-225000J0D01*
G01*
X52000000Y-47975000D01*
G75*
G02*
X51775000Y-47750000I0J225000D01*
G01*
X51775000Y-47250000D01*
G75*
G02*
X52000000Y-47025000I225000J0D01*
G01*
X52450000Y-47025000D01*
G75*
G02*
X52675000Y-47250000I0J-225000D01*
G01*
G37*
G04 #@! TD.AperFunction*
G04 #@! TA.AperFunction,SMDPad,CuDef*
G36*
G01*
X54225000Y-47250000D02*
X54225000Y-47750000D01*
G75*
G02*
X54000000Y-47975000I-225000J0D01*
G01*
X53550000Y-47975000D01*
G75*
G02*
X53325000Y-47750000I0J225000D01*
G01*
X53325000Y-47250000D01*
G75*
G02*
X53550000Y-47025000I225000J0D01*
G01*
X54000000Y-47025000D01*
G75*
G02*
X54225000Y-47250000I0J-225000D01*
G01*
G37*
G04 #@! TD.AperFunction*
G04 #@! TA.AperFunction,SMDPad,CuDef*
G36*
G01*
X57250000Y-33325000D02*
X57750000Y-33325000D01*
G75*
G02*
X57975000Y-33550000I0J-225000D01*
G01*
X57975000Y-34000000D01*
G75*
G02*
X57750000Y-34225000I-225000J0D01*
G01*
X57250000Y-34225000D01*
G75*
G02*
X57025000Y-34000000I0J225000D01*
G01*
X57025000Y-33550000D01*
G75*
G02*
X57250000Y-33325000I225000J0D01*
G01*
G37*
G04 #@! TD.AperFunction*
G04 #@! TA.AperFunction,SMDPad,CuDef*
G36*
G01*
X57250000Y-31775000D02*
X57750000Y-31775000D01*
G75*
G02*
X57975000Y-32000000I0J-225000D01*
G01*
X57975000Y-32450000D01*
G75*
G02*
X57750000Y-32675000I-225000J0D01*
G01*
X57250000Y-32675000D01*
G75*
G02*
X57025000Y-32450000I0J225000D01*
G01*
X57025000Y-32000000D01*
G75*
G02*
X57250000Y-31775000I225000J0D01*
G01*
G37*
G04 #@! TD.AperFunction*
G04 #@! TA.AperFunction,SMDPad,CuDef*
G36*
G01*
X52175000Y-31750000D02*
X52175000Y-32250000D01*
G75*
G02*
X51950000Y-32475000I-225000J0D01*
G01*
X51500000Y-32475000D01*
G75*
G02*
X51275000Y-32250000I0J225000D01*
G01*
X51275000Y-31750000D01*
G75*
G02*
X51500000Y-31525000I225000J0D01*
G01*
X51950000Y-31525000D01*
G75*
G02*
X52175000Y-31750000I0J-225000D01*
G01*
G37*
G04 #@! TD.AperFunction*
G04 #@! TA.AperFunction,SMDPad,CuDef*
G36*
G01*
X53725000Y-31750000D02*
X53725000Y-32250000D01*
G75*
G02*
X53500000Y-32475000I-225000J0D01*
G01*
X53050000Y-32475000D01*
G75*
G02*
X52825000Y-32250000I0J225000D01*
G01*
X52825000Y-31750000D01*
G75*
G02*
X53050000Y-31525000I225000J0D01*
G01*
X53500000Y-31525000D01*
G75*
G02*
X53725000Y-31750000I0J-225000D01*
G01*
G37*
G04 #@! TD.AperFunction*
G04 #@! TA.AperFunction,SMDPad,CuDef*
G36*
G01*
X52175000Y-33250000D02*
X52175000Y-33750000D01*
G75*
G02*
X51950000Y-33975000I-225000J0D01*
G01*
X51500000Y-33975000D01*
G75*
G02*
X51275000Y-33750000I0J225000D01*
G01*
X51275000Y-33250000D01*
G75*
G02*
X51500000Y-33025000I225000J0D01*
G01*
X51950000Y-33025000D01*
G75*
G02*
X52175000Y-33250000I0J-225000D01*
G01*
G37*
G04 #@! TD.AperFunction*
G04 #@! TA.AperFunction,SMDPad,CuDef*
G36*
G01*
X53725000Y-33250000D02*
X53725000Y-33750000D01*
G75*
G02*
X53500000Y-33975000I-225000J0D01*
G01*
X53050000Y-33975000D01*
G75*
G02*
X52825000Y-33750000I0J225000D01*
G01*
X52825000Y-33250000D01*
G75*
G02*
X53050000Y-33025000I225000J0D01*
G01*
X53500000Y-33025000D01*
G75*
G02*
X53725000Y-33250000I0J-225000D01*
G01*
G37*
G04 #@! TD.AperFunction*
D13*
X31995000Y-31000000D03*
X33265000Y-31000000D03*
X34535000Y-31000000D03*
X35805000Y-31000000D03*
X37075000Y-31000000D03*
X38345000Y-31000000D03*
X39615000Y-31000000D03*
X40885000Y-31000000D03*
X42155000Y-31000000D03*
X43425000Y-31000000D03*
X44695000Y-31000000D03*
X45965000Y-31000000D03*
X47235000Y-31000000D03*
X48505000Y-31000000D03*
D14*
X49505000Y-33785000D03*
X49505000Y-35055000D03*
X49505000Y-36325000D03*
X49505000Y-37595000D03*
X49505000Y-38865000D03*
X49505000Y-40135000D03*
X49505000Y-41405000D03*
X49505000Y-42675000D03*
X49505000Y-43945000D03*
X49505000Y-45215000D03*
D13*
X48505000Y-48000000D03*
X47235000Y-48000000D03*
X45965000Y-48000000D03*
X44695000Y-48000000D03*
X43425000Y-48000000D03*
X42155000Y-48000000D03*
X40885000Y-48000000D03*
X39615000Y-48000000D03*
X38345000Y-48000000D03*
X37075000Y-48000000D03*
X35805000Y-48000000D03*
X34535000Y-48000000D03*
X33265000Y-48000000D03*
X31995000Y-48000000D03*
D15*
X39495000Y-40500000D03*
D16*
X61600000Y-32050000D03*
X61600000Y-33950000D03*
X59400000Y-33950000D03*
X59400000Y-33000000D03*
X59400000Y-32050000D03*
D17*
X63000000Y-38500000D03*
X63000000Y-40500000D03*
D18*
X53275000Y-32675000D03*
X44800000Y-34700000D03*
X61400000Y-39400000D03*
X61100000Y-47100000D03*
X63000000Y-43700000D03*
X39200000Y-37100000D03*
X51000000Y-47500000D03*
X45000000Y-35900000D03*
X35900000Y-42300000D03*
X59500000Y-31000000D03*
X48500000Y-32500000D03*
X57000000Y-30700000D03*
X62525000Y-31725000D03*
X43300000Y-37800000D03*
X45700000Y-37800000D03*
X45700000Y-36000000D03*
X45700000Y-34100000D03*
X60500000Y-43000000D03*
X48000000Y-36000000D03*
X51900000Y-38100000D03*
X64400000Y-34900000D03*
X61800000Y-42400000D03*
X61800000Y-43525000D03*
X47500000Y-42200000D03*
X53500000Y-41500000D03*
X36594998Y-38000000D03*
X35000000Y-38000000D03*
X52700000Y-41100000D03*
X34500000Y-46400000D03*
X55700000Y-32400000D03*
X63500000Y-36800000D03*
X34600000Y-32600000D03*
X38800000Y-33700000D03*
X33300000Y-35000000D03*
X55600000Y-45900000D03*
X58400000Y-33900000D03*
X55000000Y-47000000D03*
X55000000Y-43000000D03*
D19*
X53275000Y-32675000D02*
X53275000Y-32000000D01*
X53275000Y-33500000D02*
X53275000Y-32675000D01*
X54200000Y-34425000D02*
X53275000Y-33500000D01*
X54200000Y-36500000D02*
X54200000Y-34425000D01*
D20*
X51725000Y-32000000D02*
X51725000Y-33500000D01*
X44800000Y-34700000D02*
X44800000Y-33500000D01*
X45300000Y-33000000D02*
X48000000Y-33000000D01*
X44800000Y-33500000D02*
X45300000Y-33000000D01*
X62725000Y-33000000D02*
X63500000Y-32225000D01*
X59400000Y-33000000D02*
X62725000Y-33000000D01*
X58275000Y-33000000D02*
X57500000Y-33775000D01*
X59400000Y-33000000D02*
X58275000Y-33000000D01*
X57800000Y-36500000D02*
X57800000Y-35100000D01*
X57500000Y-34800000D02*
X57500000Y-33775000D01*
X57800000Y-35100000D02*
X57500000Y-34800000D01*
X58425000Y-39400000D02*
X58325000Y-39500000D01*
X61400000Y-39400000D02*
X58425000Y-39400000D01*
X63000000Y-45200000D02*
X61100000Y-47100000D01*
X63000000Y-43700000D02*
X63000000Y-45200000D01*
X63000000Y-40500000D02*
X63000000Y-43700000D01*
X45000000Y-34900000D02*
X44800000Y-34700000D01*
X45000000Y-35900000D02*
X45000000Y-34900000D01*
D19*
X57675000Y-32050000D02*
X57500000Y-32225000D01*
X59400000Y-32050000D02*
X57675000Y-32050000D01*
X57500000Y-31200000D02*
X57000000Y-30700000D01*
X57500000Y-32225000D02*
X57500000Y-31200000D01*
D20*
X62200000Y-32050000D02*
X62525000Y-31725000D01*
X61600000Y-32050000D02*
X62200000Y-32050000D01*
X43300000Y-37800000D02*
X45700000Y-37800000D01*
X33265000Y-48000000D02*
X33265000Y-45135000D01*
X33265000Y-45135000D02*
X35000000Y-43400000D01*
X35000000Y-43400000D02*
X42100000Y-43400000D01*
X43300000Y-42200000D02*
X43300000Y-37800000D01*
X42100000Y-43400000D02*
X43300000Y-42200000D01*
X45700000Y-36000000D02*
X45700000Y-34100000D01*
X60450000Y-43050000D02*
X60500000Y-43000000D01*
X60450000Y-44000000D02*
X60450000Y-43050000D01*
X57950000Y-43000000D02*
X56950000Y-44000000D01*
X60500000Y-43000000D02*
X57950000Y-43000000D01*
X45700000Y-36000000D02*
X48000000Y-36000000D01*
X51900000Y-38100000D02*
X60600000Y-38100000D01*
X60600000Y-38100000D02*
X63800000Y-34900000D01*
X63800000Y-34900000D02*
X64400000Y-34900000D01*
X63325000Y-33950000D02*
X63500000Y-33775000D01*
X61600000Y-33950000D02*
X63325000Y-33950000D01*
X60450000Y-45875000D02*
X60450000Y-44000000D01*
X58500000Y-47825000D02*
X60450000Y-45875000D01*
X57000000Y-46325000D02*
X58500000Y-47825000D01*
X57000000Y-46175000D02*
X57000000Y-46325000D01*
X61800000Y-42400000D02*
X61800000Y-43525000D01*
X56675000Y-39500000D02*
X55287500Y-39500000D01*
X40885000Y-31000000D02*
X40885000Y-35385000D01*
X40885000Y-35385000D02*
X42700000Y-37200000D01*
X47500000Y-38822998D02*
X47500000Y-42200000D01*
X45877002Y-37200000D02*
X47500000Y-38822998D01*
X42700000Y-37200000D02*
X45877002Y-37200000D01*
X53500000Y-41500000D02*
X53500000Y-42175000D01*
X37075000Y-37237156D02*
X37075000Y-31000000D01*
X36594998Y-37717158D02*
X37075000Y-37237156D01*
X36594998Y-38000000D02*
X36594998Y-37717158D01*
X35805000Y-37195000D02*
X35000000Y-38000000D01*
X35805000Y-31000000D02*
X35805000Y-37195000D01*
X52700000Y-41100000D02*
X52000000Y-41800000D01*
X52000000Y-41800000D02*
X52000000Y-42175000D01*
X34535000Y-46435000D02*
X34500000Y-46400000D01*
X34535000Y-48000000D02*
X34535000Y-46435000D01*
X54300000Y-31000000D02*
X48505000Y-31000000D01*
X55700000Y-32400000D02*
X54300000Y-31000000D01*
X63500000Y-36800000D02*
X63000000Y-37300000D01*
X63000000Y-37300000D02*
X63000000Y-38500000D01*
X34600000Y-31065000D02*
X34535000Y-31000000D01*
X34600000Y-32600000D02*
X34600000Y-31065000D01*
X38345000Y-33245000D02*
X38800000Y-33700000D01*
X38345000Y-31000000D02*
X38345000Y-33245000D01*
X33300000Y-31035000D02*
X33265000Y-31000000D01*
X33300000Y-35000000D02*
X33300000Y-31035000D01*
X45965000Y-48000000D02*
X45965000Y-46835000D01*
X45965000Y-46835000D02*
X46500000Y-46300000D01*
X51875000Y-46300000D02*
X52175000Y-46000000D01*
X46500000Y-46300000D02*
X51875000Y-46300000D01*
X53775000Y-46050000D02*
X53825000Y-46000000D01*
X53775000Y-47500000D02*
X53775000Y-46050000D01*
X55500000Y-46000000D02*
X55600000Y-45900000D01*
X53825000Y-46000000D02*
X55500000Y-46000000D01*
X59350000Y-33900000D02*
X59400000Y-33950000D01*
X58400000Y-33900000D02*
X59350000Y-33900000D01*
X53712500Y-39500000D02*
X53712500Y-39812500D01*
X55900000Y-42000000D02*
X56000000Y-42000000D01*
X53712500Y-39812500D02*
X55900000Y-42000000D01*
X59500000Y-42000000D02*
X56000000Y-42000000D01*
X58550000Y-44000000D02*
X57650000Y-44900000D01*
X53075000Y-44900000D02*
X52000000Y-43825000D01*
X57650000Y-44900000D02*
X53075000Y-44900000D01*
X58500000Y-44050000D02*
X58550000Y-44000000D01*
X58500000Y-46175000D02*
X58500000Y-44050000D01*
X54875000Y-43825000D02*
X55050000Y-44000000D01*
X53500000Y-43825000D02*
X54875000Y-43825000D01*
X55825000Y-47825000D02*
X55000000Y-47000000D01*
X57000000Y-47825000D02*
X55825000Y-47825000D01*
X55000000Y-43950000D02*
X55050000Y-44000000D01*
X55000000Y-43000000D02*
X55000000Y-43950000D01*
X64125740Y-35413104D02*
X64231112Y-35456750D01*
X64342973Y-35479000D01*
X64457027Y-35479000D01*
X64568888Y-35456750D01*
X64596001Y-35445520D01*
X64596000Y-46480239D01*
X64554181Y-46906740D01*
X64436058Y-47297983D01*
X64244190Y-47658835D01*
X63985885Y-47975549D01*
X63670985Y-48236056D01*
X63311481Y-48430440D01*
X62921068Y-48551292D01*
X62495698Y-48596000D01*
X58874832Y-48596000D01*
X58888315Y-48594672D01*
X58997275Y-48561620D01*
X59097694Y-48507945D01*
X59185711Y-48435711D01*
X59257945Y-48347694D01*
X59311620Y-48247275D01*
X59344672Y-48138315D01*
X59355833Y-48025000D01*
X59355833Y-47681930D01*
X60788878Y-46248886D01*
X60808106Y-46233106D01*
X60871088Y-46156362D01*
X60917888Y-46068805D01*
X60946707Y-45973801D01*
X60954000Y-45899754D01*
X60954000Y-45899752D01*
X60956438Y-45875001D01*
X60954000Y-45850250D01*
X60954000Y-44814505D01*
X60995738Y-44801844D01*
X61061579Y-44766651D01*
X61119290Y-44719290D01*
X61166651Y-44661579D01*
X61201844Y-44595738D01*
X61223515Y-44524297D01*
X61230833Y-44450000D01*
X61230833Y-43631462D01*
X61243250Y-43693888D01*
X61286896Y-43799260D01*
X61350261Y-43894091D01*
X61430909Y-43974739D01*
X61525740Y-44038104D01*
X61631112Y-44081750D01*
X61742973Y-44104000D01*
X61857027Y-44104000D01*
X61968888Y-44081750D01*
X62074260Y-44038104D01*
X62169091Y-43974739D01*
X62249739Y-43894091D01*
X62313104Y-43799260D01*
X62356750Y-43693888D01*
X62379000Y-43582027D01*
X62379000Y-43467973D01*
X62356750Y-43356112D01*
X62313104Y-43250740D01*
X62304000Y-43237115D01*
X62304000Y-42687885D01*
X62313104Y-42674260D01*
X62356750Y-42568888D01*
X62379000Y-42457027D01*
X62379000Y-42342973D01*
X62356750Y-42231112D01*
X62313104Y-42125740D01*
X62249739Y-42030909D01*
X62169091Y-41950261D01*
X62074260Y-41886896D01*
X61968888Y-41843250D01*
X61857027Y-41821000D01*
X61742973Y-41821000D01*
X61631112Y-41843250D01*
X61525740Y-41886896D01*
X61430909Y-41950261D01*
X61350261Y-42030909D01*
X61286896Y-42125740D01*
X61243250Y-42231112D01*
X61221000Y-42342973D01*
X61221000Y-42457027D01*
X61243250Y-42568888D01*
X61286896Y-42674260D01*
X61296000Y-42687885D01*
X61296001Y-43237114D01*
X61286896Y-43250740D01*
X61243250Y-43356112D01*
X61221067Y-43467634D01*
X61201844Y-43404262D01*
X61166651Y-43338421D01*
X61119290Y-43280710D01*
X61061579Y-43233349D01*
X61035765Y-43219551D01*
X61056750Y-43168888D01*
X61079000Y-43057027D01*
X61079000Y-42942973D01*
X61056750Y-42831112D01*
X61013104Y-42725740D01*
X60949739Y-42630909D01*
X60869091Y-42550261D01*
X60774260Y-42486896D01*
X60668888Y-42443250D01*
X60557027Y-42421000D01*
X60442973Y-42421000D01*
X60331112Y-42443250D01*
X60279388Y-42464675D01*
X60280833Y-42450000D01*
X60280833Y-41550000D01*
X60273515Y-41475703D01*
X60251844Y-41404262D01*
X60216651Y-41338421D01*
X60169290Y-41280710D01*
X60131869Y-41250000D01*
X61613937Y-41250000D01*
X61626159Y-41374090D01*
X61662354Y-41493411D01*
X61721133Y-41603378D01*
X61800236Y-41699764D01*
X61896622Y-41778867D01*
X62006589Y-41837646D01*
X62125910Y-41873841D01*
X62250000Y-41886063D01*
X62839750Y-41883000D01*
X62998000Y-41724750D01*
X62998000Y-40502000D01*
X63002000Y-40502000D01*
X63002000Y-41724750D01*
X63160250Y-41883000D01*
X63750000Y-41886063D01*
X63874090Y-41873841D01*
X63993411Y-41837646D01*
X64103378Y-41778867D01*
X64199764Y-41699764D01*
X64278867Y-41603378D01*
X64337646Y-41493411D01*
X64373841Y-41374090D01*
X64386063Y-41250000D01*
X64383000Y-40660250D01*
X64224750Y-40502000D01*
X63002000Y-40502000D01*
X62998000Y-40502000D01*
X61775250Y-40502000D01*
X61617000Y-40660250D01*
X61613937Y-41250000D01*
X60131869Y-41250000D01*
X60111579Y-41233349D01*
X60045738Y-41198156D01*
X59974297Y-41176485D01*
X59900000Y-41169167D01*
X59100000Y-41169167D01*
X59025703Y-41176485D01*
X58954262Y-41198156D01*
X58888421Y-41233349D01*
X58830710Y-41280710D01*
X58783349Y-41338421D01*
X58748156Y-41404262D01*
X58726485Y-41475703D01*
X58724486Y-41496000D01*
X56775514Y-41496000D01*
X56773515Y-41475703D01*
X56751844Y-41404262D01*
X56716651Y-41338421D01*
X56669290Y-41280710D01*
X56611579Y-41233349D01*
X56545738Y-41198156D01*
X56474297Y-41176485D01*
X56400000Y-41169167D01*
X55781931Y-41169167D01*
X54957654Y-40344891D01*
X55068750Y-40355833D01*
X55506250Y-40355833D01*
X55623223Y-40344312D01*
X55735700Y-40310192D01*
X55839360Y-40254785D01*
X55930219Y-40180219D01*
X55995000Y-40101283D01*
X56064289Y-40185711D01*
X56152306Y-40257945D01*
X56252725Y-40311620D01*
X56361685Y-40344672D01*
X56475000Y-40355833D01*
X56875000Y-40355833D01*
X56988315Y-40344672D01*
X57097275Y-40311620D01*
X57197694Y-40257945D01*
X57285711Y-40185711D01*
X57316175Y-40148591D01*
X57337354Y-40218411D01*
X57396133Y-40328378D01*
X57475236Y-40424764D01*
X57571622Y-40503867D01*
X57681589Y-40562646D01*
X57800910Y-40598841D01*
X57925000Y-40611063D01*
X58164750Y-40608000D01*
X58323000Y-40449750D01*
X58323000Y-39502000D01*
X58327000Y-39502000D01*
X58327000Y-40449750D01*
X58485250Y-40608000D01*
X58725000Y-40611063D01*
X58849090Y-40598841D01*
X58968411Y-40562646D01*
X59078378Y-40503867D01*
X59174764Y-40424764D01*
X59253867Y-40328378D01*
X59312646Y-40218411D01*
X59348841Y-40099090D01*
X59361063Y-39975000D01*
X59358874Y-39750000D01*
X61613937Y-39750000D01*
X61617000Y-40339750D01*
X61775250Y-40498000D01*
X62998000Y-40498000D01*
X62998000Y-40478000D01*
X63002000Y-40478000D01*
X63002000Y-40498000D01*
X64224750Y-40498000D01*
X64383000Y-40339750D01*
X64386063Y-39750000D01*
X64373841Y-39625910D01*
X64337646Y-39506589D01*
X64278867Y-39396622D01*
X64199764Y-39300236D01*
X64130833Y-39243665D01*
X64130833Y-37750000D01*
X64123515Y-37675703D01*
X64101844Y-37604262D01*
X64066651Y-37538421D01*
X64019290Y-37480710D01*
X63961579Y-37433349D01*
X63895738Y-37398156D01*
X63824297Y-37376485D01*
X63750000Y-37369167D01*
X63643596Y-37369167D01*
X63652816Y-37359947D01*
X63668888Y-37356750D01*
X63774260Y-37313104D01*
X63869091Y-37249739D01*
X63949739Y-37169091D01*
X64013104Y-37074260D01*
X64056750Y-36968888D01*
X64079000Y-36857027D01*
X64079000Y-36742973D01*
X64056750Y-36631112D01*
X64013104Y-36525740D01*
X63949739Y-36430909D01*
X63869091Y-36350261D01*
X63774260Y-36286896D01*
X63668888Y-36243250D01*
X63557027Y-36221000D01*
X63442973Y-36221000D01*
X63331112Y-36243250D01*
X63225740Y-36286896D01*
X63130909Y-36350261D01*
X63050261Y-36430909D01*
X62986896Y-36525740D01*
X62943250Y-36631112D01*
X62940053Y-36647184D01*
X62661127Y-36926110D01*
X62641894Y-36941894D01*
X62578912Y-37018638D01*
X62532112Y-37106196D01*
X62522198Y-37138878D01*
X62503293Y-37201199D01*
X62493562Y-37300000D01*
X62496000Y-37324754D01*
X62496000Y-37369167D01*
X62250000Y-37369167D01*
X62175703Y-37376485D01*
X62104262Y-37398156D01*
X62038421Y-37433349D01*
X61980710Y-37480710D01*
X61933349Y-37538421D01*
X61898156Y-37604262D01*
X61876485Y-37675703D01*
X61869167Y-37750000D01*
X61869167Y-39243665D01*
X61800236Y-39300236D01*
X61721133Y-39396622D01*
X61662354Y-39506589D01*
X61626159Y-39625910D01*
X61613937Y-39750000D01*
X59358874Y-39750000D01*
X59358000Y-39660250D01*
X59199750Y-39502000D01*
X58327000Y-39502000D01*
X58323000Y-39502000D01*
X58303000Y-39502000D01*
X58303000Y-39498000D01*
X58323000Y-39498000D01*
X58323000Y-39478000D01*
X58327000Y-39478000D01*
X58327000Y-39498000D01*
X59199750Y-39498000D01*
X59358000Y-39339750D01*
X59361063Y-39025000D01*
X59348841Y-38900910D01*
X59312646Y-38781589D01*
X59253867Y-38671622D01*
X59198370Y-38604000D01*
X60575246Y-38604000D01*
X60600000Y-38606438D01*
X60698801Y-38596707D01*
X60793805Y-38567888D01*
X60881362Y-38521088D01*
X60958106Y-38458106D01*
X60973890Y-38438873D01*
X64008764Y-35404000D01*
X64112115Y-35404000D01*
X64125740Y-35413104D01*
G04 #@! TA.AperFunction,Conductor*
D21*
G36*
X64125740Y-35413104D02*
G01*
X64231112Y-35456750D01*
X64342973Y-35479000D01*
X64457027Y-35479000D01*
X64568888Y-35456750D01*
X64596001Y-35445520D01*
X64596000Y-46480239D01*
X64554181Y-46906740D01*
X64436058Y-47297983D01*
X64244190Y-47658835D01*
X63985885Y-47975549D01*
X63670985Y-48236056D01*
X63311481Y-48430440D01*
X62921068Y-48551292D01*
X62495698Y-48596000D01*
X58874832Y-48596000D01*
X58888315Y-48594672D01*
X58997275Y-48561620D01*
X59097694Y-48507945D01*
X59185711Y-48435711D01*
X59257945Y-48347694D01*
X59311620Y-48247275D01*
X59344672Y-48138315D01*
X59355833Y-48025000D01*
X59355833Y-47681930D01*
X60788878Y-46248886D01*
X60808106Y-46233106D01*
X60871088Y-46156362D01*
X60917888Y-46068805D01*
X60946707Y-45973801D01*
X60954000Y-45899754D01*
X60954000Y-45899752D01*
X60956438Y-45875001D01*
X60954000Y-45850250D01*
X60954000Y-44814505D01*
X60995738Y-44801844D01*
X61061579Y-44766651D01*
X61119290Y-44719290D01*
X61166651Y-44661579D01*
X61201844Y-44595738D01*
X61223515Y-44524297D01*
X61230833Y-44450000D01*
X61230833Y-43631462D01*
X61243250Y-43693888D01*
X61286896Y-43799260D01*
X61350261Y-43894091D01*
X61430909Y-43974739D01*
X61525740Y-44038104D01*
X61631112Y-44081750D01*
X61742973Y-44104000D01*
X61857027Y-44104000D01*
X61968888Y-44081750D01*
X62074260Y-44038104D01*
X62169091Y-43974739D01*
X62249739Y-43894091D01*
X62313104Y-43799260D01*
X62356750Y-43693888D01*
X62379000Y-43582027D01*
X62379000Y-43467973D01*
X62356750Y-43356112D01*
X62313104Y-43250740D01*
X62304000Y-43237115D01*
X62304000Y-42687885D01*
X62313104Y-42674260D01*
X62356750Y-42568888D01*
X62379000Y-42457027D01*
X62379000Y-42342973D01*
X62356750Y-42231112D01*
X62313104Y-42125740D01*
X62249739Y-42030909D01*
X62169091Y-41950261D01*
X62074260Y-41886896D01*
X61968888Y-41843250D01*
X61857027Y-41821000D01*
X61742973Y-41821000D01*
X61631112Y-41843250D01*
X61525740Y-41886896D01*
X61430909Y-41950261D01*
X61350261Y-42030909D01*
X61286896Y-42125740D01*
X61243250Y-42231112D01*
X61221000Y-42342973D01*
X61221000Y-42457027D01*
X61243250Y-42568888D01*
X61286896Y-42674260D01*
X61296000Y-42687885D01*
X61296001Y-43237114D01*
X61286896Y-43250740D01*
X61243250Y-43356112D01*
X61221067Y-43467634D01*
X61201844Y-43404262D01*
X61166651Y-43338421D01*
X61119290Y-43280710D01*
X61061579Y-43233349D01*
X61035765Y-43219551D01*
X61056750Y-43168888D01*
X61079000Y-43057027D01*
X61079000Y-42942973D01*
X61056750Y-42831112D01*
X61013104Y-42725740D01*
X60949739Y-42630909D01*
X60869091Y-42550261D01*
X60774260Y-42486896D01*
X60668888Y-42443250D01*
X60557027Y-42421000D01*
X60442973Y-42421000D01*
X60331112Y-42443250D01*
X60279388Y-42464675D01*
X60280833Y-42450000D01*
X60280833Y-41550000D01*
X60273515Y-41475703D01*
X60251844Y-41404262D01*
X60216651Y-41338421D01*
X60169290Y-41280710D01*
X60131869Y-41250000D01*
X61613937Y-41250000D01*
X61626159Y-41374090D01*
X61662354Y-41493411D01*
X61721133Y-41603378D01*
X61800236Y-41699764D01*
X61896622Y-41778867D01*
X62006589Y-41837646D01*
X62125910Y-41873841D01*
X62250000Y-41886063D01*
X62839750Y-41883000D01*
X62998000Y-41724750D01*
X62998000Y-40502000D01*
X63002000Y-40502000D01*
X63002000Y-41724750D01*
X63160250Y-41883000D01*
X63750000Y-41886063D01*
X63874090Y-41873841D01*
X63993411Y-41837646D01*
X64103378Y-41778867D01*
X64199764Y-41699764D01*
X64278867Y-41603378D01*
X64337646Y-41493411D01*
X64373841Y-41374090D01*
X64386063Y-41250000D01*
X64383000Y-40660250D01*
X64224750Y-40502000D01*
X63002000Y-40502000D01*
X62998000Y-40502000D01*
X61775250Y-40502000D01*
X61617000Y-40660250D01*
X61613937Y-41250000D01*
X60131869Y-41250000D01*
X60111579Y-41233349D01*
X60045738Y-41198156D01*
X59974297Y-41176485D01*
X59900000Y-41169167D01*
X59100000Y-41169167D01*
X59025703Y-41176485D01*
X58954262Y-41198156D01*
X58888421Y-41233349D01*
X58830710Y-41280710D01*
X58783349Y-41338421D01*
X58748156Y-41404262D01*
X58726485Y-41475703D01*
X58724486Y-41496000D01*
X56775514Y-41496000D01*
X56773515Y-41475703D01*
X56751844Y-41404262D01*
X56716651Y-41338421D01*
X56669290Y-41280710D01*
X56611579Y-41233349D01*
X56545738Y-41198156D01*
X56474297Y-41176485D01*
X56400000Y-41169167D01*
X55781931Y-41169167D01*
X54957654Y-40344891D01*
X55068750Y-40355833D01*
X55506250Y-40355833D01*
X55623223Y-40344312D01*
X55735700Y-40310192D01*
X55839360Y-40254785D01*
X55930219Y-40180219D01*
X55995000Y-40101283D01*
X56064289Y-40185711D01*
X56152306Y-40257945D01*
X56252725Y-40311620D01*
X56361685Y-40344672D01*
X56475000Y-40355833D01*
X56875000Y-40355833D01*
X56988315Y-40344672D01*
X57097275Y-40311620D01*
X57197694Y-40257945D01*
X57285711Y-40185711D01*
X57316175Y-40148591D01*
X57337354Y-40218411D01*
X57396133Y-40328378D01*
X57475236Y-40424764D01*
X57571622Y-40503867D01*
X57681589Y-40562646D01*
X57800910Y-40598841D01*
X57925000Y-40611063D01*
X58164750Y-40608000D01*
X58323000Y-40449750D01*
X58323000Y-39502000D01*
X58327000Y-39502000D01*
X58327000Y-40449750D01*
X58485250Y-40608000D01*
X58725000Y-40611063D01*
X58849090Y-40598841D01*
X58968411Y-40562646D01*
X59078378Y-40503867D01*
X59174764Y-40424764D01*
X59253867Y-40328378D01*
X59312646Y-40218411D01*
X59348841Y-40099090D01*
X59361063Y-39975000D01*
X59358874Y-39750000D01*
X61613937Y-39750000D01*
X61617000Y-40339750D01*
X61775250Y-40498000D01*
X62998000Y-40498000D01*
X62998000Y-40478000D01*
X63002000Y-40478000D01*
X63002000Y-40498000D01*
X64224750Y-40498000D01*
X64383000Y-40339750D01*
X64386063Y-39750000D01*
X64373841Y-39625910D01*
X64337646Y-39506589D01*
X64278867Y-39396622D01*
X64199764Y-39300236D01*
X64130833Y-39243665D01*
X64130833Y-37750000D01*
X64123515Y-37675703D01*
X64101844Y-37604262D01*
X64066651Y-37538421D01*
X64019290Y-37480710D01*
X63961579Y-37433349D01*
X63895738Y-37398156D01*
X63824297Y-37376485D01*
X63750000Y-37369167D01*
X63643596Y-37369167D01*
X63652816Y-37359947D01*
X63668888Y-37356750D01*
X63774260Y-37313104D01*
X63869091Y-37249739D01*
X63949739Y-37169091D01*
X64013104Y-37074260D01*
X64056750Y-36968888D01*
X64079000Y-36857027D01*
X64079000Y-36742973D01*
X64056750Y-36631112D01*
X64013104Y-36525740D01*
X63949739Y-36430909D01*
X63869091Y-36350261D01*
X63774260Y-36286896D01*
X63668888Y-36243250D01*
X63557027Y-36221000D01*
X63442973Y-36221000D01*
X63331112Y-36243250D01*
X63225740Y-36286896D01*
X63130909Y-36350261D01*
X63050261Y-36430909D01*
X62986896Y-36525740D01*
X62943250Y-36631112D01*
X62940053Y-36647184D01*
X62661127Y-36926110D01*
X62641894Y-36941894D01*
X62578912Y-37018638D01*
X62532112Y-37106196D01*
X62522198Y-37138878D01*
X62503293Y-37201199D01*
X62493562Y-37300000D01*
X62496000Y-37324754D01*
X62496000Y-37369167D01*
X62250000Y-37369167D01*
X62175703Y-37376485D01*
X62104262Y-37398156D01*
X62038421Y-37433349D01*
X61980710Y-37480710D01*
X61933349Y-37538421D01*
X61898156Y-37604262D01*
X61876485Y-37675703D01*
X61869167Y-37750000D01*
X61869167Y-39243665D01*
X61800236Y-39300236D01*
X61721133Y-39396622D01*
X61662354Y-39506589D01*
X61626159Y-39625910D01*
X61613937Y-39750000D01*
X59358874Y-39750000D01*
X59358000Y-39660250D01*
X59199750Y-39502000D01*
X58327000Y-39502000D01*
X58323000Y-39502000D01*
X58303000Y-39502000D01*
X58303000Y-39498000D01*
X58323000Y-39498000D01*
X58323000Y-39478000D01*
X58327000Y-39478000D01*
X58327000Y-39498000D01*
X59199750Y-39498000D01*
X59358000Y-39339750D01*
X59361063Y-39025000D01*
X59348841Y-38900910D01*
X59312646Y-38781589D01*
X59253867Y-38671622D01*
X59198370Y-38604000D01*
X60575246Y-38604000D01*
X60600000Y-38606438D01*
X60698801Y-38596707D01*
X60793805Y-38567888D01*
X60881362Y-38521088D01*
X60958106Y-38458106D01*
X60973890Y-38438873D01*
X64008764Y-35404000D01*
X64112115Y-35404000D01*
X64125740Y-35413104D01*
G37*
G04 #@! TD.AperFunction*
D20*
X30912000Y-30839750D02*
X31070250Y-30998000D01*
X31993000Y-30998000D01*
X31993000Y-30978000D01*
X31997000Y-30978000D01*
X31997000Y-30998000D01*
X32017000Y-30998000D01*
X32017000Y-31002000D01*
X31997000Y-31002000D01*
X31997000Y-32474750D01*
X32155250Y-32633000D01*
X32445000Y-32636063D01*
X32569090Y-32623841D01*
X32688411Y-32587646D01*
X32796001Y-32530138D01*
X32796000Y-34712115D01*
X32786896Y-34725740D01*
X32743250Y-34831112D01*
X32721000Y-34942973D01*
X32721000Y-35057027D01*
X32743250Y-35168888D01*
X32786896Y-35274260D01*
X32850261Y-35369091D01*
X32930909Y-35449739D01*
X33025740Y-35513104D01*
X33131112Y-35556750D01*
X33242973Y-35579000D01*
X33357027Y-35579000D01*
X33468888Y-35556750D01*
X33574260Y-35513104D01*
X33669091Y-35449739D01*
X33749739Y-35369091D01*
X33813104Y-35274260D01*
X33856750Y-35168888D01*
X33879000Y-35057027D01*
X33879000Y-34942973D01*
X33856750Y-34831112D01*
X33813104Y-34725740D01*
X33804000Y-34712115D01*
X33804000Y-32369055D01*
X33860738Y-32351844D01*
X33900000Y-32330858D01*
X33939262Y-32351844D01*
X34010703Y-32373515D01*
X34064896Y-32378853D01*
X34043250Y-32431112D01*
X34021000Y-32542973D01*
X34021000Y-32657027D01*
X34043250Y-32768888D01*
X34086896Y-32874260D01*
X34150261Y-32969091D01*
X34230909Y-33049739D01*
X34325740Y-33113104D01*
X34431112Y-33156750D01*
X34542973Y-33179000D01*
X34657027Y-33179000D01*
X34768888Y-33156750D01*
X34874260Y-33113104D01*
X34969091Y-33049739D01*
X35049739Y-32969091D01*
X35113104Y-32874260D01*
X35156750Y-32768888D01*
X35179000Y-32657027D01*
X35179000Y-32542973D01*
X35156750Y-32431112D01*
X35124678Y-32353682D01*
X35130738Y-32351844D01*
X35170000Y-32330858D01*
X35209262Y-32351844D01*
X35280703Y-32373515D01*
X35301000Y-32375514D01*
X35301001Y-36986235D01*
X34847183Y-37440053D01*
X34831112Y-37443250D01*
X34725740Y-37486896D01*
X34630909Y-37550261D01*
X34550261Y-37630909D01*
X34486896Y-37725740D01*
X34443250Y-37831112D01*
X34421000Y-37942973D01*
X34421000Y-38057027D01*
X34443250Y-38168888D01*
X34486896Y-38274260D01*
X34550261Y-38369091D01*
X34630909Y-38449739D01*
X34725740Y-38513104D01*
X34831112Y-38556750D01*
X34942973Y-38579000D01*
X35057027Y-38579000D01*
X35168888Y-38556750D01*
X35274260Y-38513104D01*
X35369091Y-38449739D01*
X35449739Y-38369091D01*
X35513104Y-38274260D01*
X35556750Y-38168888D01*
X35559947Y-38152817D01*
X36099982Y-37612782D01*
X36098291Y-37618357D01*
X36088721Y-37715523D01*
X36081894Y-37725740D01*
X36038248Y-37831112D01*
X36015998Y-37942973D01*
X36015998Y-38057027D01*
X36038248Y-38168888D01*
X36081894Y-38274260D01*
X36145259Y-38369091D01*
X36225907Y-38449739D01*
X36320738Y-38513104D01*
X36359630Y-38529213D01*
X36362000Y-40339750D01*
X36520250Y-40498000D01*
X39493000Y-40498000D01*
X39493000Y-37525250D01*
X39334750Y-37367000D01*
X37562994Y-37364681D01*
X37571707Y-37335957D01*
X37579000Y-37261910D01*
X37579000Y-37261908D01*
X37581438Y-37237157D01*
X37579000Y-37212406D01*
X37579000Y-32375514D01*
X37599297Y-32373515D01*
X37670738Y-32351844D01*
X37710000Y-32330858D01*
X37749262Y-32351844D01*
X37820703Y-32373515D01*
X37841001Y-32375514D01*
X37841001Y-33220237D01*
X37838562Y-33245000D01*
X37848293Y-33343801D01*
X37870995Y-33418637D01*
X37877113Y-33438805D01*
X37923913Y-33526362D01*
X37986895Y-33603106D01*
X38006122Y-33618885D01*
X38240053Y-33852817D01*
X38243250Y-33868888D01*
X38286896Y-33974260D01*
X38350261Y-34069091D01*
X38430909Y-34149739D01*
X38525740Y-34213104D01*
X38631112Y-34256750D01*
X38742973Y-34279000D01*
X38857027Y-34279000D01*
X38968888Y-34256750D01*
X39074260Y-34213104D01*
X39169091Y-34149739D01*
X39249739Y-34069091D01*
X39313104Y-33974260D01*
X39356750Y-33868888D01*
X39379000Y-33757027D01*
X39379000Y-33642973D01*
X39356750Y-33531112D01*
X39313104Y-33425740D01*
X39249739Y-33330909D01*
X39169091Y-33250261D01*
X39074260Y-33186896D01*
X38968888Y-33143250D01*
X38952817Y-33140053D01*
X38849000Y-33036237D01*
X38849000Y-32375514D01*
X38869297Y-32373515D01*
X38940738Y-32351844D01*
X38980000Y-32330858D01*
X39019262Y-32351844D01*
X39090703Y-32373515D01*
X39165000Y-32380833D01*
X40065000Y-32380833D01*
X40139297Y-32373515D01*
X40210738Y-32351844D01*
X40250000Y-32330858D01*
X40289262Y-32351844D01*
X40360703Y-32373515D01*
X40381000Y-32375514D01*
X40381001Y-35360236D01*
X40378562Y-35385000D01*
X40388293Y-35483801D01*
X40410908Y-35558349D01*
X40417113Y-35578805D01*
X40463913Y-35666362D01*
X40526895Y-35743106D01*
X40546123Y-35758886D01*
X40575000Y-35787763D01*
X40575000Y-36400000D01*
X40577402Y-36424386D01*
X40584515Y-36447835D01*
X40596066Y-36469446D01*
X40611612Y-36488388D01*
X40630554Y-36503934D01*
X40652165Y-36515485D01*
X40675614Y-36522598D01*
X40700000Y-36525000D01*
X41312237Y-36525000D01*
X42182688Y-37395451D01*
X42119090Y-37376159D01*
X41995000Y-37363937D01*
X39655250Y-37367000D01*
X39497000Y-37525250D01*
X39497000Y-40498000D01*
X42469750Y-40498000D01*
X42628000Y-40339750D01*
X42631063Y-38000000D01*
X42618841Y-37875910D01*
X42582646Y-37756589D01*
X42540854Y-37678402D01*
X42587014Y-37692404D01*
X42601199Y-37696707D01*
X42700000Y-37706438D01*
X42724754Y-37704000D01*
X42728752Y-37704000D01*
X42721000Y-37742973D01*
X42721000Y-37857027D01*
X42743250Y-37968888D01*
X42786896Y-38074260D01*
X42796001Y-38087886D01*
X42796000Y-41991236D01*
X42629960Y-42157276D01*
X42628000Y-40660250D01*
X42469750Y-40502000D01*
X39497000Y-40502000D01*
X39497000Y-40522000D01*
X39493000Y-40522000D01*
X39493000Y-40502000D01*
X36520250Y-40502000D01*
X36362000Y-40660250D01*
X36359073Y-42896000D01*
X35024754Y-42896000D01*
X35000000Y-42893562D01*
X34975246Y-42896000D01*
X34901199Y-42903293D01*
X34806195Y-42932112D01*
X34718638Y-42978912D01*
X34641894Y-43041894D01*
X34626110Y-43061127D01*
X32926123Y-44761114D01*
X32906895Y-44776894D01*
X32891115Y-44796122D01*
X32843913Y-44853638D01*
X32797113Y-44941195D01*
X32768293Y-45036199D01*
X32758562Y-45135000D01*
X32761001Y-45159764D01*
X32761001Y-46451154D01*
X32688411Y-46412354D01*
X32569090Y-46376159D01*
X32445000Y-46363937D01*
X32155250Y-46367000D01*
X31997000Y-46525250D01*
X31997000Y-47998000D01*
X32017000Y-47998000D01*
X32017000Y-48002000D01*
X31997000Y-48002000D01*
X31997000Y-48022000D01*
X31993000Y-48022000D01*
X31993000Y-48002000D01*
X31070250Y-48002000D01*
X30912000Y-48160250D01*
X30910411Y-48596000D01*
X30425000Y-48596000D01*
X30425000Y-47000000D01*
X30908937Y-47000000D01*
X30912000Y-47839750D01*
X31070250Y-47998000D01*
X31993000Y-47998000D01*
X31993000Y-46525250D01*
X31834750Y-46367000D01*
X31545000Y-46363937D01*
X31420910Y-46376159D01*
X31301589Y-46412354D01*
X31191622Y-46471133D01*
X31095236Y-46550236D01*
X31016133Y-46646622D01*
X30957354Y-46756589D01*
X30921159Y-46875910D01*
X30908937Y-47000000D01*
X30425000Y-47000000D01*
X30425000Y-32000000D01*
X30908937Y-32000000D01*
X30921159Y-32124090D01*
X30957354Y-32243411D01*
X31016133Y-32353378D01*
X31095236Y-32449764D01*
X31191622Y-32528867D01*
X31301589Y-32587646D01*
X31420910Y-32623841D01*
X31545000Y-32636063D01*
X31834750Y-32633000D01*
X31993000Y-32474750D01*
X31993000Y-31002000D01*
X31070250Y-31002000D01*
X30912000Y-31160250D01*
X30908937Y-32000000D01*
X30425000Y-32000000D01*
X30425000Y-30404000D01*
X30910411Y-30404000D01*
X30912000Y-30839750D01*
G04 #@! TA.AperFunction,Conductor*
D21*
G36*
X30912000Y-30839750D02*
G01*
X31070250Y-30998000D01*
X31993000Y-30998000D01*
X31993000Y-30978000D01*
X31997000Y-30978000D01*
X31997000Y-30998000D01*
X32017000Y-30998000D01*
X32017000Y-31002000D01*
X31997000Y-31002000D01*
X31997000Y-32474750D01*
X32155250Y-32633000D01*
X32445000Y-32636063D01*
X32569090Y-32623841D01*
X32688411Y-32587646D01*
X32796001Y-32530138D01*
X32796000Y-34712115D01*
X32786896Y-34725740D01*
X32743250Y-34831112D01*
X32721000Y-34942973D01*
X32721000Y-35057027D01*
X32743250Y-35168888D01*
X32786896Y-35274260D01*
X32850261Y-35369091D01*
X32930909Y-35449739D01*
X33025740Y-35513104D01*
X33131112Y-35556750D01*
X33242973Y-35579000D01*
X33357027Y-35579000D01*
X33468888Y-35556750D01*
X33574260Y-35513104D01*
X33669091Y-35449739D01*
X33749739Y-35369091D01*
X33813104Y-35274260D01*
X33856750Y-35168888D01*
X33879000Y-35057027D01*
X33879000Y-34942973D01*
X33856750Y-34831112D01*
X33813104Y-34725740D01*
X33804000Y-34712115D01*
X33804000Y-32369055D01*
X33860738Y-32351844D01*
X33900000Y-32330858D01*
X33939262Y-32351844D01*
X34010703Y-32373515D01*
X34064896Y-32378853D01*
X34043250Y-32431112D01*
X34021000Y-32542973D01*
X34021000Y-32657027D01*
X34043250Y-32768888D01*
X34086896Y-32874260D01*
X34150261Y-32969091D01*
X34230909Y-33049739D01*
X34325740Y-33113104D01*
X34431112Y-33156750D01*
X34542973Y-33179000D01*
X34657027Y-33179000D01*
X34768888Y-33156750D01*
X34874260Y-33113104D01*
X34969091Y-33049739D01*
X35049739Y-32969091D01*
X35113104Y-32874260D01*
X35156750Y-32768888D01*
X35179000Y-32657027D01*
X35179000Y-32542973D01*
X35156750Y-32431112D01*
X35124678Y-32353682D01*
X35130738Y-32351844D01*
X35170000Y-32330858D01*
X35209262Y-32351844D01*
X35280703Y-32373515D01*
X35301000Y-32375514D01*
X35301001Y-36986235D01*
X34847183Y-37440053D01*
X34831112Y-37443250D01*
X34725740Y-37486896D01*
X34630909Y-37550261D01*
X34550261Y-37630909D01*
X34486896Y-37725740D01*
X34443250Y-37831112D01*
X34421000Y-37942973D01*
X34421000Y-38057027D01*
X34443250Y-38168888D01*
X34486896Y-38274260D01*
X34550261Y-38369091D01*
X34630909Y-38449739D01*
X34725740Y-38513104D01*
X34831112Y-38556750D01*
X34942973Y-38579000D01*
X35057027Y-38579000D01*
X35168888Y-38556750D01*
X35274260Y-38513104D01*
X35369091Y-38449739D01*
X35449739Y-38369091D01*
X35513104Y-38274260D01*
X35556750Y-38168888D01*
X35559947Y-38152817D01*
X36099982Y-37612782D01*
X36098291Y-37618357D01*
X36088721Y-37715523D01*
X36081894Y-37725740D01*
X36038248Y-37831112D01*
X36015998Y-37942973D01*
X36015998Y-38057027D01*
X36038248Y-38168888D01*
X36081894Y-38274260D01*
X36145259Y-38369091D01*
X36225907Y-38449739D01*
X36320738Y-38513104D01*
X36359630Y-38529213D01*
X36362000Y-40339750D01*
X36520250Y-40498000D01*
X39493000Y-40498000D01*
X39493000Y-37525250D01*
X39334750Y-37367000D01*
X37562994Y-37364681D01*
X37571707Y-37335957D01*
X37579000Y-37261910D01*
X37579000Y-37261908D01*
X37581438Y-37237157D01*
X37579000Y-37212406D01*
X37579000Y-32375514D01*
X37599297Y-32373515D01*
X37670738Y-32351844D01*
X37710000Y-32330858D01*
X37749262Y-32351844D01*
X37820703Y-32373515D01*
X37841001Y-32375514D01*
X37841001Y-33220237D01*
X37838562Y-33245000D01*
X37848293Y-33343801D01*
X37870995Y-33418637D01*
X37877113Y-33438805D01*
X37923913Y-33526362D01*
X37986895Y-33603106D01*
X38006122Y-33618885D01*
X38240053Y-33852817D01*
X38243250Y-33868888D01*
X38286896Y-33974260D01*
X38350261Y-34069091D01*
X38430909Y-34149739D01*
X38525740Y-34213104D01*
X38631112Y-34256750D01*
X38742973Y-34279000D01*
X38857027Y-34279000D01*
X38968888Y-34256750D01*
X39074260Y-34213104D01*
X39169091Y-34149739D01*
X39249739Y-34069091D01*
X39313104Y-33974260D01*
X39356750Y-33868888D01*
X39379000Y-33757027D01*
X39379000Y-33642973D01*
X39356750Y-33531112D01*
X39313104Y-33425740D01*
X39249739Y-33330909D01*
X39169091Y-33250261D01*
X39074260Y-33186896D01*
X38968888Y-33143250D01*
X38952817Y-33140053D01*
X38849000Y-33036237D01*
X38849000Y-32375514D01*
X38869297Y-32373515D01*
X38940738Y-32351844D01*
X38980000Y-32330858D01*
X39019262Y-32351844D01*
X39090703Y-32373515D01*
X39165000Y-32380833D01*
X40065000Y-32380833D01*
X40139297Y-32373515D01*
X40210738Y-32351844D01*
X40250000Y-32330858D01*
X40289262Y-32351844D01*
X40360703Y-32373515D01*
X40381000Y-32375514D01*
X40381001Y-35360236D01*
X40378562Y-35385000D01*
X40388293Y-35483801D01*
X40410908Y-35558349D01*
X40417113Y-35578805D01*
X40463913Y-35666362D01*
X40526895Y-35743106D01*
X40546123Y-35758886D01*
X40575000Y-35787763D01*
X40575000Y-36400000D01*
X40577402Y-36424386D01*
X40584515Y-36447835D01*
X40596066Y-36469446D01*
X40611612Y-36488388D01*
X40630554Y-36503934D01*
X40652165Y-36515485D01*
X40675614Y-36522598D01*
X40700000Y-36525000D01*
X41312237Y-36525000D01*
X42182688Y-37395451D01*
X42119090Y-37376159D01*
X41995000Y-37363937D01*
X39655250Y-37367000D01*
X39497000Y-37525250D01*
X39497000Y-40498000D01*
X42469750Y-40498000D01*
X42628000Y-40339750D01*
X42631063Y-38000000D01*
X42618841Y-37875910D01*
X42582646Y-37756589D01*
X42540854Y-37678402D01*
X42587014Y-37692404D01*
X42601199Y-37696707D01*
X42700000Y-37706438D01*
X42724754Y-37704000D01*
X42728752Y-37704000D01*
X42721000Y-37742973D01*
X42721000Y-37857027D01*
X42743250Y-37968888D01*
X42786896Y-38074260D01*
X42796001Y-38087886D01*
X42796000Y-41991236D01*
X42629960Y-42157276D01*
X42628000Y-40660250D01*
X42469750Y-40502000D01*
X39497000Y-40502000D01*
X39497000Y-40522000D01*
X39493000Y-40522000D01*
X39493000Y-40502000D01*
X36520250Y-40502000D01*
X36362000Y-40660250D01*
X36359073Y-42896000D01*
X35024754Y-42896000D01*
X35000000Y-42893562D01*
X34975246Y-42896000D01*
X34901199Y-42903293D01*
X34806195Y-42932112D01*
X34718638Y-42978912D01*
X34641894Y-43041894D01*
X34626110Y-43061127D01*
X32926123Y-44761114D01*
X32906895Y-44776894D01*
X32891115Y-44796122D01*
X32843913Y-44853638D01*
X32797113Y-44941195D01*
X32768293Y-45036199D01*
X32758562Y-45135000D01*
X32761001Y-45159764D01*
X32761001Y-46451154D01*
X32688411Y-46412354D01*
X32569090Y-46376159D01*
X32445000Y-46363937D01*
X32155250Y-46367000D01*
X31997000Y-46525250D01*
X31997000Y-47998000D01*
X32017000Y-47998000D01*
X32017000Y-48002000D01*
X31997000Y-48002000D01*
X31997000Y-48022000D01*
X31993000Y-48022000D01*
X31993000Y-48002000D01*
X31070250Y-48002000D01*
X30912000Y-48160250D01*
X30910411Y-48596000D01*
X30425000Y-48596000D01*
X30425000Y-47000000D01*
X30908937Y-47000000D01*
X30912000Y-47839750D01*
X31070250Y-47998000D01*
X31993000Y-47998000D01*
X31993000Y-46525250D01*
X31834750Y-46367000D01*
X31545000Y-46363937D01*
X31420910Y-46376159D01*
X31301589Y-46412354D01*
X31191622Y-46471133D01*
X31095236Y-46550236D01*
X31016133Y-46646622D01*
X30957354Y-46756589D01*
X30921159Y-46875910D01*
X30908937Y-47000000D01*
X30425000Y-47000000D01*
X30425000Y-32000000D01*
X30908937Y-32000000D01*
X30921159Y-32124090D01*
X30957354Y-32243411D01*
X31016133Y-32353378D01*
X31095236Y-32449764D01*
X31191622Y-32528867D01*
X31301589Y-32587646D01*
X31420910Y-32623841D01*
X31545000Y-32636063D01*
X31834750Y-32633000D01*
X31993000Y-32474750D01*
X31993000Y-31002000D01*
X31070250Y-31002000D01*
X30912000Y-31160250D01*
X30908937Y-32000000D01*
X30425000Y-32000000D01*
X30425000Y-30404000D01*
X30910411Y-30404000D01*
X30912000Y-30839750D01*
G37*
G04 #@! TD.AperFunction*
D20*
X51151159Y-46900910D02*
X51138937Y-47025000D01*
X51142000Y-47339750D01*
X51300250Y-47498000D01*
X52223000Y-47498000D01*
X52223000Y-47478000D01*
X52227000Y-47478000D01*
X52227000Y-47498000D01*
X52247000Y-47498000D01*
X52247000Y-47502000D01*
X52227000Y-47502000D01*
X52227000Y-47522000D01*
X52223000Y-47522000D01*
X52223000Y-47502000D01*
X51300250Y-47502000D01*
X51142000Y-47660250D01*
X51138937Y-47975000D01*
X51151159Y-48099090D01*
X51187354Y-48218411D01*
X51246133Y-48328378D01*
X51325236Y-48424764D01*
X51421622Y-48503867D01*
X51531589Y-48562646D01*
X51641544Y-48596000D01*
X49335833Y-48596000D01*
X49335833Y-47000000D01*
X49328515Y-46925703D01*
X49306844Y-46854262D01*
X49279978Y-46804000D01*
X51180556Y-46804000D01*
X51151159Y-46900910D01*
G04 #@! TA.AperFunction,Conductor*
D21*
G36*
X51151159Y-46900910D02*
G01*
X51138937Y-47025000D01*
X51142000Y-47339750D01*
X51300250Y-47498000D01*
X52223000Y-47498000D01*
X52223000Y-47478000D01*
X52227000Y-47478000D01*
X52227000Y-47498000D01*
X52247000Y-47498000D01*
X52247000Y-47502000D01*
X52227000Y-47502000D01*
X52227000Y-47522000D01*
X52223000Y-47522000D01*
X52223000Y-47502000D01*
X51300250Y-47502000D01*
X51142000Y-47660250D01*
X51138937Y-47975000D01*
X51151159Y-48099090D01*
X51187354Y-48218411D01*
X51246133Y-48328378D01*
X51325236Y-48424764D01*
X51421622Y-48503867D01*
X51531589Y-48562646D01*
X51641544Y-48596000D01*
X49335833Y-48596000D01*
X49335833Y-47000000D01*
X49328515Y-46925703D01*
X49306844Y-46854262D01*
X49279978Y-46804000D01*
X51180556Y-46804000D01*
X51151159Y-46900910D01*
G37*
G04 #@! TD.AperFunction*
D20*
X56486896Y-30425740D02*
X56475952Y-30452163D01*
X56462486Y-30477355D01*
X56454194Y-30504691D01*
X56443250Y-30531112D01*
X56437671Y-30559161D01*
X56429379Y-30586496D01*
X56426579Y-30614924D01*
X56421000Y-30642973D01*
X56421000Y-30671571D01*
X56418200Y-30700000D01*
X56421000Y-30728429D01*
X56421000Y-30757027D01*
X56426579Y-30785076D01*
X56429379Y-30813504D01*
X56437671Y-30840839D01*
X56443250Y-30868888D01*
X56454194Y-30895309D01*
X56462486Y-30922645D01*
X56475952Y-30947837D01*
X56486896Y-30974260D01*
X56502784Y-30998038D01*
X56516250Y-31023231D01*
X56534375Y-31045316D01*
X56550261Y-31069091D01*
X56630909Y-31149739D01*
X56630912Y-31149741D01*
X56921001Y-31439830D01*
X56921001Y-31492214D01*
X56913417Y-31496268D01*
X56821611Y-31571611D01*
X56746268Y-31663417D01*
X56690283Y-31768158D01*
X56655808Y-31881808D01*
X56644167Y-32000000D01*
X56644167Y-32450000D01*
X56655808Y-32568192D01*
X56690283Y-32681842D01*
X56733651Y-32762978D01*
X56671622Y-32796133D01*
X56575236Y-32875236D01*
X56496133Y-32971622D01*
X56437354Y-33081589D01*
X56401159Y-33200910D01*
X56388937Y-33325000D01*
X56392000Y-33614750D01*
X56550250Y-33773000D01*
X57498000Y-33773000D01*
X57498000Y-33753000D01*
X57502000Y-33753000D01*
X57502000Y-33773000D01*
X57522000Y-33773000D01*
X57522000Y-33777000D01*
X57502000Y-33777000D01*
X57502000Y-34699750D01*
X57660250Y-34858000D01*
X57975000Y-34861063D01*
X58099090Y-34848841D01*
X58218411Y-34812646D01*
X58328378Y-34753867D01*
X58424764Y-34674764D01*
X58503867Y-34578378D01*
X58553142Y-34486192D01*
X58553349Y-34486579D01*
X58600710Y-34544290D01*
X58658421Y-34591651D01*
X58724262Y-34626844D01*
X58795703Y-34648515D01*
X58870000Y-34655833D01*
X59930000Y-34655833D01*
X60004297Y-34648515D01*
X60075738Y-34626844D01*
X60141579Y-34591651D01*
X60199290Y-34544290D01*
X60246651Y-34486579D01*
X60281844Y-34420738D01*
X60303515Y-34349297D01*
X60310833Y-34275000D01*
X60310833Y-33831335D01*
X60379764Y-33774764D01*
X60458867Y-33678378D01*
X60487398Y-33625000D01*
X60689167Y-33625000D01*
X60689167Y-34275000D01*
X60696485Y-34349297D01*
X60718156Y-34420738D01*
X60753349Y-34486579D01*
X60800710Y-34544290D01*
X60858421Y-34591651D01*
X60924262Y-34626844D01*
X60995703Y-34648515D01*
X61070000Y-34655833D01*
X62130000Y-34655833D01*
X62204297Y-34648515D01*
X62275738Y-34626844D01*
X62341579Y-34591651D01*
X62399290Y-34544290D01*
X62446651Y-34486579D01*
X62464065Y-34454000D01*
X63300246Y-34454000D01*
X63325000Y-34456438D01*
X63387717Y-34450261D01*
X63423801Y-34446707D01*
X63518805Y-34417888D01*
X63606362Y-34371088D01*
X63683106Y-34308106D01*
X63698890Y-34288873D01*
X63873885Y-34113878D01*
X63921087Y-34056362D01*
X63967887Y-33968806D01*
X63996706Y-33873802D01*
X64006438Y-33775001D01*
X63996706Y-33676200D01*
X63967887Y-33581195D01*
X63921087Y-33493639D01*
X63858105Y-33416895D01*
X63781361Y-33353913D01*
X63693805Y-33307113D01*
X63598800Y-33278294D01*
X63499999Y-33268562D01*
X63401198Y-33278294D01*
X63306194Y-33307113D01*
X63218638Y-33353913D01*
X63161122Y-33401115D01*
X63116237Y-33446000D01*
X62464065Y-33446000D01*
X62446651Y-33413421D01*
X62399290Y-33355710D01*
X62341579Y-33308349D01*
X62275738Y-33273156D01*
X62204297Y-33251485D01*
X62130000Y-33244167D01*
X61070000Y-33244167D01*
X60995703Y-33251485D01*
X60924262Y-33273156D01*
X60858421Y-33308349D01*
X60800710Y-33355710D01*
X60753349Y-33413421D01*
X60718156Y-33479262D01*
X60696485Y-33550703D01*
X60689167Y-33625000D01*
X60487398Y-33625000D01*
X60517646Y-33568411D01*
X60553841Y-33449090D01*
X60566063Y-33325000D01*
X60563000Y-33160250D01*
X60404750Y-33002000D01*
X59402000Y-33002000D01*
X59402000Y-33022000D01*
X59398000Y-33022000D01*
X59398000Y-33002000D01*
X59378000Y-33002000D01*
X59378000Y-32998000D01*
X59398000Y-32998000D01*
X59398000Y-32978000D01*
X59402000Y-32978000D01*
X59402000Y-32998000D01*
X60404750Y-32998000D01*
X60563000Y-32839750D01*
X60566063Y-32675000D01*
X60553841Y-32550910D01*
X60517646Y-32431589D01*
X60458867Y-32321622D01*
X60379764Y-32225236D01*
X60310833Y-32168665D01*
X60310833Y-31725000D01*
X60689167Y-31725000D01*
X60689167Y-32375000D01*
X60696485Y-32449297D01*
X60718156Y-32520738D01*
X60753349Y-32586579D01*
X60800710Y-32644290D01*
X60858421Y-32691651D01*
X60924262Y-32726844D01*
X60995703Y-32748515D01*
X61070000Y-32755833D01*
X62130000Y-32755833D01*
X62204297Y-32748515D01*
X62275738Y-32726844D01*
X62341579Y-32691651D01*
X62399290Y-32644290D01*
X62446651Y-32586579D01*
X62481844Y-32520738D01*
X62502057Y-32454104D01*
X62558106Y-32408106D01*
X62573890Y-32388873D01*
X62677816Y-32284947D01*
X62693888Y-32281750D01*
X62799260Y-32238104D01*
X62894091Y-32174739D01*
X62974739Y-32094091D01*
X63038104Y-31999260D01*
X63081750Y-31893888D01*
X63104000Y-31782027D01*
X63104000Y-31667973D01*
X63081750Y-31556112D01*
X63038104Y-31450740D01*
X62974739Y-31355909D01*
X62894091Y-31275261D01*
X62799260Y-31211896D01*
X62693888Y-31168250D01*
X62582027Y-31146000D01*
X62467973Y-31146000D01*
X62356112Y-31168250D01*
X62250740Y-31211896D01*
X62155909Y-31275261D01*
X62087003Y-31344167D01*
X61070000Y-31344167D01*
X60995703Y-31351485D01*
X60924262Y-31373156D01*
X60858421Y-31408349D01*
X60800710Y-31455710D01*
X60753349Y-31513421D01*
X60718156Y-31579262D01*
X60696485Y-31650703D01*
X60689167Y-31725000D01*
X60310833Y-31725000D01*
X60303515Y-31650703D01*
X60281844Y-31579262D01*
X60246651Y-31513421D01*
X60199290Y-31455710D01*
X60141579Y-31408349D01*
X60075738Y-31373156D01*
X60004297Y-31351485D01*
X59930000Y-31344167D01*
X58870000Y-31344167D01*
X58795703Y-31351485D01*
X58724262Y-31373156D01*
X58658421Y-31408349D01*
X58600710Y-31455710D01*
X58588162Y-31471000D01*
X58079000Y-31471000D01*
X58079000Y-31228429D01*
X58081800Y-31200000D01*
X58079000Y-31171571D01*
X58079000Y-31171561D01*
X58070622Y-31086496D01*
X58037514Y-30977354D01*
X58031552Y-30966199D01*
X57983750Y-30876768D01*
X57929524Y-30810694D01*
X57929519Y-30810689D01*
X57911395Y-30788605D01*
X57889310Y-30770480D01*
X57522829Y-30404000D01*
X62480240Y-30404000D01*
X62906740Y-30445819D01*
X63297986Y-30563943D01*
X63658835Y-30755810D01*
X63975547Y-31014113D01*
X64236056Y-31329014D01*
X64430438Y-31688515D01*
X64551292Y-32078932D01*
X64596001Y-32504312D01*
X64596001Y-34354480D01*
X64568888Y-34343250D01*
X64457027Y-34321000D01*
X64342973Y-34321000D01*
X64231112Y-34343250D01*
X64125740Y-34386896D01*
X64112115Y-34396000D01*
X63824750Y-34396000D01*
X63799999Y-34393562D01*
X63775248Y-34396000D01*
X63775246Y-34396000D01*
X63701199Y-34403293D01*
X63606195Y-34432112D01*
X63518638Y-34478912D01*
X63441894Y-34541894D01*
X63426114Y-34561122D01*
X61400697Y-36586540D01*
X61404000Y-36553000D01*
X61404000Y-35647001D01*
X61388387Y-35488480D01*
X61326689Y-35285087D01*
X61226496Y-35097640D01*
X61091659Y-34933341D01*
X60927360Y-34798504D01*
X60739913Y-34698311D01*
X60536521Y-34636613D01*
X60325000Y-34615780D01*
X60113480Y-34636613D01*
X59910088Y-34698311D01*
X59722641Y-34798504D01*
X59558342Y-34933341D01*
X59423505Y-35097640D01*
X59323312Y-35285087D01*
X59261613Y-35488479D01*
X59246000Y-35647000D01*
X59246000Y-35829695D01*
X59209461Y-35761088D01*
X59043988Y-35558841D01*
X58842238Y-35392762D01*
X58611965Y-35269234D01*
X58362017Y-35193003D01*
X58102000Y-35167000D01*
X57802000Y-35167000D01*
X57802000Y-36498000D01*
X57822000Y-36498000D01*
X57822000Y-36502000D01*
X57802000Y-36502000D01*
X57802000Y-36522000D01*
X57798000Y-36522000D01*
X57798000Y-36502000D01*
X56325252Y-36502000D01*
X56183726Y-36710502D01*
X56192222Y-36758093D01*
X56267702Y-37008269D01*
X56390539Y-37238912D01*
X56556012Y-37441159D01*
X56744110Y-37596000D01*
X52187885Y-37596000D01*
X52174260Y-37586896D01*
X52068888Y-37543250D01*
X51998837Y-37529316D01*
X52089912Y-37501689D01*
X52277360Y-37401496D01*
X52441659Y-37266659D01*
X52576496Y-37102360D01*
X52676689Y-36914913D01*
X52738387Y-36711521D01*
X52754000Y-36553000D01*
X52754000Y-35647001D01*
X52738387Y-35488480D01*
X52676689Y-35285087D01*
X52576496Y-35097640D01*
X52441659Y-34933341D01*
X52277360Y-34798504D01*
X52089913Y-34698311D01*
X51886521Y-34636613D01*
X51675000Y-34615780D01*
X51463480Y-34636613D01*
X51260088Y-34698311D01*
X51072641Y-34798504D01*
X50908342Y-34933341D01*
X50885833Y-34960768D01*
X50885833Y-34605000D01*
X50878515Y-34530703D01*
X50856844Y-34459262D01*
X50848695Y-34444017D01*
X50921622Y-34503867D01*
X51031589Y-34562646D01*
X51150910Y-34598841D01*
X51275000Y-34611063D01*
X51564750Y-34608000D01*
X51723000Y-34449750D01*
X51723000Y-33502000D01*
X51703000Y-33502000D01*
X51703000Y-33498000D01*
X51723000Y-33498000D01*
X51723000Y-32002000D01*
X50800250Y-32002000D01*
X50642000Y-32160250D01*
X50638937Y-32475000D01*
X50651159Y-32599090D01*
X50687354Y-32718411D01*
X50704239Y-32750000D01*
X50687354Y-32781589D01*
X50651159Y-32900910D01*
X50643281Y-32980894D01*
X50579297Y-32961485D01*
X50505000Y-32954167D01*
X48505000Y-32954167D01*
X48430703Y-32961485D01*
X48359262Y-32983156D01*
X48293421Y-33018349D01*
X48235710Y-33065710D01*
X48188349Y-33123421D01*
X48153156Y-33189262D01*
X48131485Y-33260703D01*
X48124167Y-33335000D01*
X48124167Y-34235000D01*
X48131485Y-34309297D01*
X48153156Y-34380738D01*
X48174142Y-34420000D01*
X48153156Y-34459262D01*
X48131485Y-34530703D01*
X48124167Y-34605000D01*
X48124167Y-35434355D01*
X48057027Y-35421000D01*
X47942973Y-35421000D01*
X47831112Y-35443250D01*
X47725740Y-35486896D01*
X47712115Y-35496000D01*
X46204000Y-35496000D01*
X46204000Y-34387885D01*
X46213104Y-34374260D01*
X46256750Y-34268888D01*
X46279000Y-34157027D01*
X46279000Y-34042973D01*
X46256750Y-33931112D01*
X46213104Y-33825740D01*
X46149739Y-33730909D01*
X46069091Y-33650261D01*
X45974260Y-33586896D01*
X45868888Y-33543250D01*
X45757027Y-33521000D01*
X45642973Y-33521000D01*
X45531112Y-33543250D01*
X45425740Y-33586896D01*
X45330909Y-33650261D01*
X45250261Y-33730909D01*
X45186896Y-33825740D01*
X45143250Y-33931112D01*
X45121000Y-34042973D01*
X45121000Y-34157027D01*
X45143250Y-34268888D01*
X45186896Y-34374260D01*
X45196001Y-34387886D01*
X45196000Y-35712115D01*
X45186896Y-35725740D01*
X45143250Y-35831112D01*
X45121000Y-35942973D01*
X45121000Y-36057027D01*
X45143250Y-36168888D01*
X45186896Y-36274260D01*
X45250261Y-36369091D01*
X45330909Y-36449739D01*
X45425740Y-36513104D01*
X45531112Y-36556750D01*
X45642973Y-36579000D01*
X45757027Y-36579000D01*
X45868888Y-36556750D01*
X45974260Y-36513104D01*
X45987885Y-36504000D01*
X47712115Y-36504000D01*
X47725740Y-36513104D01*
X47831112Y-36556750D01*
X47942973Y-36579000D01*
X48057027Y-36579000D01*
X48124167Y-36565645D01*
X48124167Y-36775000D01*
X48131485Y-36849297D01*
X48153156Y-36920738D01*
X48174142Y-36960000D01*
X48153156Y-36999262D01*
X48131485Y-37070703D01*
X48124167Y-37145000D01*
X48124167Y-38045000D01*
X48131485Y-38119297D01*
X48153156Y-38190738D01*
X48174142Y-38230000D01*
X48153156Y-38269262D01*
X48131485Y-38340703D01*
X48124167Y-38415000D01*
X48124167Y-39315000D01*
X48131485Y-39389297D01*
X48153156Y-39460738D01*
X48174142Y-39500000D01*
X48153156Y-39539262D01*
X48131485Y-39610703D01*
X48124167Y-39685000D01*
X48124167Y-40585000D01*
X48131485Y-40659297D01*
X48153156Y-40730738D01*
X48174142Y-40770000D01*
X48153156Y-40809262D01*
X48131485Y-40880703D01*
X48124167Y-40955000D01*
X48124167Y-41855000D01*
X48131485Y-41929297D01*
X48153156Y-42000738D01*
X48174142Y-42040000D01*
X48153156Y-42079262D01*
X48131485Y-42150703D01*
X48124167Y-42225000D01*
X48124167Y-43125000D01*
X48131485Y-43199297D01*
X48153156Y-43270738D01*
X48174142Y-43310000D01*
X48153156Y-43349262D01*
X48131485Y-43420703D01*
X48124167Y-43495000D01*
X48124167Y-44258665D01*
X48055236Y-44315236D01*
X47976133Y-44411622D01*
X47917354Y-44521589D01*
X47881159Y-44640910D01*
X47868937Y-44765000D01*
X47872000Y-45054750D01*
X48030250Y-45213000D01*
X49503000Y-45213000D01*
X49503000Y-45193000D01*
X49507000Y-45193000D01*
X49507000Y-45213000D01*
X50979750Y-45213000D01*
X51138000Y-45054750D01*
X51141063Y-44765000D01*
X51128841Y-44640910D01*
X51092646Y-44521589D01*
X51033867Y-44411622D01*
X50954764Y-44315236D01*
X50885833Y-44258665D01*
X50885833Y-43495000D01*
X50878515Y-43420703D01*
X50856844Y-43349262D01*
X50835858Y-43310000D01*
X50856844Y-43270738D01*
X50878515Y-43199297D01*
X50885833Y-43125000D01*
X50885833Y-42225000D01*
X50878515Y-42150703D01*
X50856844Y-42079262D01*
X50835858Y-42040000D01*
X50856844Y-42000738D01*
X50864651Y-41975000D01*
X51144167Y-41975000D01*
X51144167Y-42375000D01*
X51155328Y-42488315D01*
X51188380Y-42597275D01*
X51242055Y-42697694D01*
X51314289Y-42785711D01*
X51402306Y-42857945D01*
X51502725Y-42911620D01*
X51611685Y-42944672D01*
X51725000Y-42955833D01*
X52275000Y-42955833D01*
X52388315Y-42944672D01*
X52497275Y-42911620D01*
X52597694Y-42857945D01*
X52685711Y-42785711D01*
X52750000Y-42707375D01*
X52814289Y-42785711D01*
X52902306Y-42857945D01*
X53002725Y-42911620D01*
X53111685Y-42944672D01*
X53225000Y-42955833D01*
X53775000Y-42955833D01*
X53888315Y-42944672D01*
X53997275Y-42911620D01*
X54097694Y-42857945D01*
X54185711Y-42785711D01*
X54257945Y-42697694D01*
X54311620Y-42597275D01*
X54344672Y-42488315D01*
X54355833Y-42375000D01*
X54355833Y-41975000D01*
X54344672Y-41861685D01*
X54311620Y-41752725D01*
X54257945Y-41652306D01*
X54185711Y-41564289D01*
X54097694Y-41492055D01*
X54079000Y-41482063D01*
X54079000Y-41442973D01*
X54056750Y-41331112D01*
X54013104Y-41225740D01*
X53949739Y-41130909D01*
X53869091Y-41050261D01*
X53774260Y-40986896D01*
X53668888Y-40943250D01*
X53557027Y-40921000D01*
X53442973Y-40921000D01*
X53331112Y-40943250D01*
X53264641Y-40970783D01*
X53256750Y-40931112D01*
X53213104Y-40825740D01*
X53149739Y-40730909D01*
X53069091Y-40650261D01*
X52974260Y-40586896D01*
X52868888Y-40543250D01*
X52757027Y-40521000D01*
X52642973Y-40521000D01*
X52531112Y-40543250D01*
X52425740Y-40586896D01*
X52330909Y-40650261D01*
X52250261Y-40730909D01*
X52186896Y-40825740D01*
X52143250Y-40931112D01*
X52140053Y-40947183D01*
X51689581Y-41397656D01*
X51611685Y-41405328D01*
X51502725Y-41438380D01*
X51402306Y-41492055D01*
X51314289Y-41564289D01*
X51242055Y-41652306D01*
X51188380Y-41752725D01*
X51155328Y-41861685D01*
X51144167Y-41975000D01*
X50864651Y-41975000D01*
X50878515Y-41929297D01*
X50885833Y-41855000D01*
X50885833Y-40955000D01*
X50878515Y-40880703D01*
X50856844Y-40809262D01*
X50835858Y-40770000D01*
X50856844Y-40730738D01*
X50878515Y-40659297D01*
X50885833Y-40585000D01*
X50885833Y-39685000D01*
X50878515Y-39610703D01*
X50856844Y-39539262D01*
X50835858Y-39500000D01*
X50856844Y-39460738D01*
X50878515Y-39389297D01*
X50885833Y-39315000D01*
X50885833Y-38415000D01*
X50878515Y-38340703D01*
X50856844Y-38269262D01*
X50835858Y-38230000D01*
X50856844Y-38190738D01*
X50878515Y-38119297D01*
X50885833Y-38045000D01*
X50885833Y-37239233D01*
X50908341Y-37266659D01*
X51072640Y-37401496D01*
X51260087Y-37501689D01*
X51463479Y-37563387D01*
X51640422Y-37580814D01*
X51625740Y-37586896D01*
X51530909Y-37650261D01*
X51450261Y-37730909D01*
X51386896Y-37825740D01*
X51343250Y-37931112D01*
X51321000Y-38042973D01*
X51321000Y-38157027D01*
X51343250Y-38268888D01*
X51386896Y-38374260D01*
X51450261Y-38469091D01*
X51530909Y-38549739D01*
X51625740Y-38613104D01*
X51731112Y-38656750D01*
X51842973Y-38679000D01*
X51957027Y-38679000D01*
X52068888Y-38656750D01*
X52174260Y-38613104D01*
X52187885Y-38604000D01*
X57451630Y-38604000D01*
X57396133Y-38671622D01*
X57337354Y-38781589D01*
X57316175Y-38851409D01*
X57285711Y-38814289D01*
X57197694Y-38742055D01*
X57097275Y-38688380D01*
X56988315Y-38655328D01*
X56875000Y-38644167D01*
X56475000Y-38644167D01*
X56361685Y-38655328D01*
X56252725Y-38688380D01*
X56152306Y-38742055D01*
X56064289Y-38814289D01*
X55995000Y-38898717D01*
X55930219Y-38819781D01*
X55839360Y-38745215D01*
X55735700Y-38689808D01*
X55623223Y-38655688D01*
X55506250Y-38644167D01*
X55068750Y-38644167D01*
X54951777Y-38655688D01*
X54839300Y-38689808D01*
X54735640Y-38745215D01*
X54644781Y-38819781D01*
X54570215Y-38910640D01*
X54514808Y-39014300D01*
X54500000Y-39063115D01*
X54485192Y-39014300D01*
X54429785Y-38910640D01*
X54355219Y-38819781D01*
X54264360Y-38745215D01*
X54160700Y-38689808D01*
X54048223Y-38655688D01*
X53931250Y-38644167D01*
X53493750Y-38644167D01*
X53376777Y-38655688D01*
X53264300Y-38689808D01*
X53160640Y-38745215D01*
X53069781Y-38819781D01*
X52995215Y-38910640D01*
X52939808Y-39014300D01*
X52905688Y-39126777D01*
X52894167Y-39243750D01*
X52894167Y-39756250D01*
X52905688Y-39873223D01*
X52939808Y-39985700D01*
X52995215Y-40089360D01*
X53069781Y-40180219D01*
X53160640Y-40254785D01*
X53264300Y-40310192D01*
X53376777Y-40344312D01*
X53493750Y-40355833D01*
X53543070Y-40355833D01*
X55219167Y-42031931D01*
X55219167Y-42450000D01*
X55220612Y-42464675D01*
X55168888Y-42443250D01*
X55057027Y-42421000D01*
X54942973Y-42421000D01*
X54831112Y-42443250D01*
X54725740Y-42486896D01*
X54630909Y-42550261D01*
X54550261Y-42630909D01*
X54486896Y-42725740D01*
X54443250Y-42831112D01*
X54421000Y-42942973D01*
X54421000Y-43057027D01*
X54443250Y-43168888D01*
X54464235Y-43219551D01*
X54438421Y-43233349D01*
X54380710Y-43280710D01*
X54347646Y-43321000D01*
X54267937Y-43321000D01*
X54257945Y-43302306D01*
X54185711Y-43214289D01*
X54097694Y-43142055D01*
X53997275Y-43088380D01*
X53888315Y-43055328D01*
X53775000Y-43044167D01*
X53225000Y-43044167D01*
X53111685Y-43055328D01*
X53002725Y-43088380D01*
X52902306Y-43142055D01*
X52814289Y-43214289D01*
X52750000Y-43292625D01*
X52685711Y-43214289D01*
X52597694Y-43142055D01*
X52497275Y-43088380D01*
X52388315Y-43055328D01*
X52275000Y-43044167D01*
X51725000Y-43044167D01*
X51611685Y-43055328D01*
X51502725Y-43088380D01*
X51402306Y-43142055D01*
X51314289Y-43214289D01*
X51242055Y-43302306D01*
X51188380Y-43402725D01*
X51155328Y-43511685D01*
X51144167Y-43625000D01*
X51144167Y-44025000D01*
X51155328Y-44138315D01*
X51188380Y-44247275D01*
X51242055Y-44347694D01*
X51314289Y-44435711D01*
X51402306Y-44507945D01*
X51502725Y-44561620D01*
X51611685Y-44594672D01*
X51725000Y-44605833D01*
X52068070Y-44605833D01*
X52701110Y-45238873D01*
X52716155Y-45257206D01*
X52697694Y-45242055D01*
X52597275Y-45188380D01*
X52488315Y-45155328D01*
X52375000Y-45144167D01*
X51975000Y-45144167D01*
X51861685Y-45155328D01*
X51752725Y-45188380D01*
X51652306Y-45242055D01*
X51564289Y-45314289D01*
X51492055Y-45402306D01*
X51438380Y-45502725D01*
X51405328Y-45611685D01*
X51394167Y-45725000D01*
X51394167Y-45796000D01*
X51126745Y-45796000D01*
X51128841Y-45789090D01*
X51141063Y-45665000D01*
X51138000Y-45375250D01*
X50979750Y-45217000D01*
X49507000Y-45217000D01*
X49507000Y-45237000D01*
X49503000Y-45237000D01*
X49503000Y-45217000D01*
X48030250Y-45217000D01*
X47872000Y-45375250D01*
X47868937Y-45665000D01*
X47881159Y-45789090D01*
X47883255Y-45796000D01*
X46524750Y-45796000D01*
X46499999Y-45793562D01*
X46475248Y-45796000D01*
X46475246Y-45796000D01*
X46401199Y-45803293D01*
X46306195Y-45832112D01*
X46218638Y-45878912D01*
X46141894Y-45941894D01*
X46126114Y-45961122D01*
X45626122Y-46461114D01*
X45606895Y-46476894D01*
X45591115Y-46496122D01*
X45543913Y-46553638D01*
X45508547Y-46619803D01*
X45440703Y-46626485D01*
X45369262Y-46648156D01*
X45330000Y-46669142D01*
X45290738Y-46648156D01*
X45219297Y-46626485D01*
X45145000Y-46619167D01*
X44245000Y-46619167D01*
X44170703Y-46626485D01*
X44099262Y-46648156D01*
X44060000Y-46669142D01*
X44020738Y-46648156D01*
X43949297Y-46626485D01*
X43875000Y-46619167D01*
X42975000Y-46619167D01*
X42900703Y-46626485D01*
X42829262Y-46648156D01*
X42790000Y-46669142D01*
X42750738Y-46648156D01*
X42679297Y-46626485D01*
X42605000Y-46619167D01*
X41705000Y-46619167D01*
X41630703Y-46626485D01*
X41559262Y-46648156D01*
X41520000Y-46669142D01*
X41480738Y-46648156D01*
X41409297Y-46626485D01*
X41335000Y-46619167D01*
X40435000Y-46619167D01*
X40360703Y-46626485D01*
X40289262Y-46648156D01*
X40250000Y-46669142D01*
X40210738Y-46648156D01*
X40139297Y-46626485D01*
X40065000Y-46619167D01*
X39165000Y-46619167D01*
X39090703Y-46626485D01*
X39019262Y-46648156D01*
X38980000Y-46669142D01*
X38940738Y-46648156D01*
X38869297Y-46626485D01*
X38795000Y-46619167D01*
X37895000Y-46619167D01*
X37820703Y-46626485D01*
X37749262Y-46648156D01*
X37710000Y-46669142D01*
X37670738Y-46648156D01*
X37599297Y-46626485D01*
X37525000Y-46619167D01*
X36625000Y-46619167D01*
X36550703Y-46626485D01*
X36479262Y-46648156D01*
X36440000Y-46669142D01*
X36400738Y-46648156D01*
X36329297Y-46626485D01*
X36255000Y-46619167D01*
X35355000Y-46619167D01*
X35280703Y-46626485D01*
X35209262Y-46648156D01*
X35170000Y-46669142D01*
X35130738Y-46648156D01*
X35059297Y-46626485D01*
X35039000Y-46624486D01*
X35039000Y-46611741D01*
X35056750Y-46568888D01*
X35079000Y-46457027D01*
X35079000Y-46342973D01*
X35056750Y-46231112D01*
X35013104Y-46125740D01*
X34949739Y-46030909D01*
X34869091Y-45950261D01*
X34774260Y-45886896D01*
X34668888Y-45843250D01*
X34557027Y-45821000D01*
X34442973Y-45821000D01*
X34331112Y-45843250D01*
X34225740Y-45886896D01*
X34130909Y-45950261D01*
X34050261Y-46030909D01*
X33986896Y-46125740D01*
X33943250Y-46231112D01*
X33921000Y-46342973D01*
X33921000Y-46457027D01*
X33943250Y-46568888D01*
X33971973Y-46638233D01*
X33939262Y-46648156D01*
X33900000Y-46669142D01*
X33860738Y-46648156D01*
X33789297Y-46626485D01*
X33769000Y-46624486D01*
X33769000Y-45343763D01*
X35208763Y-43904000D01*
X42075246Y-43904000D01*
X42100000Y-43906438D01*
X42198801Y-43896707D01*
X42207425Y-43894091D01*
X42293805Y-43867888D01*
X42381362Y-43821088D01*
X42458106Y-43758106D01*
X42473890Y-43738873D01*
X43638878Y-42573886D01*
X43658106Y-42558106D01*
X43721088Y-42481362D01*
X43767888Y-42393805D01*
X43796707Y-42298801D01*
X43804000Y-42224754D01*
X43804000Y-42224752D01*
X43806438Y-42200001D01*
X43804000Y-42175250D01*
X43804000Y-38304000D01*
X45412115Y-38304000D01*
X45425740Y-38313104D01*
X45531112Y-38356750D01*
X45642973Y-38379000D01*
X45757027Y-38379000D01*
X45868888Y-38356750D01*
X45974260Y-38313104D01*
X46069091Y-38249739D01*
X46141535Y-38177296D01*
X46996000Y-39031761D01*
X46996001Y-41912114D01*
X46986896Y-41925740D01*
X46943250Y-42031112D01*
X46921000Y-42142973D01*
X46921000Y-42257027D01*
X46943250Y-42368888D01*
X46986896Y-42474260D01*
X47050261Y-42569091D01*
X47130909Y-42649739D01*
X47225740Y-42713104D01*
X47331112Y-42756750D01*
X47442973Y-42779000D01*
X47557027Y-42779000D01*
X47668888Y-42756750D01*
X47774260Y-42713104D01*
X47869091Y-42649739D01*
X47949739Y-42569091D01*
X48013104Y-42474260D01*
X48056750Y-42368888D01*
X48079000Y-42257027D01*
X48079000Y-42142973D01*
X48056750Y-42031112D01*
X48013104Y-41925740D01*
X48004000Y-41912115D01*
X48004000Y-38847752D01*
X48006438Y-38822998D01*
X47996707Y-38724196D01*
X47982997Y-38679000D01*
X47967888Y-38629193D01*
X47921088Y-38541636D01*
X47858106Y-38464892D01*
X47838873Y-38449108D01*
X46250892Y-36861127D01*
X46235108Y-36841894D01*
X46158364Y-36778912D01*
X46070807Y-36732112D01*
X45975803Y-36703293D01*
X45901756Y-36696000D01*
X45877002Y-36693562D01*
X45852248Y-36696000D01*
X42908763Y-36696000D01*
X42737763Y-36525000D01*
X43300000Y-36525000D01*
X43324386Y-36522598D01*
X43347835Y-36515485D01*
X43369446Y-36503934D01*
X43388388Y-36488388D01*
X43403934Y-36469446D01*
X43415485Y-36447835D01*
X43422598Y-36424386D01*
X43425000Y-36400000D01*
X43425000Y-33600000D01*
X43422598Y-33575614D01*
X43415485Y-33552165D01*
X43403934Y-33530554D01*
X43388388Y-33511612D01*
X43369446Y-33496066D01*
X43347835Y-33484515D01*
X43324386Y-33477402D01*
X43300000Y-33475000D01*
X41389000Y-33475000D01*
X41389000Y-32375514D01*
X41409297Y-32373515D01*
X41480738Y-32351844D01*
X41520000Y-32330858D01*
X41559262Y-32351844D01*
X41630703Y-32373515D01*
X41705000Y-32380833D01*
X42605000Y-32380833D01*
X42679297Y-32373515D01*
X42750738Y-32351844D01*
X42790000Y-32330858D01*
X42829262Y-32351844D01*
X42900703Y-32373515D01*
X42975000Y-32380833D01*
X43875000Y-32380833D01*
X43949297Y-32373515D01*
X44020738Y-32351844D01*
X44060000Y-32330858D01*
X44099262Y-32351844D01*
X44170703Y-32373515D01*
X44245000Y-32380833D01*
X45145000Y-32380833D01*
X45219297Y-32373515D01*
X45290738Y-32351844D01*
X45330000Y-32330858D01*
X45369262Y-32351844D01*
X45440703Y-32373515D01*
X45515000Y-32380833D01*
X46415000Y-32380833D01*
X46489297Y-32373515D01*
X46560738Y-32351844D01*
X46600000Y-32330858D01*
X46639262Y-32351844D01*
X46710703Y-32373515D01*
X46785000Y-32380833D01*
X47685000Y-32380833D01*
X47759297Y-32373515D01*
X47830738Y-32351844D01*
X47870000Y-32330858D01*
X47909262Y-32351844D01*
X47980703Y-32373515D01*
X48055000Y-32380833D01*
X48955000Y-32380833D01*
X49029297Y-32373515D01*
X49100738Y-32351844D01*
X49166579Y-32316651D01*
X49224290Y-32269290D01*
X49271651Y-32211579D01*
X49306844Y-32145738D01*
X49328515Y-32074297D01*
X49335833Y-32000000D01*
X49335833Y-31504000D01*
X50641005Y-31504000D01*
X50638937Y-31525000D01*
X50642000Y-31839750D01*
X50800250Y-31998000D01*
X51723000Y-31998000D01*
X51723000Y-31978000D01*
X51727000Y-31978000D01*
X51727000Y-31998000D01*
X51747000Y-31998000D01*
X51747000Y-32002000D01*
X51727000Y-32002000D01*
X51727000Y-33498000D01*
X51747000Y-33498000D01*
X51747000Y-33502000D01*
X51727000Y-33502000D01*
X51727000Y-34449750D01*
X51885250Y-34608000D01*
X52175000Y-34611063D01*
X52299090Y-34598841D01*
X52418411Y-34562646D01*
X52528378Y-34503867D01*
X52624764Y-34424764D01*
X52703867Y-34328378D01*
X52737022Y-34266349D01*
X52818158Y-34309717D01*
X52931808Y-34344192D01*
X53050000Y-34355833D01*
X53312004Y-34355833D01*
X53621001Y-34664831D01*
X53621001Y-35457082D01*
X53485087Y-35498311D01*
X53297640Y-35598504D01*
X53133341Y-35733341D01*
X52998504Y-35897640D01*
X52898311Y-36085087D01*
X52836613Y-36288479D01*
X52815780Y-36500000D01*
X52836613Y-36711521D01*
X52898311Y-36914913D01*
X52998504Y-37102360D01*
X53133341Y-37266659D01*
X53297640Y-37401496D01*
X53485087Y-37501689D01*
X53688479Y-37563387D01*
X53847000Y-37579000D01*
X54553000Y-37579000D01*
X54711521Y-37563387D01*
X54914913Y-37501689D01*
X55102360Y-37401496D01*
X55266659Y-37266659D01*
X55401496Y-37102360D01*
X55501689Y-36914913D01*
X55563387Y-36711521D01*
X55584220Y-36500000D01*
X55563488Y-36289498D01*
X56183726Y-36289498D01*
X56325252Y-36498000D01*
X57798000Y-36498000D01*
X57798000Y-35167000D01*
X57498000Y-35167000D01*
X57237983Y-35193003D01*
X56988035Y-35269234D01*
X56757762Y-35392762D01*
X56556012Y-35558841D01*
X56390539Y-35761088D01*
X56267702Y-35991731D01*
X56192222Y-36241907D01*
X56183726Y-36289498D01*
X55563488Y-36289498D01*
X55563387Y-36288479D01*
X55501689Y-36085087D01*
X55401496Y-35897640D01*
X55266659Y-35733341D01*
X55102360Y-35598504D01*
X54914913Y-35498311D01*
X54779000Y-35457082D01*
X54779000Y-34453432D01*
X54781800Y-34425000D01*
X54779000Y-34396568D01*
X54779000Y-34396561D01*
X54770622Y-34311496D01*
X54744384Y-34225000D01*
X56388937Y-34225000D01*
X56401159Y-34349090D01*
X56437354Y-34468411D01*
X56496133Y-34578378D01*
X56575236Y-34674764D01*
X56671622Y-34753867D01*
X56781589Y-34812646D01*
X56900910Y-34848841D01*
X57025000Y-34861063D01*
X57339750Y-34858000D01*
X57498000Y-34699750D01*
X57498000Y-33777000D01*
X56550250Y-33777000D01*
X56392000Y-33935250D01*
X56388937Y-34225000D01*
X54744384Y-34225000D01*
X54737514Y-34202354D01*
X54683750Y-34101769D01*
X54647916Y-34058105D01*
X54629524Y-34035694D01*
X54629519Y-34035689D01*
X54611395Y-34013605D01*
X54589311Y-33995481D01*
X54105833Y-33512004D01*
X54105833Y-33250000D01*
X54094192Y-33131808D01*
X54059717Y-33018158D01*
X54003732Y-32913417D01*
X53928389Y-32821611D01*
X53854000Y-32760562D01*
X53854000Y-32739438D01*
X53928389Y-32678389D01*
X54003732Y-32586583D01*
X54059717Y-32481842D01*
X54094192Y-32368192D01*
X54105833Y-32250000D01*
X54105833Y-31750000D01*
X54094192Y-31631808D01*
X54059717Y-31518158D01*
X54052149Y-31504000D01*
X54091237Y-31504000D01*
X55140053Y-32552817D01*
X55143250Y-32568888D01*
X55186896Y-32674260D01*
X55250261Y-32769091D01*
X55330909Y-32849739D01*
X55425740Y-32913104D01*
X55531112Y-32956750D01*
X55642973Y-32979000D01*
X55757027Y-32979000D01*
X55868888Y-32956750D01*
X55974260Y-32913104D01*
X56069091Y-32849739D01*
X56149739Y-32769091D01*
X56213104Y-32674260D01*
X56256750Y-32568888D01*
X56279000Y-32457027D01*
X56279000Y-32342973D01*
X56256750Y-32231112D01*
X56213104Y-32125740D01*
X56149739Y-32030909D01*
X56069091Y-31950261D01*
X55974260Y-31886896D01*
X55868888Y-31843250D01*
X55852817Y-31840053D01*
X54673890Y-30661127D01*
X54658106Y-30641894D01*
X54581362Y-30578912D01*
X54493805Y-30532112D01*
X54398801Y-30503293D01*
X54324754Y-30496000D01*
X54300000Y-30493562D01*
X54275246Y-30496000D01*
X49335833Y-30496000D01*
X49335833Y-30404000D01*
X56501422Y-30404000D01*
X56486896Y-30425740D01*
G04 #@! TA.AperFunction,Conductor*
D21*
G36*
X56486896Y-30425740D02*
G01*
X56475952Y-30452163D01*
X56462486Y-30477355D01*
X56454194Y-30504691D01*
X56443250Y-30531112D01*
X56437671Y-30559161D01*
X56429379Y-30586496D01*
X56426579Y-30614924D01*
X56421000Y-30642973D01*
X56421000Y-30671571D01*
X56418200Y-30700000D01*
X56421000Y-30728429D01*
X56421000Y-30757027D01*
X56426579Y-30785076D01*
X56429379Y-30813504D01*
X56437671Y-30840839D01*
X56443250Y-30868888D01*
X56454194Y-30895309D01*
X56462486Y-30922645D01*
X56475952Y-30947837D01*
X56486896Y-30974260D01*
X56502784Y-30998038D01*
X56516250Y-31023231D01*
X56534375Y-31045316D01*
X56550261Y-31069091D01*
X56630909Y-31149739D01*
X56630912Y-31149741D01*
X56921001Y-31439830D01*
X56921001Y-31492214D01*
X56913417Y-31496268D01*
X56821611Y-31571611D01*
X56746268Y-31663417D01*
X56690283Y-31768158D01*
X56655808Y-31881808D01*
X56644167Y-32000000D01*
X56644167Y-32450000D01*
X56655808Y-32568192D01*
X56690283Y-32681842D01*
X56733651Y-32762978D01*
X56671622Y-32796133D01*
X56575236Y-32875236D01*
X56496133Y-32971622D01*
X56437354Y-33081589D01*
X56401159Y-33200910D01*
X56388937Y-33325000D01*
X56392000Y-33614750D01*
X56550250Y-33773000D01*
X57498000Y-33773000D01*
X57498000Y-33753000D01*
X57502000Y-33753000D01*
X57502000Y-33773000D01*
X57522000Y-33773000D01*
X57522000Y-33777000D01*
X57502000Y-33777000D01*
X57502000Y-34699750D01*
X57660250Y-34858000D01*
X57975000Y-34861063D01*
X58099090Y-34848841D01*
X58218411Y-34812646D01*
X58328378Y-34753867D01*
X58424764Y-34674764D01*
X58503867Y-34578378D01*
X58553142Y-34486192D01*
X58553349Y-34486579D01*
X58600710Y-34544290D01*
X58658421Y-34591651D01*
X58724262Y-34626844D01*
X58795703Y-34648515D01*
X58870000Y-34655833D01*
X59930000Y-34655833D01*
X60004297Y-34648515D01*
X60075738Y-34626844D01*
X60141579Y-34591651D01*
X60199290Y-34544290D01*
X60246651Y-34486579D01*
X60281844Y-34420738D01*
X60303515Y-34349297D01*
X60310833Y-34275000D01*
X60310833Y-33831335D01*
X60379764Y-33774764D01*
X60458867Y-33678378D01*
X60487398Y-33625000D01*
X60689167Y-33625000D01*
X60689167Y-34275000D01*
X60696485Y-34349297D01*
X60718156Y-34420738D01*
X60753349Y-34486579D01*
X60800710Y-34544290D01*
X60858421Y-34591651D01*
X60924262Y-34626844D01*
X60995703Y-34648515D01*
X61070000Y-34655833D01*
X62130000Y-34655833D01*
X62204297Y-34648515D01*
X62275738Y-34626844D01*
X62341579Y-34591651D01*
X62399290Y-34544290D01*
X62446651Y-34486579D01*
X62464065Y-34454000D01*
X63300246Y-34454000D01*
X63325000Y-34456438D01*
X63387717Y-34450261D01*
X63423801Y-34446707D01*
X63518805Y-34417888D01*
X63606362Y-34371088D01*
X63683106Y-34308106D01*
X63698890Y-34288873D01*
X63873885Y-34113878D01*
X63921087Y-34056362D01*
X63967887Y-33968806D01*
X63996706Y-33873802D01*
X64006438Y-33775001D01*
X63996706Y-33676200D01*
X63967887Y-33581195D01*
X63921087Y-33493639D01*
X63858105Y-33416895D01*
X63781361Y-33353913D01*
X63693805Y-33307113D01*
X63598800Y-33278294D01*
X63499999Y-33268562D01*
X63401198Y-33278294D01*
X63306194Y-33307113D01*
X63218638Y-33353913D01*
X63161122Y-33401115D01*
X63116237Y-33446000D01*
X62464065Y-33446000D01*
X62446651Y-33413421D01*
X62399290Y-33355710D01*
X62341579Y-33308349D01*
X62275738Y-33273156D01*
X62204297Y-33251485D01*
X62130000Y-33244167D01*
X61070000Y-33244167D01*
X60995703Y-33251485D01*
X60924262Y-33273156D01*
X60858421Y-33308349D01*
X60800710Y-33355710D01*
X60753349Y-33413421D01*
X60718156Y-33479262D01*
X60696485Y-33550703D01*
X60689167Y-33625000D01*
X60487398Y-33625000D01*
X60517646Y-33568411D01*
X60553841Y-33449090D01*
X60566063Y-33325000D01*
X60563000Y-33160250D01*
X60404750Y-33002000D01*
X59402000Y-33002000D01*
X59402000Y-33022000D01*
X59398000Y-33022000D01*
X59398000Y-33002000D01*
X59378000Y-33002000D01*
X59378000Y-32998000D01*
X59398000Y-32998000D01*
X59398000Y-32978000D01*
X59402000Y-32978000D01*
X59402000Y-32998000D01*
X60404750Y-32998000D01*
X60563000Y-32839750D01*
X60566063Y-32675000D01*
X60553841Y-32550910D01*
X60517646Y-32431589D01*
X60458867Y-32321622D01*
X60379764Y-32225236D01*
X60310833Y-32168665D01*
X60310833Y-31725000D01*
X60689167Y-31725000D01*
X60689167Y-32375000D01*
X60696485Y-32449297D01*
X60718156Y-32520738D01*
X60753349Y-32586579D01*
X60800710Y-32644290D01*
X60858421Y-32691651D01*
X60924262Y-32726844D01*
X60995703Y-32748515D01*
X61070000Y-32755833D01*
X62130000Y-32755833D01*
X62204297Y-32748515D01*
X62275738Y-32726844D01*
X62341579Y-32691651D01*
X62399290Y-32644290D01*
X62446651Y-32586579D01*
X62481844Y-32520738D01*
X62502057Y-32454104D01*
X62558106Y-32408106D01*
X62573890Y-32388873D01*
X62677816Y-32284947D01*
X62693888Y-32281750D01*
X62799260Y-32238104D01*
X62894091Y-32174739D01*
X62974739Y-32094091D01*
X63038104Y-31999260D01*
X63081750Y-31893888D01*
X63104000Y-31782027D01*
X63104000Y-31667973D01*
X63081750Y-31556112D01*
X63038104Y-31450740D01*
X62974739Y-31355909D01*
X62894091Y-31275261D01*
X62799260Y-31211896D01*
X62693888Y-31168250D01*
X62582027Y-31146000D01*
X62467973Y-31146000D01*
X62356112Y-31168250D01*
X62250740Y-31211896D01*
X62155909Y-31275261D01*
X62087003Y-31344167D01*
X61070000Y-31344167D01*
X60995703Y-31351485D01*
X60924262Y-31373156D01*
X60858421Y-31408349D01*
X60800710Y-31455710D01*
X60753349Y-31513421D01*
X60718156Y-31579262D01*
X60696485Y-31650703D01*
X60689167Y-31725000D01*
X60310833Y-31725000D01*
X60303515Y-31650703D01*
X60281844Y-31579262D01*
X60246651Y-31513421D01*
X60199290Y-31455710D01*
X60141579Y-31408349D01*
X60075738Y-31373156D01*
X60004297Y-31351485D01*
X59930000Y-31344167D01*
X58870000Y-31344167D01*
X58795703Y-31351485D01*
X58724262Y-31373156D01*
X58658421Y-31408349D01*
X58600710Y-31455710D01*
X58588162Y-31471000D01*
X58079000Y-31471000D01*
X58079000Y-31228429D01*
X58081800Y-31200000D01*
X58079000Y-31171571D01*
X58079000Y-31171561D01*
X58070622Y-31086496D01*
X58037514Y-30977354D01*
X58031552Y-30966199D01*
X57983750Y-30876768D01*
X57929524Y-30810694D01*
X57929519Y-30810689D01*
X57911395Y-30788605D01*
X57889310Y-30770480D01*
X57522829Y-30404000D01*
X62480240Y-30404000D01*
X62906740Y-30445819D01*
X63297986Y-30563943D01*
X63658835Y-30755810D01*
X63975547Y-31014113D01*
X64236056Y-31329014D01*
X64430438Y-31688515D01*
X64551292Y-32078932D01*
X64596001Y-32504312D01*
X64596001Y-34354480D01*
X64568888Y-34343250D01*
X64457027Y-34321000D01*
X64342973Y-34321000D01*
X64231112Y-34343250D01*
X64125740Y-34386896D01*
X64112115Y-34396000D01*
X63824750Y-34396000D01*
X63799999Y-34393562D01*
X63775248Y-34396000D01*
X63775246Y-34396000D01*
X63701199Y-34403293D01*
X63606195Y-34432112D01*
X63518638Y-34478912D01*
X63441894Y-34541894D01*
X63426114Y-34561122D01*
X61400697Y-36586540D01*
X61404000Y-36553000D01*
X61404000Y-35647001D01*
X61388387Y-35488480D01*
X61326689Y-35285087D01*
X61226496Y-35097640D01*
X61091659Y-34933341D01*
X60927360Y-34798504D01*
X60739913Y-34698311D01*
X60536521Y-34636613D01*
X60325000Y-34615780D01*
X60113480Y-34636613D01*
X59910088Y-34698311D01*
X59722641Y-34798504D01*
X59558342Y-34933341D01*
X59423505Y-35097640D01*
X59323312Y-35285087D01*
X59261613Y-35488479D01*
X59246000Y-35647000D01*
X59246000Y-35829695D01*
X59209461Y-35761088D01*
X59043988Y-35558841D01*
X58842238Y-35392762D01*
X58611965Y-35269234D01*
X58362017Y-35193003D01*
X58102000Y-35167000D01*
X57802000Y-35167000D01*
X57802000Y-36498000D01*
X57822000Y-36498000D01*
X57822000Y-36502000D01*
X57802000Y-36502000D01*
X57802000Y-36522000D01*
X57798000Y-36522000D01*
X57798000Y-36502000D01*
X56325252Y-36502000D01*
X56183726Y-36710502D01*
X56192222Y-36758093D01*
X56267702Y-37008269D01*
X56390539Y-37238912D01*
X56556012Y-37441159D01*
X56744110Y-37596000D01*
X52187885Y-37596000D01*
X52174260Y-37586896D01*
X52068888Y-37543250D01*
X51998837Y-37529316D01*
X52089912Y-37501689D01*
X52277360Y-37401496D01*
X52441659Y-37266659D01*
X52576496Y-37102360D01*
X52676689Y-36914913D01*
X52738387Y-36711521D01*
X52754000Y-36553000D01*
X52754000Y-35647001D01*
X52738387Y-35488480D01*
X52676689Y-35285087D01*
X52576496Y-35097640D01*
X52441659Y-34933341D01*
X52277360Y-34798504D01*
X52089913Y-34698311D01*
X51886521Y-34636613D01*
X51675000Y-34615780D01*
X51463480Y-34636613D01*
X51260088Y-34698311D01*
X51072641Y-34798504D01*
X50908342Y-34933341D01*
X50885833Y-34960768D01*
X50885833Y-34605000D01*
X50878515Y-34530703D01*
X50856844Y-34459262D01*
X50848695Y-34444017D01*
X50921622Y-34503867D01*
X51031589Y-34562646D01*
X51150910Y-34598841D01*
X51275000Y-34611063D01*
X51564750Y-34608000D01*
X51723000Y-34449750D01*
X51723000Y-33502000D01*
X51703000Y-33502000D01*
X51703000Y-33498000D01*
X51723000Y-33498000D01*
X51723000Y-32002000D01*
X50800250Y-32002000D01*
X50642000Y-32160250D01*
X50638937Y-32475000D01*
X50651159Y-32599090D01*
X50687354Y-32718411D01*
X50704239Y-32750000D01*
X50687354Y-32781589D01*
X50651159Y-32900910D01*
X50643281Y-32980894D01*
X50579297Y-32961485D01*
X50505000Y-32954167D01*
X48505000Y-32954167D01*
X48430703Y-32961485D01*
X48359262Y-32983156D01*
X48293421Y-33018349D01*
X48235710Y-33065710D01*
X48188349Y-33123421D01*
X48153156Y-33189262D01*
X48131485Y-33260703D01*
X48124167Y-33335000D01*
X48124167Y-34235000D01*
X48131485Y-34309297D01*
X48153156Y-34380738D01*
X48174142Y-34420000D01*
X48153156Y-34459262D01*
X48131485Y-34530703D01*
X48124167Y-34605000D01*
X48124167Y-35434355D01*
X48057027Y-35421000D01*
X47942973Y-35421000D01*
X47831112Y-35443250D01*
X47725740Y-35486896D01*
X47712115Y-35496000D01*
X46204000Y-35496000D01*
X46204000Y-34387885D01*
X46213104Y-34374260D01*
X46256750Y-34268888D01*
X46279000Y-34157027D01*
X46279000Y-34042973D01*
X46256750Y-33931112D01*
X46213104Y-33825740D01*
X46149739Y-33730909D01*
X46069091Y-33650261D01*
X45974260Y-33586896D01*
X45868888Y-33543250D01*
X45757027Y-33521000D01*
X45642973Y-33521000D01*
X45531112Y-33543250D01*
X45425740Y-33586896D01*
X45330909Y-33650261D01*
X45250261Y-33730909D01*
X45186896Y-33825740D01*
X45143250Y-33931112D01*
X45121000Y-34042973D01*
X45121000Y-34157027D01*
X45143250Y-34268888D01*
X45186896Y-34374260D01*
X45196001Y-34387886D01*
X45196000Y-35712115D01*
X45186896Y-35725740D01*
X45143250Y-35831112D01*
X45121000Y-35942973D01*
X45121000Y-36057027D01*
X45143250Y-36168888D01*
X45186896Y-36274260D01*
X45250261Y-36369091D01*
X45330909Y-36449739D01*
X45425740Y-36513104D01*
X45531112Y-36556750D01*
X45642973Y-36579000D01*
X45757027Y-36579000D01*
X45868888Y-36556750D01*
X45974260Y-36513104D01*
X45987885Y-36504000D01*
X47712115Y-36504000D01*
X47725740Y-36513104D01*
X47831112Y-36556750D01*
X47942973Y-36579000D01*
X48057027Y-36579000D01*
X48124167Y-36565645D01*
X48124167Y-36775000D01*
X48131485Y-36849297D01*
X48153156Y-36920738D01*
X48174142Y-36960000D01*
X48153156Y-36999262D01*
X48131485Y-37070703D01*
X48124167Y-37145000D01*
X48124167Y-38045000D01*
X48131485Y-38119297D01*
X48153156Y-38190738D01*
X48174142Y-38230000D01*
X48153156Y-38269262D01*
X48131485Y-38340703D01*
X48124167Y-38415000D01*
X48124167Y-39315000D01*
X48131485Y-39389297D01*
X48153156Y-39460738D01*
X48174142Y-39500000D01*
X48153156Y-39539262D01*
X48131485Y-39610703D01*
X48124167Y-39685000D01*
X48124167Y-40585000D01*
X48131485Y-40659297D01*
X48153156Y-40730738D01*
X48174142Y-40770000D01*
X48153156Y-40809262D01*
X48131485Y-40880703D01*
X48124167Y-40955000D01*
X48124167Y-41855000D01*
X48131485Y-41929297D01*
X48153156Y-42000738D01*
X48174142Y-42040000D01*
X48153156Y-42079262D01*
X48131485Y-42150703D01*
X48124167Y-42225000D01*
X48124167Y-43125000D01*
X48131485Y-43199297D01*
X48153156Y-43270738D01*
X48174142Y-43310000D01*
X48153156Y-43349262D01*
X48131485Y-43420703D01*
X48124167Y-43495000D01*
X48124167Y-44258665D01*
X48055236Y-44315236D01*
X47976133Y-44411622D01*
X47917354Y-44521589D01*
X47881159Y-44640910D01*
X47868937Y-44765000D01*
X47872000Y-45054750D01*
X48030250Y-45213000D01*
X49503000Y-45213000D01*
X49503000Y-45193000D01*
X49507000Y-45193000D01*
X49507000Y-45213000D01*
X50979750Y-45213000D01*
X51138000Y-45054750D01*
X51141063Y-44765000D01*
X51128841Y-44640910D01*
X51092646Y-44521589D01*
X51033867Y-44411622D01*
X50954764Y-44315236D01*
X50885833Y-44258665D01*
X50885833Y-43495000D01*
X50878515Y-43420703D01*
X50856844Y-43349262D01*
X50835858Y-43310000D01*
X50856844Y-43270738D01*
X50878515Y-43199297D01*
X50885833Y-43125000D01*
X50885833Y-42225000D01*
X50878515Y-42150703D01*
X50856844Y-42079262D01*
X50835858Y-42040000D01*
X50856844Y-42000738D01*
X50864651Y-41975000D01*
X51144167Y-41975000D01*
X51144167Y-42375000D01*
X51155328Y-42488315D01*
X51188380Y-42597275D01*
X51242055Y-42697694D01*
X51314289Y-42785711D01*
X51402306Y-42857945D01*
X51502725Y-42911620D01*
X51611685Y-42944672D01*
X51725000Y-42955833D01*
X52275000Y-42955833D01*
X52388315Y-42944672D01*
X52497275Y-42911620D01*
X52597694Y-42857945D01*
X52685711Y-42785711D01*
X52750000Y-42707375D01*
X52814289Y-42785711D01*
X52902306Y-42857945D01*
X53002725Y-42911620D01*
X53111685Y-42944672D01*
X53225000Y-42955833D01*
X53775000Y-42955833D01*
X53888315Y-42944672D01*
X53997275Y-42911620D01*
X54097694Y-42857945D01*
X54185711Y-42785711D01*
X54257945Y-42697694D01*
X54311620Y-42597275D01*
X54344672Y-42488315D01*
X54355833Y-42375000D01*
X54355833Y-41975000D01*
X54344672Y-41861685D01*
X54311620Y-41752725D01*
X54257945Y-41652306D01*
X54185711Y-41564289D01*
X54097694Y-41492055D01*
X54079000Y-41482063D01*
X54079000Y-41442973D01*
X54056750Y-41331112D01*
X54013104Y-41225740D01*
X53949739Y-41130909D01*
X53869091Y-41050261D01*
X53774260Y-40986896D01*
X53668888Y-40943250D01*
X53557027Y-40921000D01*
X53442973Y-40921000D01*
X53331112Y-40943250D01*
X53264641Y-40970783D01*
X53256750Y-40931112D01*
X53213104Y-40825740D01*
X53149739Y-40730909D01*
X53069091Y-40650261D01*
X52974260Y-40586896D01*
X52868888Y-40543250D01*
X52757027Y-40521000D01*
X52642973Y-40521000D01*
X52531112Y-40543250D01*
X52425740Y-40586896D01*
X52330909Y-40650261D01*
X52250261Y-40730909D01*
X52186896Y-40825740D01*
X52143250Y-40931112D01*
X52140053Y-40947183D01*
X51689581Y-41397656D01*
X51611685Y-41405328D01*
X51502725Y-41438380D01*
X51402306Y-41492055D01*
X51314289Y-41564289D01*
X51242055Y-41652306D01*
X51188380Y-41752725D01*
X51155328Y-41861685D01*
X51144167Y-41975000D01*
X50864651Y-41975000D01*
X50878515Y-41929297D01*
X50885833Y-41855000D01*
X50885833Y-40955000D01*
X50878515Y-40880703D01*
X50856844Y-40809262D01*
X50835858Y-40770000D01*
X50856844Y-40730738D01*
X50878515Y-40659297D01*
X50885833Y-40585000D01*
X50885833Y-39685000D01*
X50878515Y-39610703D01*
X50856844Y-39539262D01*
X50835858Y-39500000D01*
X50856844Y-39460738D01*
X50878515Y-39389297D01*
X50885833Y-39315000D01*
X50885833Y-38415000D01*
X50878515Y-38340703D01*
X50856844Y-38269262D01*
X50835858Y-38230000D01*
X50856844Y-38190738D01*
X50878515Y-38119297D01*
X50885833Y-38045000D01*
X50885833Y-37239233D01*
X50908341Y-37266659D01*
X51072640Y-37401496D01*
X51260087Y-37501689D01*
X51463479Y-37563387D01*
X51640422Y-37580814D01*
X51625740Y-37586896D01*
X51530909Y-37650261D01*
X51450261Y-37730909D01*
X51386896Y-37825740D01*
X51343250Y-37931112D01*
X51321000Y-38042973D01*
X51321000Y-38157027D01*
X51343250Y-38268888D01*
X51386896Y-38374260D01*
X51450261Y-38469091D01*
X51530909Y-38549739D01*
X51625740Y-38613104D01*
X51731112Y-38656750D01*
X51842973Y-38679000D01*
X51957027Y-38679000D01*
X52068888Y-38656750D01*
X52174260Y-38613104D01*
X52187885Y-38604000D01*
X57451630Y-38604000D01*
X57396133Y-38671622D01*
X57337354Y-38781589D01*
X57316175Y-38851409D01*
X57285711Y-38814289D01*
X57197694Y-38742055D01*
X57097275Y-38688380D01*
X56988315Y-38655328D01*
X56875000Y-38644167D01*
X56475000Y-38644167D01*
X56361685Y-38655328D01*
X56252725Y-38688380D01*
X56152306Y-38742055D01*
X56064289Y-38814289D01*
X55995000Y-38898717D01*
X55930219Y-38819781D01*
X55839360Y-38745215D01*
X55735700Y-38689808D01*
X55623223Y-38655688D01*
X55506250Y-38644167D01*
X55068750Y-38644167D01*
X54951777Y-38655688D01*
X54839300Y-38689808D01*
X54735640Y-38745215D01*
X54644781Y-38819781D01*
X54570215Y-38910640D01*
X54514808Y-39014300D01*
X54500000Y-39063115D01*
X54485192Y-39014300D01*
X54429785Y-38910640D01*
X54355219Y-38819781D01*
X54264360Y-38745215D01*
X54160700Y-38689808D01*
X54048223Y-38655688D01*
X53931250Y-38644167D01*
X53493750Y-38644167D01*
X53376777Y-38655688D01*
X53264300Y-38689808D01*
X53160640Y-38745215D01*
X53069781Y-38819781D01*
X52995215Y-38910640D01*
X52939808Y-39014300D01*
X52905688Y-39126777D01*
X52894167Y-39243750D01*
X52894167Y-39756250D01*
X52905688Y-39873223D01*
X52939808Y-39985700D01*
X52995215Y-40089360D01*
X53069781Y-40180219D01*
X53160640Y-40254785D01*
X53264300Y-40310192D01*
X53376777Y-40344312D01*
X53493750Y-40355833D01*
X53543070Y-40355833D01*
X55219167Y-42031931D01*
X55219167Y-42450000D01*
X55220612Y-42464675D01*
X55168888Y-42443250D01*
X55057027Y-42421000D01*
X54942973Y-42421000D01*
X54831112Y-42443250D01*
X54725740Y-42486896D01*
X54630909Y-42550261D01*
X54550261Y-42630909D01*
X54486896Y-42725740D01*
X54443250Y-42831112D01*
X54421000Y-42942973D01*
X54421000Y-43057027D01*
X54443250Y-43168888D01*
X54464235Y-43219551D01*
X54438421Y-43233349D01*
X54380710Y-43280710D01*
X54347646Y-43321000D01*
X54267937Y-43321000D01*
X54257945Y-43302306D01*
X54185711Y-43214289D01*
X54097694Y-43142055D01*
X53997275Y-43088380D01*
X53888315Y-43055328D01*
X53775000Y-43044167D01*
X53225000Y-43044167D01*
X53111685Y-43055328D01*
X53002725Y-43088380D01*
X52902306Y-43142055D01*
X52814289Y-43214289D01*
X52750000Y-43292625D01*
X52685711Y-43214289D01*
X52597694Y-43142055D01*
X52497275Y-43088380D01*
X52388315Y-43055328D01*
X52275000Y-43044167D01*
X51725000Y-43044167D01*
X51611685Y-43055328D01*
X51502725Y-43088380D01*
X51402306Y-43142055D01*
X51314289Y-43214289D01*
X51242055Y-43302306D01*
X51188380Y-43402725D01*
X51155328Y-43511685D01*
X51144167Y-43625000D01*
X51144167Y-44025000D01*
X51155328Y-44138315D01*
X51188380Y-44247275D01*
X51242055Y-44347694D01*
X51314289Y-44435711D01*
X51402306Y-44507945D01*
X51502725Y-44561620D01*
X51611685Y-44594672D01*
X51725000Y-44605833D01*
X52068070Y-44605833D01*
X52701110Y-45238873D01*
X52716155Y-45257206D01*
X52697694Y-45242055D01*
X52597275Y-45188380D01*
X52488315Y-45155328D01*
X52375000Y-45144167D01*
X51975000Y-45144167D01*
X51861685Y-45155328D01*
X51752725Y-45188380D01*
X51652306Y-45242055D01*
X51564289Y-45314289D01*
X51492055Y-45402306D01*
X51438380Y-45502725D01*
X51405328Y-45611685D01*
X51394167Y-45725000D01*
X51394167Y-45796000D01*
X51126745Y-45796000D01*
X51128841Y-45789090D01*
X51141063Y-45665000D01*
X51138000Y-45375250D01*
X50979750Y-45217000D01*
X49507000Y-45217000D01*
X49507000Y-45237000D01*
X49503000Y-45237000D01*
X49503000Y-45217000D01*
X48030250Y-45217000D01*
X47872000Y-45375250D01*
X47868937Y-45665000D01*
X47881159Y-45789090D01*
X47883255Y-45796000D01*
X46524750Y-45796000D01*
X46499999Y-45793562D01*
X46475248Y-45796000D01*
X46475246Y-45796000D01*
X46401199Y-45803293D01*
X46306195Y-45832112D01*
X46218638Y-45878912D01*
X46141894Y-45941894D01*
X46126114Y-45961122D01*
X45626122Y-46461114D01*
X45606895Y-46476894D01*
X45591115Y-46496122D01*
X45543913Y-46553638D01*
X45508547Y-46619803D01*
X45440703Y-46626485D01*
X45369262Y-46648156D01*
X45330000Y-46669142D01*
X45290738Y-46648156D01*
X45219297Y-46626485D01*
X45145000Y-46619167D01*
X44245000Y-46619167D01*
X44170703Y-46626485D01*
X44099262Y-46648156D01*
X44060000Y-46669142D01*
X44020738Y-46648156D01*
X43949297Y-46626485D01*
X43875000Y-46619167D01*
X42975000Y-46619167D01*
X42900703Y-46626485D01*
X42829262Y-46648156D01*
X42790000Y-46669142D01*
X42750738Y-46648156D01*
X42679297Y-46626485D01*
X42605000Y-46619167D01*
X41705000Y-46619167D01*
X41630703Y-46626485D01*
X41559262Y-46648156D01*
X41520000Y-46669142D01*
X41480738Y-46648156D01*
X41409297Y-46626485D01*
X41335000Y-46619167D01*
X40435000Y-46619167D01*
X40360703Y-46626485D01*
X40289262Y-46648156D01*
X40250000Y-46669142D01*
X40210738Y-46648156D01*
X40139297Y-46626485D01*
X40065000Y-46619167D01*
X39165000Y-46619167D01*
X39090703Y-46626485D01*
X39019262Y-46648156D01*
X38980000Y-46669142D01*
X38940738Y-46648156D01*
X38869297Y-46626485D01*
X38795000Y-46619167D01*
X37895000Y-46619167D01*
X37820703Y-46626485D01*
X37749262Y-46648156D01*
X37710000Y-46669142D01*
X37670738Y-46648156D01*
X37599297Y-46626485D01*
X37525000Y-46619167D01*
X36625000Y-46619167D01*
X36550703Y-46626485D01*
X36479262Y-46648156D01*
X36440000Y-46669142D01*
X36400738Y-46648156D01*
X36329297Y-46626485D01*
X36255000Y-46619167D01*
X35355000Y-46619167D01*
X35280703Y-46626485D01*
X35209262Y-46648156D01*
X35170000Y-46669142D01*
X35130738Y-46648156D01*
X35059297Y-46626485D01*
X35039000Y-46624486D01*
X35039000Y-46611741D01*
X35056750Y-46568888D01*
X35079000Y-46457027D01*
X35079000Y-46342973D01*
X35056750Y-46231112D01*
X35013104Y-46125740D01*
X34949739Y-46030909D01*
X34869091Y-45950261D01*
X34774260Y-45886896D01*
X34668888Y-45843250D01*
X34557027Y-45821000D01*
X34442973Y-45821000D01*
X34331112Y-45843250D01*
X34225740Y-45886896D01*
X34130909Y-45950261D01*
X34050261Y-46030909D01*
X33986896Y-46125740D01*
X33943250Y-46231112D01*
X33921000Y-46342973D01*
X33921000Y-46457027D01*
X33943250Y-46568888D01*
X33971973Y-46638233D01*
X33939262Y-46648156D01*
X33900000Y-46669142D01*
X33860738Y-46648156D01*
X33789297Y-46626485D01*
X33769000Y-46624486D01*
X33769000Y-45343763D01*
X35208763Y-43904000D01*
X42075246Y-43904000D01*
X42100000Y-43906438D01*
X42198801Y-43896707D01*
X42207425Y-43894091D01*
X42293805Y-43867888D01*
X42381362Y-43821088D01*
X42458106Y-43758106D01*
X42473890Y-43738873D01*
X43638878Y-42573886D01*
X43658106Y-42558106D01*
X43721088Y-42481362D01*
X43767888Y-42393805D01*
X43796707Y-42298801D01*
X43804000Y-42224754D01*
X43804000Y-42224752D01*
X43806438Y-42200001D01*
X43804000Y-42175250D01*
X43804000Y-38304000D01*
X45412115Y-38304000D01*
X45425740Y-38313104D01*
X45531112Y-38356750D01*
X45642973Y-38379000D01*
X45757027Y-38379000D01*
X45868888Y-38356750D01*
X45974260Y-38313104D01*
X46069091Y-38249739D01*
X46141535Y-38177296D01*
X46996000Y-39031761D01*
X46996001Y-41912114D01*
X46986896Y-41925740D01*
X46943250Y-42031112D01*
X46921000Y-42142973D01*
X46921000Y-42257027D01*
X46943250Y-42368888D01*
X46986896Y-42474260D01*
X47050261Y-42569091D01*
X47130909Y-42649739D01*
X47225740Y-42713104D01*
X47331112Y-42756750D01*
X47442973Y-42779000D01*
X47557027Y-42779000D01*
X47668888Y-42756750D01*
X47774260Y-42713104D01*
X47869091Y-42649739D01*
X47949739Y-42569091D01*
X48013104Y-42474260D01*
X48056750Y-42368888D01*
X48079000Y-42257027D01*
X48079000Y-42142973D01*
X48056750Y-42031112D01*
X48013104Y-41925740D01*
X48004000Y-41912115D01*
X48004000Y-38847752D01*
X48006438Y-38822998D01*
X47996707Y-38724196D01*
X47982997Y-38679000D01*
X47967888Y-38629193D01*
X47921088Y-38541636D01*
X47858106Y-38464892D01*
X47838873Y-38449108D01*
X46250892Y-36861127D01*
X46235108Y-36841894D01*
X46158364Y-36778912D01*
X46070807Y-36732112D01*
X45975803Y-36703293D01*
X45901756Y-36696000D01*
X45877002Y-36693562D01*
X45852248Y-36696000D01*
X42908763Y-36696000D01*
X42737763Y-36525000D01*
X43300000Y-36525000D01*
X43324386Y-36522598D01*
X43347835Y-36515485D01*
X43369446Y-36503934D01*
X43388388Y-36488388D01*
X43403934Y-36469446D01*
X43415485Y-36447835D01*
X43422598Y-36424386D01*
X43425000Y-36400000D01*
X43425000Y-33600000D01*
X43422598Y-33575614D01*
X43415485Y-33552165D01*
X43403934Y-33530554D01*
X43388388Y-33511612D01*
X43369446Y-33496066D01*
X43347835Y-33484515D01*
X43324386Y-33477402D01*
X43300000Y-33475000D01*
X41389000Y-33475000D01*
X41389000Y-32375514D01*
X41409297Y-32373515D01*
X41480738Y-32351844D01*
X41520000Y-32330858D01*
X41559262Y-32351844D01*
X41630703Y-32373515D01*
X41705000Y-32380833D01*
X42605000Y-32380833D01*
X42679297Y-32373515D01*
X42750738Y-32351844D01*
X42790000Y-32330858D01*
X42829262Y-32351844D01*
X42900703Y-32373515D01*
X42975000Y-32380833D01*
X43875000Y-32380833D01*
X43949297Y-32373515D01*
X44020738Y-32351844D01*
X44060000Y-32330858D01*
X44099262Y-32351844D01*
X44170703Y-32373515D01*
X44245000Y-32380833D01*
X45145000Y-32380833D01*
X45219297Y-32373515D01*
X45290738Y-32351844D01*
X45330000Y-32330858D01*
X45369262Y-32351844D01*
X45440703Y-32373515D01*
X45515000Y-32380833D01*
X46415000Y-32380833D01*
X46489297Y-32373515D01*
X46560738Y-32351844D01*
X46600000Y-32330858D01*
X46639262Y-32351844D01*
X46710703Y-32373515D01*
X46785000Y-32380833D01*
X47685000Y-32380833D01*
X47759297Y-32373515D01*
X47830738Y-32351844D01*
X47870000Y-32330858D01*
X47909262Y-32351844D01*
X47980703Y-32373515D01*
X48055000Y-32380833D01*
X48955000Y-32380833D01*
X49029297Y-32373515D01*
X49100738Y-32351844D01*
X49166579Y-32316651D01*
X49224290Y-32269290D01*
X49271651Y-32211579D01*
X49306844Y-32145738D01*
X49328515Y-32074297D01*
X49335833Y-32000000D01*
X49335833Y-31504000D01*
X50641005Y-31504000D01*
X50638937Y-31525000D01*
X50642000Y-31839750D01*
X50800250Y-31998000D01*
X51723000Y-31998000D01*
X51723000Y-31978000D01*
X51727000Y-31978000D01*
X51727000Y-31998000D01*
X51747000Y-31998000D01*
X51747000Y-32002000D01*
X51727000Y-32002000D01*
X51727000Y-33498000D01*
X51747000Y-33498000D01*
X51747000Y-33502000D01*
X51727000Y-33502000D01*
X51727000Y-34449750D01*
X51885250Y-34608000D01*
X52175000Y-34611063D01*
X52299090Y-34598841D01*
X52418411Y-34562646D01*
X52528378Y-34503867D01*
X52624764Y-34424764D01*
X52703867Y-34328378D01*
X52737022Y-34266349D01*
X52818158Y-34309717D01*
X52931808Y-34344192D01*
X53050000Y-34355833D01*
X53312004Y-34355833D01*
X53621001Y-34664831D01*
X53621001Y-35457082D01*
X53485087Y-35498311D01*
X53297640Y-35598504D01*
X53133341Y-35733341D01*
X52998504Y-35897640D01*
X52898311Y-36085087D01*
X52836613Y-36288479D01*
X52815780Y-36500000D01*
X52836613Y-36711521D01*
X52898311Y-36914913D01*
X52998504Y-37102360D01*
X53133341Y-37266659D01*
X53297640Y-37401496D01*
X53485087Y-37501689D01*
X53688479Y-37563387D01*
X53847000Y-37579000D01*
X54553000Y-37579000D01*
X54711521Y-37563387D01*
X54914913Y-37501689D01*
X55102360Y-37401496D01*
X55266659Y-37266659D01*
X55401496Y-37102360D01*
X55501689Y-36914913D01*
X55563387Y-36711521D01*
X55584220Y-36500000D01*
X55563488Y-36289498D01*
X56183726Y-36289498D01*
X56325252Y-36498000D01*
X57798000Y-36498000D01*
X57798000Y-35167000D01*
X57498000Y-35167000D01*
X57237983Y-35193003D01*
X56988035Y-35269234D01*
X56757762Y-35392762D01*
X56556012Y-35558841D01*
X56390539Y-35761088D01*
X56267702Y-35991731D01*
X56192222Y-36241907D01*
X56183726Y-36289498D01*
X55563488Y-36289498D01*
X55563387Y-36288479D01*
X55501689Y-36085087D01*
X55401496Y-35897640D01*
X55266659Y-35733341D01*
X55102360Y-35598504D01*
X54914913Y-35498311D01*
X54779000Y-35457082D01*
X54779000Y-34453432D01*
X54781800Y-34425000D01*
X54779000Y-34396568D01*
X54779000Y-34396561D01*
X54770622Y-34311496D01*
X54744384Y-34225000D01*
X56388937Y-34225000D01*
X56401159Y-34349090D01*
X56437354Y-34468411D01*
X56496133Y-34578378D01*
X56575236Y-34674764D01*
X56671622Y-34753867D01*
X56781589Y-34812646D01*
X56900910Y-34848841D01*
X57025000Y-34861063D01*
X57339750Y-34858000D01*
X57498000Y-34699750D01*
X57498000Y-33777000D01*
X56550250Y-33777000D01*
X56392000Y-33935250D01*
X56388937Y-34225000D01*
X54744384Y-34225000D01*
X54737514Y-34202354D01*
X54683750Y-34101769D01*
X54647916Y-34058105D01*
X54629524Y-34035694D01*
X54629519Y-34035689D01*
X54611395Y-34013605D01*
X54589311Y-33995481D01*
X54105833Y-33512004D01*
X54105833Y-33250000D01*
X54094192Y-33131808D01*
X54059717Y-33018158D01*
X54003732Y-32913417D01*
X53928389Y-32821611D01*
X53854000Y-32760562D01*
X53854000Y-32739438D01*
X53928389Y-32678389D01*
X54003732Y-32586583D01*
X54059717Y-32481842D01*
X54094192Y-32368192D01*
X54105833Y-32250000D01*
X54105833Y-31750000D01*
X54094192Y-31631808D01*
X54059717Y-31518158D01*
X54052149Y-31504000D01*
X54091237Y-31504000D01*
X55140053Y-32552817D01*
X55143250Y-32568888D01*
X55186896Y-32674260D01*
X55250261Y-32769091D01*
X55330909Y-32849739D01*
X55425740Y-32913104D01*
X55531112Y-32956750D01*
X55642973Y-32979000D01*
X55757027Y-32979000D01*
X55868888Y-32956750D01*
X55974260Y-32913104D01*
X56069091Y-32849739D01*
X56149739Y-32769091D01*
X56213104Y-32674260D01*
X56256750Y-32568888D01*
X56279000Y-32457027D01*
X56279000Y-32342973D01*
X56256750Y-32231112D01*
X56213104Y-32125740D01*
X56149739Y-32030909D01*
X56069091Y-31950261D01*
X55974260Y-31886896D01*
X55868888Y-31843250D01*
X55852817Y-31840053D01*
X54673890Y-30661127D01*
X54658106Y-30641894D01*
X54581362Y-30578912D01*
X54493805Y-30532112D01*
X54398801Y-30503293D01*
X54324754Y-30496000D01*
X54300000Y-30493562D01*
X54275246Y-30496000D01*
X49335833Y-30496000D01*
X49335833Y-30404000D01*
X56501422Y-30404000D01*
X56486896Y-30425740D01*
G37*
G04 #@! TD.AperFunction*
M02*
