G04 #@! TF.GenerationSoftware,KiCad,Pcbnew,(5.1.10)-1*
G04 #@! TF.CreationDate,2021-12-13T15:30:27+09:00*
G04 #@! TF.ProjectId,cat_tracker,6361745f-7472-4616-936b-65722e6b6963,rev?*
G04 #@! TF.SameCoordinates,Original*
G04 #@! TF.FileFunction,Legend,Top*
G04 #@! TF.FilePolarity,Positive*
%FSLAX46Y46*%
G04 Gerber Fmt 4.6, Leading zero omitted, Abs format (unit mm)*
G04 Created by KiCad (PCBNEW (5.1.10)-1) date 2021-12-13 15:30:27*
%MOMM*%
%LPD*%
G01*
G04 APERTURE LIST*
%ADD10C,0.120000*%
%ADD11C,0.150000*%
%ADD12C,0.100000*%
G04 APERTURE END LIST*
D10*
X57522500Y-46762742D02*
X57522500Y-47237258D01*
X56477500Y-46762742D02*
X56477500Y-47237258D01*
X57977500Y-47237258D02*
X57977500Y-46762742D01*
X59022500Y-47237258D02*
X59022500Y-46762742D01*
X52977500Y-43237258D02*
X52977500Y-42762742D01*
X54022500Y-43237258D02*
X54022500Y-42762742D01*
X51477500Y-43237258D02*
X51477500Y-42762742D01*
X52522500Y-43237258D02*
X52522500Y-42762742D01*
X52762742Y-45477500D02*
X53237258Y-45477500D01*
X52762742Y-46522500D02*
X53237258Y-46522500D01*
X57262742Y-38977500D02*
X57737258Y-38977500D01*
X57262742Y-40022500D02*
X57737258Y-40022500D01*
X57580000Y-42240000D02*
X56650000Y-42240000D01*
X54420000Y-42240000D02*
X55350000Y-42240000D01*
X54420000Y-42240000D02*
X54420000Y-44400000D01*
X57580000Y-42240000D02*
X57580000Y-43700000D01*
X61080000Y-42240000D02*
X60150000Y-42240000D01*
X57920000Y-42240000D02*
X58850000Y-42240000D01*
X57920000Y-42240000D02*
X57920000Y-44400000D01*
X61080000Y-42240000D02*
X61080000Y-43700000D01*
X53700000Y-40235000D02*
X55985000Y-40235000D01*
X55985000Y-40235000D02*
X55985000Y-38765000D01*
X55985000Y-38765000D02*
X53700000Y-38765000D01*
X53140580Y-48010000D02*
X52859420Y-48010000D01*
X53140580Y-46990000D02*
X52859420Y-46990000D01*
X58010000Y-32859420D02*
X58010000Y-33140580D01*
X56990000Y-32859420D02*
X56990000Y-33140580D01*
X52640580Y-32510000D02*
X52359420Y-32510000D01*
X52640580Y-31490000D02*
X52359420Y-31490000D01*
X52640580Y-34010000D02*
X52359420Y-34010000D01*
X52640580Y-32990000D02*
X52359420Y-32990000D01*
X49350000Y-48620000D02*
X50130000Y-48620000D01*
X50130000Y-48620000D02*
X50130000Y-47620000D01*
X49350000Y-30380000D02*
X50130000Y-30380000D01*
X50130000Y-30380000D02*
X50130000Y-31380000D01*
X24385000Y-48620000D02*
X24385000Y-30380000D01*
X24385000Y-30380000D02*
X30805000Y-30380000D01*
X24385000Y-48620000D02*
X30805000Y-48620000D01*
X30805000Y-48620000D02*
X30805000Y-49000000D01*
X59600000Y-34610000D02*
X61400000Y-34610000D01*
X61400000Y-31390000D02*
X58950000Y-31390000D01*
D11*
X56316666Y-47450000D02*
X55983333Y-47683333D01*
X56316666Y-47850000D02*
X55616666Y-47850000D01*
X55616666Y-47583333D01*
X55650000Y-47516666D01*
X55683333Y-47483333D01*
X55750000Y-47450000D01*
X55850000Y-47450000D01*
X55916666Y-47483333D01*
X55950000Y-47516666D01*
X55983333Y-47583333D01*
X55983333Y-47850000D01*
X56316666Y-46783333D02*
X56316666Y-47183333D01*
X56316666Y-46983333D02*
X55616666Y-46983333D01*
X55716666Y-47050000D01*
X55783333Y-47116666D01*
X55816666Y-47183333D01*
X55616666Y-46350000D02*
X55616666Y-46283333D01*
X55650000Y-46216666D01*
X55683333Y-46183333D01*
X55750000Y-46150000D01*
X55883333Y-46116666D01*
X56050000Y-46116666D01*
X56183333Y-46150000D01*
X56250000Y-46183333D01*
X56283333Y-46216666D01*
X56316666Y-46283333D01*
X56316666Y-46350000D01*
X56283333Y-46416666D01*
X56250000Y-46450000D01*
X56183333Y-46483333D01*
X56050000Y-46516666D01*
X55883333Y-46516666D01*
X55750000Y-46483333D01*
X55683333Y-46450000D01*
X55650000Y-46416666D01*
X55616666Y-46350000D01*
X59816666Y-47116666D02*
X59483333Y-47350000D01*
X59816666Y-47516666D02*
X59116666Y-47516666D01*
X59116666Y-47250000D01*
X59150000Y-47183333D01*
X59183333Y-47150000D01*
X59250000Y-47116666D01*
X59350000Y-47116666D01*
X59416666Y-47150000D01*
X59450000Y-47183333D01*
X59483333Y-47250000D01*
X59483333Y-47516666D01*
X59816666Y-46783333D02*
X59816666Y-46650000D01*
X59783333Y-46583333D01*
X59750000Y-46550000D01*
X59650000Y-46483333D01*
X59516666Y-46450000D01*
X59250000Y-46450000D01*
X59183333Y-46483333D01*
X59150000Y-46516666D01*
X59116666Y-46583333D01*
X59116666Y-46716666D01*
X59150000Y-46783333D01*
X59183333Y-46816666D01*
X59250000Y-46850000D01*
X59416666Y-46850000D01*
X59483333Y-46816666D01*
X59516666Y-46783333D01*
X59550000Y-46716666D01*
X59550000Y-46583333D01*
X59516666Y-46516666D01*
X59483333Y-46483333D01*
X59416666Y-46450000D01*
X53383333Y-41316666D02*
X53150000Y-40983333D01*
X52983333Y-41316666D02*
X52983333Y-40616666D01*
X53250000Y-40616666D01*
X53316666Y-40650000D01*
X53350000Y-40683333D01*
X53383333Y-40750000D01*
X53383333Y-40850000D01*
X53350000Y-40916666D01*
X53316666Y-40950000D01*
X53250000Y-40983333D01*
X52983333Y-40983333D01*
X53783333Y-40916666D02*
X53716666Y-40883333D01*
X53683333Y-40850000D01*
X53650000Y-40783333D01*
X53650000Y-40750000D01*
X53683333Y-40683333D01*
X53716666Y-40650000D01*
X53783333Y-40616666D01*
X53916666Y-40616666D01*
X53983333Y-40650000D01*
X54016666Y-40683333D01*
X54050000Y-40750000D01*
X54050000Y-40783333D01*
X54016666Y-40850000D01*
X53983333Y-40883333D01*
X53916666Y-40916666D01*
X53783333Y-40916666D01*
X53716666Y-40950000D01*
X53683333Y-40983333D01*
X53650000Y-41050000D01*
X53650000Y-41183333D01*
X53683333Y-41250000D01*
X53716666Y-41283333D01*
X53783333Y-41316666D01*
X53916666Y-41316666D01*
X53983333Y-41283333D01*
X54016666Y-41250000D01*
X54050000Y-41183333D01*
X54050000Y-41050000D01*
X54016666Y-40983333D01*
X53983333Y-40950000D01*
X53916666Y-40916666D01*
X51883333Y-41316666D02*
X51650000Y-40983333D01*
X51483333Y-41316666D02*
X51483333Y-40616666D01*
X51750000Y-40616666D01*
X51816666Y-40650000D01*
X51850000Y-40683333D01*
X51883333Y-40750000D01*
X51883333Y-40850000D01*
X51850000Y-40916666D01*
X51816666Y-40950000D01*
X51750000Y-40983333D01*
X51483333Y-40983333D01*
X52116666Y-40616666D02*
X52583333Y-40616666D01*
X52283333Y-41316666D01*
X55316666Y-45616666D02*
X54983333Y-45850000D01*
X55316666Y-46016666D02*
X54616666Y-46016666D01*
X54616666Y-45750000D01*
X54650000Y-45683333D01*
X54683333Y-45650000D01*
X54750000Y-45616666D01*
X54850000Y-45616666D01*
X54916666Y-45650000D01*
X54950000Y-45683333D01*
X54983333Y-45750000D01*
X54983333Y-46016666D01*
X54850000Y-45016666D02*
X55316666Y-45016666D01*
X54583333Y-45183333D02*
X55083333Y-45350000D01*
X55083333Y-44916666D01*
X59816666Y-39616666D02*
X59483333Y-39850000D01*
X59816666Y-40016666D02*
X59116666Y-40016666D01*
X59116666Y-39750000D01*
X59150000Y-39683333D01*
X59183333Y-39650000D01*
X59250000Y-39616666D01*
X59350000Y-39616666D01*
X59416666Y-39650000D01*
X59450000Y-39683333D01*
X59483333Y-39750000D01*
X59483333Y-40016666D01*
X59816666Y-38950000D02*
X59816666Y-39350000D01*
X59816666Y-39150000D02*
X59116666Y-39150000D01*
X59216666Y-39216666D01*
X59283333Y-39283333D01*
X59316666Y-39350000D01*
X55933333Y-41383333D02*
X55866666Y-41350000D01*
X55800000Y-41283333D01*
X55700000Y-41183333D01*
X55633333Y-41150000D01*
X55566666Y-41150000D01*
X55600000Y-41316666D02*
X55533333Y-41283333D01*
X55466666Y-41216666D01*
X55433333Y-41083333D01*
X55433333Y-40850000D01*
X55466666Y-40716666D01*
X55533333Y-40650000D01*
X55600000Y-40616666D01*
X55733333Y-40616666D01*
X55800000Y-40650000D01*
X55866666Y-40716666D01*
X55900000Y-40850000D01*
X55900000Y-41083333D01*
X55866666Y-41216666D01*
X55800000Y-41283333D01*
X55733333Y-41316666D01*
X55600000Y-41316666D01*
X56166666Y-40683333D02*
X56200000Y-40650000D01*
X56266666Y-40616666D01*
X56433333Y-40616666D01*
X56500000Y-40650000D01*
X56533333Y-40683333D01*
X56566666Y-40750000D01*
X56566666Y-40816666D01*
X56533333Y-40916666D01*
X56133333Y-41316666D01*
X56566666Y-41316666D01*
X59433333Y-41383333D02*
X59366666Y-41350000D01*
X59300000Y-41283333D01*
X59200000Y-41183333D01*
X59133333Y-41150000D01*
X59066666Y-41150000D01*
X59100000Y-41316666D02*
X59033333Y-41283333D01*
X58966666Y-41216666D01*
X58933333Y-41083333D01*
X58933333Y-40850000D01*
X58966666Y-40716666D01*
X59033333Y-40650000D01*
X59100000Y-40616666D01*
X59233333Y-40616666D01*
X59300000Y-40650000D01*
X59366666Y-40716666D01*
X59400000Y-40850000D01*
X59400000Y-41083333D01*
X59366666Y-41216666D01*
X59300000Y-41283333D01*
X59233333Y-41316666D01*
X59100000Y-41316666D01*
X60066666Y-41316666D02*
X59666666Y-41316666D01*
X59866666Y-41316666D02*
X59866666Y-40616666D01*
X59800000Y-40716666D01*
X59733333Y-40783333D01*
X59666666Y-40816666D01*
X52816666Y-40016666D02*
X52116666Y-40016666D01*
X52116666Y-39850000D01*
X52150000Y-39750000D01*
X52216666Y-39683333D01*
X52283333Y-39650000D01*
X52416666Y-39616666D01*
X52516666Y-39616666D01*
X52650000Y-39650000D01*
X52716666Y-39683333D01*
X52783333Y-39750000D01*
X52816666Y-39850000D01*
X52816666Y-40016666D01*
X52816666Y-38950000D02*
X52816666Y-39350000D01*
X52816666Y-39150000D02*
X52116666Y-39150000D01*
X52216666Y-39216666D01*
X52283333Y-39283333D01*
X52316666Y-39350000D01*
X55250000Y-47950000D02*
X55283333Y-47983333D01*
X55316666Y-48083333D01*
X55316666Y-48150000D01*
X55283333Y-48250000D01*
X55216666Y-48316666D01*
X55150000Y-48350000D01*
X55016666Y-48383333D01*
X54916666Y-48383333D01*
X54783333Y-48350000D01*
X54716666Y-48316666D01*
X54650000Y-48250000D01*
X54616666Y-48150000D01*
X54616666Y-48083333D01*
X54650000Y-47983333D01*
X54683333Y-47950000D01*
X55316666Y-47283333D02*
X55316666Y-47683333D01*
X55316666Y-47483333D02*
X54616666Y-47483333D01*
X54716666Y-47550000D01*
X54783333Y-47616666D01*
X54816666Y-47683333D01*
X54683333Y-47016666D02*
X54650000Y-46983333D01*
X54616666Y-46916666D01*
X54616666Y-46750000D01*
X54650000Y-46683333D01*
X54683333Y-46650000D01*
X54750000Y-46616666D01*
X54816666Y-46616666D01*
X54916666Y-46650000D01*
X55316666Y-47050000D01*
X55316666Y-46616666D01*
X57383333Y-35250000D02*
X57350000Y-35283333D01*
X57250000Y-35316666D01*
X57183333Y-35316666D01*
X57083333Y-35283333D01*
X57016666Y-35216666D01*
X56983333Y-35150000D01*
X56950000Y-35016666D01*
X56950000Y-34916666D01*
X56983333Y-34783333D01*
X57016666Y-34716666D01*
X57083333Y-34650000D01*
X57183333Y-34616666D01*
X57250000Y-34616666D01*
X57350000Y-34650000D01*
X57383333Y-34683333D01*
X57983333Y-34850000D02*
X57983333Y-35316666D01*
X57816666Y-34583333D02*
X57650000Y-35083333D01*
X58083333Y-35083333D01*
X54750000Y-32116666D02*
X54783333Y-32150000D01*
X54816666Y-32250000D01*
X54816666Y-32316666D01*
X54783333Y-32416666D01*
X54716666Y-32483333D01*
X54650000Y-32516666D01*
X54516666Y-32550000D01*
X54416666Y-32550000D01*
X54283333Y-32516666D01*
X54216666Y-32483333D01*
X54150000Y-32416666D01*
X54116666Y-32316666D01*
X54116666Y-32250000D01*
X54150000Y-32150000D01*
X54183333Y-32116666D01*
X54183333Y-31850000D02*
X54150000Y-31816666D01*
X54116666Y-31750000D01*
X54116666Y-31583333D01*
X54150000Y-31516666D01*
X54183333Y-31483333D01*
X54250000Y-31450000D01*
X54316666Y-31450000D01*
X54416666Y-31483333D01*
X54816666Y-31883333D01*
X54816666Y-31450000D01*
X54750000Y-33616666D02*
X54783333Y-33650000D01*
X54816666Y-33750000D01*
X54816666Y-33816666D01*
X54783333Y-33916666D01*
X54716666Y-33983333D01*
X54650000Y-34016666D01*
X54516666Y-34050000D01*
X54416666Y-34050000D01*
X54283333Y-34016666D01*
X54216666Y-33983333D01*
X54150000Y-33916666D01*
X54116666Y-33816666D01*
X54116666Y-33750000D01*
X54150000Y-33650000D01*
X54183333Y-33616666D01*
X54816666Y-32950000D02*
X54816666Y-33350000D01*
X54816666Y-33150000D02*
X54116666Y-33150000D01*
X54216666Y-33216666D01*
X54283333Y-33283333D01*
X54316666Y-33350000D01*
X58966666Y-30616666D02*
X58966666Y-31183333D01*
X59000000Y-31250000D01*
X59033333Y-31283333D01*
X59100000Y-31316666D01*
X59233333Y-31316666D01*
X59300000Y-31283333D01*
X59333333Y-31250000D01*
X59366666Y-31183333D01*
X59366666Y-30616666D01*
X60000000Y-30850000D02*
X60000000Y-31316666D01*
X59833333Y-30583333D02*
X59666666Y-31083333D01*
X60100000Y-31083333D01*
D12*
X64116666Y-40383333D02*
X64116666Y-39983333D01*
X64816666Y-40183333D02*
X64116666Y-40183333D01*
X64816666Y-39750000D02*
X64116666Y-39750000D01*
X64116666Y-39483333D01*
X64150000Y-39416666D01*
X64183333Y-39383333D01*
X64250000Y-39350000D01*
X64350000Y-39350000D01*
X64416666Y-39383333D01*
X64450000Y-39416666D01*
X64483333Y-39483333D01*
X64483333Y-39750000D01*
X64816666Y-38683333D02*
X64816666Y-39083333D01*
X64816666Y-38883333D02*
X64116666Y-38883333D01*
X64216666Y-38950000D01*
X64283333Y-39016666D01*
X64316666Y-39083333D01*
M02*
