M48
; DRILL file {KiCad (5.1.10)-1} date 12/13/21 15:30:32
; FORMAT={-:-/ absolute / metric / decimal}
; #@! TF.CreationDate,2021-12-13T15:30:32+09:00
; #@! TF.GenerationSoftware,Kicad,Pcbnew,(5.1.10)-1
; #@! TF.FileFunction,Plated,1,2,PTH
FMAT,2
METRIC
T1C0.300
T2C0.400
%
G90
G05
T1
X33.3Y-35.0
X34.5Y-46.4
X34.6Y-32.6
X35.0Y-38.0
X35.9Y-42.3
X36.595Y-38.0
X38.8Y-33.7
X39.2Y-37.1
X43.3Y-37.8
X44.8Y-34.7
X45.0Y-35.9
X45.7Y-34.1
X45.7Y-36.0
X45.7Y-37.8
X47.5Y-42.2
X48.0Y-36.0
X48.5Y-32.5
X51.0Y-47.5
X51.9Y-38.1
X52.7Y-41.1
X53.275Y-32.675
X53.5Y-41.5
X55.0Y-43.0
X55.0Y-47.0
X55.6Y-45.9
X55.7Y-32.4
X57.0Y-30.7
X58.4Y-33.9
X59.5Y-31.0
X60.5Y-43.0
X61.1Y-47.1
X61.4Y-39.4
X61.8Y-42.4
X61.8Y-43.525
X62.525Y-31.725
X63.0Y-43.7
X63.5Y-36.8
X64.4Y-34.9
T2
G00X51.675Y-36.5
M15
G01X51.675Y-35.7
M16
G05
G00X54.5Y-36.5
M15
G01X53.9Y-36.5
M16
G05
G00X58.1Y-36.5
M15
G01X57.5Y-36.5
M16
G05
G00X60.325Y-36.5
M15
G01X60.325Y-35.7
M16
G05
T0
M30
