G04 #@! TF.GenerationSoftware,KiCad,Pcbnew,(5.1.10)-1*
G04 #@! TF.CreationDate,2021-12-13T15:30:26+09:00*
G04 #@! TF.ProjectId,cat_tracker,6361745f-7472-4616-936b-65722e6b6963,rev?*
G04 #@! TF.SameCoordinates,Original*
G04 #@! TF.FileFunction,Copper,L2,Bot*
G04 #@! TF.FilePolarity,Positive*
%FSLAX46Y46*%
G04 Gerber Fmt 4.6, Leading zero omitted, Abs format (unit mm)*
G04 Created by KiCad (PCBNEW (5.1.10)-1) date 2021-12-13 15:30:26*
%MOMM*%
%LPD*%
G01*
G04 APERTURE LIST*
G04 #@! TA.AperFunction,SMDPad,CuDef*
%ADD10O,1.350000X1.350000*%
G04 #@! TD*
G04 #@! TA.AperFunction,SMDPad,CuDef*
%ADD11R,1.350000X1.350000*%
G04 #@! TD*
G04 #@! TA.AperFunction,SMDPad,CuDef*
%ADD12R,1.500000X1.500000*%
G04 #@! TD*
G04 #@! TA.AperFunction,ComponentPad*
%ADD13O,2.000000X1.400000*%
G04 #@! TD*
G04 #@! TA.AperFunction,ComponentPad*
%ADD14O,1.400000X2.200000*%
G04 #@! TD*
G04 #@! TA.AperFunction,SMDPad,CuDef*
%ADD15R,0.900000X1.700000*%
G04 #@! TD*
G04 #@! TA.AperFunction,SMDPad,CuDef*
%ADD16R,1.700000X0.900000*%
G04 #@! TD*
G04 #@! TA.AperFunction,SMDPad,CuDef*
%ADD17R,1.060000X0.650000*%
G04 #@! TD*
G04 #@! TA.AperFunction,SMDPad,CuDef*
%ADD18R,0.900000X0.800000*%
G04 #@! TD*
G04 #@! TA.AperFunction,ViaPad*
%ADD19C,0.400000*%
G04 #@! TD*
G04 #@! TA.AperFunction,Conductor*
%ADD20C,0.400000*%
G04 #@! TD*
G04 #@! TA.AperFunction,Conductor*
%ADD21C,0.250000*%
G04 #@! TD*
G04 #@! TA.AperFunction,Conductor*
%ADD22C,0.100000*%
G04 #@! TD*
G04 APERTURE END LIST*
D10*
X35000000Y-40500000D03*
X37000000Y-40500000D03*
X39000000Y-40500000D03*
D11*
X41000000Y-40500000D03*
D12*
X31500000Y-34000000D03*
X31500000Y-32000000D03*
D13*
X54200000Y-36500000D03*
X57800000Y-36500000D03*
D14*
X51675000Y-36100000D03*
X60325000Y-36100000D03*
G04 #@! TA.AperFunction,SMDPad,CuDef*
G36*
G01*
X59425000Y-45775000D02*
X59425000Y-45225000D01*
G75*
G02*
X59625000Y-45025000I200000J0D01*
G01*
X60025000Y-45025000D01*
G75*
G02*
X60225000Y-45225000I0J-200000D01*
G01*
X60225000Y-45775000D01*
G75*
G02*
X60025000Y-45975000I-200000J0D01*
G01*
X59625000Y-45975000D01*
G75*
G02*
X59425000Y-45775000I0J200000D01*
G01*
G37*
G04 #@! TD.AperFunction*
G04 #@! TA.AperFunction,SMDPad,CuDef*
G36*
G01*
X57775000Y-45775000D02*
X57775000Y-45225000D01*
G75*
G02*
X57975000Y-45025000I200000J0D01*
G01*
X58375000Y-45025000D01*
G75*
G02*
X58575000Y-45225000I0J-200000D01*
G01*
X58575000Y-45775000D01*
G75*
G02*
X58375000Y-45975000I-200000J0D01*
G01*
X57975000Y-45975000D01*
G75*
G02*
X57775000Y-45775000I0J200000D01*
G01*
G37*
G04 #@! TD.AperFunction*
G04 #@! TA.AperFunction,SMDPad,CuDef*
G36*
G01*
X63775000Y-32575000D02*
X63225000Y-32575000D01*
G75*
G02*
X63025000Y-32375000I0J200000D01*
G01*
X63025000Y-31975000D01*
G75*
G02*
X63225000Y-31775000I200000J0D01*
G01*
X63775000Y-31775000D01*
G75*
G02*
X63975000Y-31975000I0J-200000D01*
G01*
X63975000Y-32375000D01*
G75*
G02*
X63775000Y-32575000I-200000J0D01*
G01*
G37*
G04 #@! TD.AperFunction*
G04 #@! TA.AperFunction,SMDPad,CuDef*
G36*
G01*
X63775000Y-34225000D02*
X63225000Y-34225000D01*
G75*
G02*
X63025000Y-34025000I0J200000D01*
G01*
X63025000Y-33625000D01*
G75*
G02*
X63225000Y-33425000I200000J0D01*
G01*
X63775000Y-33425000D01*
G75*
G02*
X63975000Y-33625000I0J-200000D01*
G01*
X63975000Y-34025000D01*
G75*
G02*
X63775000Y-34225000I-200000J0D01*
G01*
G37*
G04 #@! TD.AperFunction*
G04 #@! TA.AperFunction,SMDPad,CuDef*
G36*
G01*
X62075000Y-45725000D02*
X62075000Y-46275000D01*
G75*
G02*
X61875000Y-46475000I-200000J0D01*
G01*
X61475000Y-46475000D01*
G75*
G02*
X61275000Y-46275000I0J200000D01*
G01*
X61275000Y-45725000D01*
G75*
G02*
X61475000Y-45525000I200000J0D01*
G01*
X61875000Y-45525000D01*
G75*
G02*
X62075000Y-45725000I0J-200000D01*
G01*
G37*
G04 #@! TD.AperFunction*
G04 #@! TA.AperFunction,SMDPad,CuDef*
G36*
G01*
X63725000Y-45725000D02*
X63725000Y-46275000D01*
G75*
G02*
X63525000Y-46475000I-200000J0D01*
G01*
X63125000Y-46475000D01*
G75*
G02*
X62925000Y-46275000I0J200000D01*
G01*
X62925000Y-45725000D01*
G75*
G02*
X63125000Y-45525000I200000J0D01*
G01*
X63525000Y-45525000D01*
G75*
G02*
X63725000Y-45725000I0J-200000D01*
G01*
G37*
G04 #@! TD.AperFunction*
G04 #@! TA.AperFunction,SMDPad,CuDef*
G36*
G01*
X54775000Y-32075000D02*
X54225000Y-32075000D01*
G75*
G02*
X54025000Y-31875000I0J200000D01*
G01*
X54025000Y-31475000D01*
G75*
G02*
X54225000Y-31275000I200000J0D01*
G01*
X54775000Y-31275000D01*
G75*
G02*
X54975000Y-31475000I0J-200000D01*
G01*
X54975000Y-31875000D01*
G75*
G02*
X54775000Y-32075000I-200000J0D01*
G01*
G37*
G04 #@! TD.AperFunction*
G04 #@! TA.AperFunction,SMDPad,CuDef*
G36*
G01*
X54775000Y-33725000D02*
X54225000Y-33725000D01*
G75*
G02*
X54025000Y-33525000I0J200000D01*
G01*
X54025000Y-33125000D01*
G75*
G02*
X54225000Y-32925000I200000J0D01*
G01*
X54775000Y-32925000D01*
G75*
G02*
X54975000Y-33125000I0J-200000D01*
G01*
X54975000Y-33525000D01*
G75*
G02*
X54775000Y-33725000I-200000J0D01*
G01*
G37*
G04 #@! TD.AperFunction*
G04 #@! TA.AperFunction,SMDPad,CuDef*
G36*
G01*
X59325000Y-47250000D02*
X59325000Y-46750000D01*
G75*
G02*
X59550000Y-46525000I225000J0D01*
G01*
X60000000Y-46525000D01*
G75*
G02*
X60225000Y-46750000I0J-225000D01*
G01*
X60225000Y-47250000D01*
G75*
G02*
X60000000Y-47475000I-225000J0D01*
G01*
X59550000Y-47475000D01*
G75*
G02*
X59325000Y-47250000I0J225000D01*
G01*
G37*
G04 #@! TD.AperFunction*
G04 #@! TA.AperFunction,SMDPad,CuDef*
G36*
G01*
X57775000Y-47250000D02*
X57775000Y-46750000D01*
G75*
G02*
X58000000Y-46525000I225000J0D01*
G01*
X58450000Y-46525000D01*
G75*
G02*
X58675000Y-46750000I0J-225000D01*
G01*
X58675000Y-47250000D01*
G75*
G02*
X58450000Y-47475000I-225000J0D01*
G01*
X58000000Y-47475000D01*
G75*
G02*
X57775000Y-47250000I0J225000D01*
G01*
G37*
G04 #@! TD.AperFunction*
G04 #@! TA.AperFunction,SMDPad,CuDef*
G36*
G01*
X37825000Y-36250000D02*
X37825000Y-35750000D01*
G75*
G02*
X38050000Y-35525000I225000J0D01*
G01*
X38500000Y-35525000D01*
G75*
G02*
X38725000Y-35750000I0J-225000D01*
G01*
X38725000Y-36250000D01*
G75*
G02*
X38500000Y-36475000I-225000J0D01*
G01*
X38050000Y-36475000D01*
G75*
G02*
X37825000Y-36250000I0J225000D01*
G01*
G37*
G04 #@! TD.AperFunction*
G04 #@! TA.AperFunction,SMDPad,CuDef*
G36*
G01*
X36275000Y-36250000D02*
X36275000Y-35750000D01*
G75*
G02*
X36500000Y-35525000I225000J0D01*
G01*
X36950000Y-35525000D01*
G75*
G02*
X37175000Y-35750000I0J-225000D01*
G01*
X37175000Y-36250000D01*
G75*
G02*
X36950000Y-36475000I-225000J0D01*
G01*
X36500000Y-36475000D01*
G75*
G02*
X36275000Y-36250000I0J225000D01*
G01*
G37*
G04 #@! TD.AperFunction*
G04 #@! TA.AperFunction,SMDPad,CuDef*
G36*
G01*
X46175000Y-34750000D02*
X46175000Y-35250000D01*
G75*
G02*
X45950000Y-35475000I-225000J0D01*
G01*
X45500000Y-35475000D01*
G75*
G02*
X45275000Y-35250000I0J225000D01*
G01*
X45275000Y-34750000D01*
G75*
G02*
X45500000Y-34525000I225000J0D01*
G01*
X45950000Y-34525000D01*
G75*
G02*
X46175000Y-34750000I0J-225000D01*
G01*
G37*
G04 #@! TD.AperFunction*
G04 #@! TA.AperFunction,SMDPad,CuDef*
G36*
G01*
X47725000Y-34750000D02*
X47725000Y-35250000D01*
G75*
G02*
X47500000Y-35475000I-225000J0D01*
G01*
X47050000Y-35475000D01*
G75*
G02*
X46825000Y-35250000I0J225000D01*
G01*
X46825000Y-34750000D01*
G75*
G02*
X47050000Y-34525000I225000J0D01*
G01*
X47500000Y-34525000D01*
G75*
G02*
X47725000Y-34750000I0J-225000D01*
G01*
G37*
G04 #@! TD.AperFunction*
G04 #@! TA.AperFunction,SMDPad,CuDef*
G36*
G01*
X46825000Y-37250000D02*
X46825000Y-36750000D01*
G75*
G02*
X47050000Y-36525000I225000J0D01*
G01*
X47500000Y-36525000D01*
G75*
G02*
X47725000Y-36750000I0J-225000D01*
G01*
X47725000Y-37250000D01*
G75*
G02*
X47500000Y-37475000I-225000J0D01*
G01*
X47050000Y-37475000D01*
G75*
G02*
X46825000Y-37250000I0J225000D01*
G01*
G37*
G04 #@! TD.AperFunction*
G04 #@! TA.AperFunction,SMDPad,CuDef*
G36*
G01*
X45275000Y-37250000D02*
X45275000Y-36750000D01*
G75*
G02*
X45500000Y-36525000I225000J0D01*
G01*
X45950000Y-36525000D01*
G75*
G02*
X46175000Y-36750000I0J-225000D01*
G01*
X46175000Y-37250000D01*
G75*
G02*
X45950000Y-37475000I-225000J0D01*
G01*
X45500000Y-37475000D01*
G75*
G02*
X45275000Y-37250000I0J225000D01*
G01*
G37*
G04 #@! TD.AperFunction*
G04 #@! TA.AperFunction,SMDPad,CuDef*
G36*
G01*
X46825000Y-33250000D02*
X46825000Y-32750000D01*
G75*
G02*
X47050000Y-32525000I225000J0D01*
G01*
X47500000Y-32525000D01*
G75*
G02*
X47725000Y-32750000I0J-225000D01*
G01*
X47725000Y-33250000D01*
G75*
G02*
X47500000Y-33475000I-225000J0D01*
G01*
X47050000Y-33475000D01*
G75*
G02*
X46825000Y-33250000I0J225000D01*
G01*
G37*
G04 #@! TD.AperFunction*
G04 #@! TA.AperFunction,SMDPad,CuDef*
G36*
G01*
X45275000Y-33250000D02*
X45275000Y-32750000D01*
G75*
G02*
X45500000Y-32525000I225000J0D01*
G01*
X45950000Y-32525000D01*
G75*
G02*
X46175000Y-32750000I0J-225000D01*
G01*
X46175000Y-33250000D01*
G75*
G02*
X45950000Y-33475000I-225000J0D01*
G01*
X45500000Y-33475000D01*
G75*
G02*
X45275000Y-33250000I0J225000D01*
G01*
G37*
G04 #@! TD.AperFunction*
G04 #@! TA.AperFunction,SMDPad,CuDef*
G36*
G01*
X62825000Y-44750000D02*
X62825000Y-44250000D01*
G75*
G02*
X63050000Y-44025000I225000J0D01*
G01*
X63500000Y-44025000D01*
G75*
G02*
X63725000Y-44250000I0J-225000D01*
G01*
X63725000Y-44750000D01*
G75*
G02*
X63500000Y-44975000I-225000J0D01*
G01*
X63050000Y-44975000D01*
G75*
G02*
X62825000Y-44750000I0J225000D01*
G01*
G37*
G04 #@! TD.AperFunction*
G04 #@! TA.AperFunction,SMDPad,CuDef*
G36*
G01*
X61275000Y-44750000D02*
X61275000Y-44250000D01*
G75*
G02*
X61500000Y-44025000I225000J0D01*
G01*
X61950000Y-44025000D01*
G75*
G02*
X62175000Y-44250000I0J-225000D01*
G01*
X62175000Y-44750000D01*
G75*
G02*
X61950000Y-44975000I-225000J0D01*
G01*
X61500000Y-44975000D01*
G75*
G02*
X61275000Y-44750000I0J225000D01*
G01*
G37*
G04 #@! TD.AperFunction*
G04 #@! TA.AperFunction,SMDPad,CuDef*
G36*
G01*
X60750000Y-32825000D02*
X61250000Y-32825000D01*
G75*
G02*
X61475000Y-33050000I0J-225000D01*
G01*
X61475000Y-33500000D01*
G75*
G02*
X61250000Y-33725000I-225000J0D01*
G01*
X60750000Y-33725000D01*
G75*
G02*
X60525000Y-33500000I0J225000D01*
G01*
X60525000Y-33050000D01*
G75*
G02*
X60750000Y-32825000I225000J0D01*
G01*
G37*
G04 #@! TD.AperFunction*
G04 #@! TA.AperFunction,SMDPad,CuDef*
G36*
G01*
X60750000Y-31275000D02*
X61250000Y-31275000D01*
G75*
G02*
X61475000Y-31500000I0J-225000D01*
G01*
X61475000Y-31950000D01*
G75*
G02*
X61250000Y-32175000I-225000J0D01*
G01*
X60750000Y-32175000D01*
G75*
G02*
X60525000Y-31950000I0J225000D01*
G01*
X60525000Y-31500000D01*
G75*
G02*
X60750000Y-31275000I225000J0D01*
G01*
G37*
G04 #@! TD.AperFunction*
G04 #@! TA.AperFunction,SMDPad,CuDef*
G36*
G01*
X33250000Y-33325000D02*
X33750000Y-33325000D01*
G75*
G02*
X33975000Y-33550000I0J-225000D01*
G01*
X33975000Y-34000000D01*
G75*
G02*
X33750000Y-34225000I-225000J0D01*
G01*
X33250000Y-34225000D01*
G75*
G02*
X33025000Y-34000000I0J225000D01*
G01*
X33025000Y-33550000D01*
G75*
G02*
X33250000Y-33325000I225000J0D01*
G01*
G37*
G04 #@! TD.AperFunction*
G04 #@! TA.AperFunction,SMDPad,CuDef*
G36*
G01*
X33250000Y-31775000D02*
X33750000Y-31775000D01*
G75*
G02*
X33975000Y-32000000I0J-225000D01*
G01*
X33975000Y-32450000D01*
G75*
G02*
X33750000Y-32675000I-225000J0D01*
G01*
X33250000Y-32675000D01*
G75*
G02*
X33025000Y-32450000I0J225000D01*
G01*
X33025000Y-32000000D01*
G75*
G02*
X33250000Y-31775000I225000J0D01*
G01*
G37*
G04 #@! TD.AperFunction*
D15*
X56300000Y-43000000D03*
X59700000Y-43000000D03*
D16*
X63000000Y-41200000D03*
X63000000Y-37800000D03*
G04 #@! TA.AperFunction,SMDPad,CuDef*
G36*
G01*
X40475000Y-33675000D02*
X40475000Y-33825000D01*
G75*
G02*
X40400000Y-33900000I-75000J0D01*
G01*
X39700000Y-33900000D01*
G75*
G02*
X39625000Y-33825000I0J75000D01*
G01*
X39625000Y-33675000D01*
G75*
G02*
X39700000Y-33600000I75000J0D01*
G01*
X40400000Y-33600000D01*
G75*
G02*
X40475000Y-33675000I0J-75000D01*
G01*
G37*
G04 #@! TD.AperFunction*
G04 #@! TA.AperFunction,SMDPad,CuDef*
G36*
G01*
X40475000Y-34175000D02*
X40475000Y-34325000D01*
G75*
G02*
X40400000Y-34400000I-75000J0D01*
G01*
X39700000Y-34400000D01*
G75*
G02*
X39625000Y-34325000I0J75000D01*
G01*
X39625000Y-34175000D01*
G75*
G02*
X39700000Y-34100000I75000J0D01*
G01*
X40400000Y-34100000D01*
G75*
G02*
X40475000Y-34175000I0J-75000D01*
G01*
G37*
G04 #@! TD.AperFunction*
G04 #@! TA.AperFunction,SMDPad,CuDef*
G36*
G01*
X40475000Y-34675000D02*
X40475000Y-34825000D01*
G75*
G02*
X40400000Y-34900000I-75000J0D01*
G01*
X39700000Y-34900000D01*
G75*
G02*
X39625000Y-34825000I0J75000D01*
G01*
X39625000Y-34675000D01*
G75*
G02*
X39700000Y-34600000I75000J0D01*
G01*
X40400000Y-34600000D01*
G75*
G02*
X40475000Y-34675000I0J-75000D01*
G01*
G37*
G04 #@! TD.AperFunction*
G04 #@! TA.AperFunction,SMDPad,CuDef*
G36*
G01*
X40475000Y-35175000D02*
X40475000Y-35325000D01*
G75*
G02*
X40400000Y-35400000I-75000J0D01*
G01*
X39700000Y-35400000D01*
G75*
G02*
X39625000Y-35325000I0J75000D01*
G01*
X39625000Y-35175000D01*
G75*
G02*
X39700000Y-35100000I75000J0D01*
G01*
X40400000Y-35100000D01*
G75*
G02*
X40475000Y-35175000I0J-75000D01*
G01*
G37*
G04 #@! TD.AperFunction*
G04 #@! TA.AperFunction,SMDPad,CuDef*
G36*
G01*
X40475000Y-35675000D02*
X40475000Y-35825000D01*
G75*
G02*
X40400000Y-35900000I-75000J0D01*
G01*
X39700000Y-35900000D01*
G75*
G02*
X39625000Y-35825000I0J75000D01*
G01*
X39625000Y-35675000D01*
G75*
G02*
X39700000Y-35600000I75000J0D01*
G01*
X40400000Y-35600000D01*
G75*
G02*
X40475000Y-35675000I0J-75000D01*
G01*
G37*
G04 #@! TD.AperFunction*
G04 #@! TA.AperFunction,SMDPad,CuDef*
G36*
G01*
X40475000Y-36175000D02*
X40475000Y-36325000D01*
G75*
G02*
X40400000Y-36400000I-75000J0D01*
G01*
X39700000Y-36400000D01*
G75*
G02*
X39625000Y-36325000I0J75000D01*
G01*
X39625000Y-36175000D01*
G75*
G02*
X39700000Y-36100000I75000J0D01*
G01*
X40400000Y-36100000D01*
G75*
G02*
X40475000Y-36175000I0J-75000D01*
G01*
G37*
G04 #@! TD.AperFunction*
G04 #@! TA.AperFunction,SMDPad,CuDef*
G36*
G01*
X40675000Y-36525000D02*
X40825000Y-36525000D01*
G75*
G02*
X40900000Y-36600000I0J-75000D01*
G01*
X40900000Y-37300000D01*
G75*
G02*
X40825000Y-37375000I-75000J0D01*
G01*
X40675000Y-37375000D01*
G75*
G02*
X40600000Y-37300000I0J75000D01*
G01*
X40600000Y-36600000D01*
G75*
G02*
X40675000Y-36525000I75000J0D01*
G01*
G37*
G04 #@! TD.AperFunction*
G04 #@! TA.AperFunction,SMDPad,CuDef*
G36*
G01*
X41175000Y-36525000D02*
X41325000Y-36525000D01*
G75*
G02*
X41400000Y-36600000I0J-75000D01*
G01*
X41400000Y-37300000D01*
G75*
G02*
X41325000Y-37375000I-75000J0D01*
G01*
X41175000Y-37375000D01*
G75*
G02*
X41100000Y-37300000I0J75000D01*
G01*
X41100000Y-36600000D01*
G75*
G02*
X41175000Y-36525000I75000J0D01*
G01*
G37*
G04 #@! TD.AperFunction*
G04 #@! TA.AperFunction,SMDPad,CuDef*
G36*
G01*
X41675000Y-36525000D02*
X41825000Y-36525000D01*
G75*
G02*
X41900000Y-36600000I0J-75000D01*
G01*
X41900000Y-37300000D01*
G75*
G02*
X41825000Y-37375000I-75000J0D01*
G01*
X41675000Y-37375000D01*
G75*
G02*
X41600000Y-37300000I0J75000D01*
G01*
X41600000Y-36600000D01*
G75*
G02*
X41675000Y-36525000I75000J0D01*
G01*
G37*
G04 #@! TD.AperFunction*
G04 #@! TA.AperFunction,SMDPad,CuDef*
G36*
G01*
X42175000Y-36525000D02*
X42325000Y-36525000D01*
G75*
G02*
X42400000Y-36600000I0J-75000D01*
G01*
X42400000Y-37300000D01*
G75*
G02*
X42325000Y-37375000I-75000J0D01*
G01*
X42175000Y-37375000D01*
G75*
G02*
X42100000Y-37300000I0J75000D01*
G01*
X42100000Y-36600000D01*
G75*
G02*
X42175000Y-36525000I75000J0D01*
G01*
G37*
G04 #@! TD.AperFunction*
G04 #@! TA.AperFunction,SMDPad,CuDef*
G36*
G01*
X42675000Y-36525000D02*
X42825000Y-36525000D01*
G75*
G02*
X42900000Y-36600000I0J-75000D01*
G01*
X42900000Y-37300000D01*
G75*
G02*
X42825000Y-37375000I-75000J0D01*
G01*
X42675000Y-37375000D01*
G75*
G02*
X42600000Y-37300000I0J75000D01*
G01*
X42600000Y-36600000D01*
G75*
G02*
X42675000Y-36525000I75000J0D01*
G01*
G37*
G04 #@! TD.AperFunction*
G04 #@! TA.AperFunction,SMDPad,CuDef*
G36*
G01*
X43175000Y-36525000D02*
X43325000Y-36525000D01*
G75*
G02*
X43400000Y-36600000I0J-75000D01*
G01*
X43400000Y-37300000D01*
G75*
G02*
X43325000Y-37375000I-75000J0D01*
G01*
X43175000Y-37375000D01*
G75*
G02*
X43100000Y-37300000I0J75000D01*
G01*
X43100000Y-36600000D01*
G75*
G02*
X43175000Y-36525000I75000J0D01*
G01*
G37*
G04 #@! TD.AperFunction*
G04 #@! TA.AperFunction,SMDPad,CuDef*
G36*
G01*
X44375000Y-36175000D02*
X44375000Y-36325000D01*
G75*
G02*
X44300000Y-36400000I-75000J0D01*
G01*
X43600000Y-36400000D01*
G75*
G02*
X43525000Y-36325000I0J75000D01*
G01*
X43525000Y-36175000D01*
G75*
G02*
X43600000Y-36100000I75000J0D01*
G01*
X44300000Y-36100000D01*
G75*
G02*
X44375000Y-36175000I0J-75000D01*
G01*
G37*
G04 #@! TD.AperFunction*
G04 #@! TA.AperFunction,SMDPad,CuDef*
G36*
G01*
X44375000Y-35675000D02*
X44375000Y-35825000D01*
G75*
G02*
X44300000Y-35900000I-75000J0D01*
G01*
X43600000Y-35900000D01*
G75*
G02*
X43525000Y-35825000I0J75000D01*
G01*
X43525000Y-35675000D01*
G75*
G02*
X43600000Y-35600000I75000J0D01*
G01*
X44300000Y-35600000D01*
G75*
G02*
X44375000Y-35675000I0J-75000D01*
G01*
G37*
G04 #@! TD.AperFunction*
G04 #@! TA.AperFunction,SMDPad,CuDef*
G36*
G01*
X44375000Y-35175000D02*
X44375000Y-35325000D01*
G75*
G02*
X44300000Y-35400000I-75000J0D01*
G01*
X43600000Y-35400000D01*
G75*
G02*
X43525000Y-35325000I0J75000D01*
G01*
X43525000Y-35175000D01*
G75*
G02*
X43600000Y-35100000I75000J0D01*
G01*
X44300000Y-35100000D01*
G75*
G02*
X44375000Y-35175000I0J-75000D01*
G01*
G37*
G04 #@! TD.AperFunction*
G04 #@! TA.AperFunction,SMDPad,CuDef*
G36*
G01*
X44375000Y-34675000D02*
X44375000Y-34825000D01*
G75*
G02*
X44300000Y-34900000I-75000J0D01*
G01*
X43600000Y-34900000D01*
G75*
G02*
X43525000Y-34825000I0J75000D01*
G01*
X43525000Y-34675000D01*
G75*
G02*
X43600000Y-34600000I75000J0D01*
G01*
X44300000Y-34600000D01*
G75*
G02*
X44375000Y-34675000I0J-75000D01*
G01*
G37*
G04 #@! TD.AperFunction*
G04 #@! TA.AperFunction,SMDPad,CuDef*
G36*
G01*
X44375000Y-34175000D02*
X44375000Y-34325000D01*
G75*
G02*
X44300000Y-34400000I-75000J0D01*
G01*
X43600000Y-34400000D01*
G75*
G02*
X43525000Y-34325000I0J75000D01*
G01*
X43525000Y-34175000D01*
G75*
G02*
X43600000Y-34100000I75000J0D01*
G01*
X44300000Y-34100000D01*
G75*
G02*
X44375000Y-34175000I0J-75000D01*
G01*
G37*
G04 #@! TD.AperFunction*
G04 #@! TA.AperFunction,SMDPad,CuDef*
G36*
G01*
X44375000Y-33675000D02*
X44375000Y-33825000D01*
G75*
G02*
X44300000Y-33900000I-75000J0D01*
G01*
X43600000Y-33900000D01*
G75*
G02*
X43525000Y-33825000I0J75000D01*
G01*
X43525000Y-33675000D01*
G75*
G02*
X43600000Y-33600000I75000J0D01*
G01*
X44300000Y-33600000D01*
G75*
G02*
X44375000Y-33675000I0J-75000D01*
G01*
G37*
G04 #@! TD.AperFunction*
G04 #@! TA.AperFunction,SMDPad,CuDef*
G36*
G01*
X43175000Y-32625000D02*
X43325000Y-32625000D01*
G75*
G02*
X43400000Y-32700000I0J-75000D01*
G01*
X43400000Y-33400000D01*
G75*
G02*
X43325000Y-33475000I-75000J0D01*
G01*
X43175000Y-33475000D01*
G75*
G02*
X43100000Y-33400000I0J75000D01*
G01*
X43100000Y-32700000D01*
G75*
G02*
X43175000Y-32625000I75000J0D01*
G01*
G37*
G04 #@! TD.AperFunction*
G04 #@! TA.AperFunction,SMDPad,CuDef*
G36*
G01*
X42675000Y-32625000D02*
X42825000Y-32625000D01*
G75*
G02*
X42900000Y-32700000I0J-75000D01*
G01*
X42900000Y-33400000D01*
G75*
G02*
X42825000Y-33475000I-75000J0D01*
G01*
X42675000Y-33475000D01*
G75*
G02*
X42600000Y-33400000I0J75000D01*
G01*
X42600000Y-32700000D01*
G75*
G02*
X42675000Y-32625000I75000J0D01*
G01*
G37*
G04 #@! TD.AperFunction*
G04 #@! TA.AperFunction,SMDPad,CuDef*
G36*
G01*
X42175000Y-32625000D02*
X42325000Y-32625000D01*
G75*
G02*
X42400000Y-32700000I0J-75000D01*
G01*
X42400000Y-33400000D01*
G75*
G02*
X42325000Y-33475000I-75000J0D01*
G01*
X42175000Y-33475000D01*
G75*
G02*
X42100000Y-33400000I0J75000D01*
G01*
X42100000Y-32700000D01*
G75*
G02*
X42175000Y-32625000I75000J0D01*
G01*
G37*
G04 #@! TD.AperFunction*
G04 #@! TA.AperFunction,SMDPad,CuDef*
G36*
G01*
X41675000Y-32625000D02*
X41825000Y-32625000D01*
G75*
G02*
X41900000Y-32700000I0J-75000D01*
G01*
X41900000Y-33400000D01*
G75*
G02*
X41825000Y-33475000I-75000J0D01*
G01*
X41675000Y-33475000D01*
G75*
G02*
X41600000Y-33400000I0J75000D01*
G01*
X41600000Y-32700000D01*
G75*
G02*
X41675000Y-32625000I75000J0D01*
G01*
G37*
G04 #@! TD.AperFunction*
G04 #@! TA.AperFunction,SMDPad,CuDef*
G36*
G01*
X41175000Y-32625000D02*
X41325000Y-32625000D01*
G75*
G02*
X41400000Y-32700000I0J-75000D01*
G01*
X41400000Y-33400000D01*
G75*
G02*
X41325000Y-33475000I-75000J0D01*
G01*
X41175000Y-33475000D01*
G75*
G02*
X41100000Y-33400000I0J75000D01*
G01*
X41100000Y-32700000D01*
G75*
G02*
X41175000Y-32625000I75000J0D01*
G01*
G37*
G04 #@! TD.AperFunction*
G04 #@! TA.AperFunction,SMDPad,CuDef*
G36*
G01*
X40675000Y-32625000D02*
X40825000Y-32625000D01*
G75*
G02*
X40900000Y-32700000I0J-75000D01*
G01*
X40900000Y-33400000D01*
G75*
G02*
X40825000Y-33475000I-75000J0D01*
G01*
X40675000Y-33475000D01*
G75*
G02*
X40600000Y-33400000I0J75000D01*
G01*
X40600000Y-32700000D01*
G75*
G02*
X40675000Y-32625000I75000J0D01*
G01*
G37*
G04 #@! TD.AperFunction*
D17*
X52100000Y-33450000D03*
X52100000Y-31550000D03*
X49900000Y-31550000D03*
X49900000Y-32500000D03*
X49900000Y-33450000D03*
D18*
X59000000Y-32500000D03*
X57000000Y-31550000D03*
X57000000Y-33450000D03*
D19*
X53275000Y-32675000D03*
X44800000Y-34700000D03*
X61400000Y-39400000D03*
X61100000Y-47100000D03*
X63000000Y-43700000D03*
X39200000Y-37100000D03*
X51000000Y-47500000D03*
X45000000Y-35900000D03*
X35900000Y-42300000D03*
X59500000Y-31000000D03*
X48500000Y-32500000D03*
X57000000Y-30700000D03*
X62525000Y-31725000D03*
X43300000Y-37800000D03*
X45700000Y-37800000D03*
X45700000Y-36000000D03*
X45700000Y-34100000D03*
X60500000Y-43000000D03*
X48000000Y-36000000D03*
X51900000Y-38100000D03*
X64400000Y-34900000D03*
X61800000Y-42400000D03*
X61800000Y-43525000D03*
X47500000Y-42200000D03*
X53500000Y-41500000D03*
X36594998Y-38000000D03*
X35000000Y-38000000D03*
X52700000Y-41100000D03*
X34500000Y-46400000D03*
X55700000Y-32400000D03*
X63500000Y-36800000D03*
X34600000Y-32600000D03*
X38800000Y-33700000D03*
X33300000Y-35000000D03*
X55600000Y-45900000D03*
X58400000Y-33900000D03*
X55000000Y-47000000D03*
X55000000Y-43000000D03*
D20*
X52150000Y-31550000D02*
X53275000Y-32675000D01*
X52100000Y-31550000D02*
X52150000Y-31550000D01*
D21*
X44750000Y-34750000D02*
X44800000Y-34700000D01*
X43950000Y-34750000D02*
X44750000Y-34750000D01*
X48000000Y-33000000D02*
X47275000Y-33000000D01*
X47275000Y-33000000D02*
X47275000Y-37000000D01*
X48500000Y-32500000D02*
X48500000Y-32500000D01*
X60700000Y-39400000D02*
X61400000Y-39400000D01*
X59875000Y-47100000D02*
X59775000Y-47000000D01*
X61100000Y-47100000D02*
X59875000Y-47100000D01*
X63275000Y-43975000D02*
X63000000Y-43700000D01*
X63275000Y-44500000D02*
X63275000Y-43975000D01*
X31725000Y-33775000D02*
X31500000Y-34000000D01*
X33500000Y-33775000D02*
X31725000Y-33775000D01*
X44850000Y-35750000D02*
X45000000Y-35900000D01*
X43950000Y-35750000D02*
X44850000Y-35750000D01*
X61000000Y-33275000D02*
X59225000Y-33275000D01*
X59000000Y-33050000D02*
X59000000Y-32500000D01*
X59225000Y-33275000D02*
X59000000Y-33050000D01*
X48500000Y-32500000D02*
X49900000Y-32500000D01*
D20*
X33275000Y-32000000D02*
X33500000Y-32225000D01*
X31500000Y-32000000D02*
X33275000Y-32000000D01*
X33500000Y-32225000D02*
X33500000Y-32000000D01*
X33500000Y-32000000D02*
X34500000Y-31000000D01*
X34500000Y-31000000D02*
X48500000Y-31000000D01*
X49050000Y-31550000D02*
X49900000Y-31550000D01*
X48500000Y-31000000D02*
X49050000Y-31550000D01*
X49900000Y-31550000D02*
X50350000Y-31550000D01*
X50350000Y-31550000D02*
X51200000Y-30700000D01*
X57000000Y-31550000D02*
X57000000Y-30700000D01*
X51200000Y-30700000D02*
X57000000Y-30700000D01*
D21*
X63050000Y-31725000D02*
X63500000Y-32175000D01*
X62525000Y-31725000D02*
X63050000Y-31725000D01*
X61000000Y-31725000D02*
X62525000Y-31725000D01*
X43250000Y-37750000D02*
X43300000Y-37800000D01*
X43250000Y-36950000D02*
X43250000Y-37750000D01*
X45700000Y-37025000D02*
X45725000Y-37000000D01*
X45700000Y-37800000D02*
X45700000Y-37025000D01*
X45725000Y-36025000D02*
X45700000Y-36000000D01*
X45725000Y-37000000D02*
X45725000Y-36025000D01*
X45700000Y-33025000D02*
X45725000Y-33000000D01*
X45700000Y-34100000D02*
X45700000Y-33025000D01*
X44590702Y-34100000D02*
X45700000Y-34100000D01*
X44440702Y-34250000D02*
X44590702Y-34100000D01*
X43950000Y-34250000D02*
X44440702Y-34250000D01*
X64400000Y-33075000D02*
X63500000Y-32175000D01*
X64400000Y-34200000D02*
X64400000Y-33075000D01*
X64400000Y-41685002D02*
X63085002Y-43000000D01*
X59825000Y-43125000D02*
X59700000Y-43000000D01*
X59825000Y-45500000D02*
X59825000Y-43125000D01*
X60500000Y-43000000D02*
X59700000Y-43000000D01*
X63085002Y-43000000D02*
X60500000Y-43000000D01*
X43000000Y-40500000D02*
X45700000Y-37800000D01*
X41000000Y-40500000D02*
X43000000Y-40500000D01*
X48000000Y-36000000D02*
X49100000Y-36000000D01*
X51200000Y-38100000D02*
X51900000Y-38100000D01*
X49100000Y-36000000D02*
X51200000Y-38100000D01*
X64400000Y-34900000D02*
X64400000Y-41685002D01*
X64400000Y-34200000D02*
X64400000Y-34900000D01*
X63000000Y-41200000D02*
X61800000Y-42400000D01*
X61800000Y-44425000D02*
X61725000Y-44500000D01*
X61800000Y-43525000D02*
X61800000Y-44425000D01*
X61725000Y-45950000D02*
X61675000Y-46000000D01*
X61725000Y-44500000D02*
X61725000Y-45950000D01*
X38525000Y-35750000D02*
X38275000Y-36000000D01*
X40050000Y-35750000D02*
X38525000Y-35750000D01*
X47500000Y-42200000D02*
X51200000Y-42200000D01*
X52800000Y-42200000D02*
X53500000Y-41500000D01*
X51200000Y-42200000D02*
X52800000Y-42200000D01*
X37000000Y-38405002D02*
X36594998Y-38000000D01*
X37000000Y-40500000D02*
X37000000Y-38405002D01*
X35000000Y-38000000D02*
X35000000Y-40500000D01*
X49900000Y-33450000D02*
X50150000Y-33450000D01*
X50150000Y-33450000D02*
X51100000Y-34400000D01*
X51100000Y-34400000D02*
X52200000Y-34400000D01*
X52200000Y-34400000D02*
X52800000Y-35000000D01*
X52800000Y-41000000D02*
X52700000Y-41100000D01*
X52800000Y-35000000D02*
X52800000Y-41000000D01*
X54375000Y-33450000D02*
X54500000Y-33325000D01*
X52100000Y-33450000D02*
X54375000Y-33450000D01*
X34500000Y-46400000D02*
X36600000Y-48500000D01*
X60825000Y-48500000D02*
X63325000Y-46000000D01*
X58175000Y-48475000D02*
X58200000Y-48500000D01*
X58175000Y-45500000D02*
X58175000Y-48475000D01*
X58200000Y-48500000D02*
X60825000Y-48500000D01*
X36600000Y-48500000D02*
X58200000Y-48500000D01*
X55700000Y-33800000D02*
X55700000Y-32400000D01*
X56325001Y-34425001D02*
X55700000Y-33800000D01*
X58652001Y-34425001D02*
X56325001Y-34425001D01*
X58877002Y-34200000D02*
X58652001Y-34425001D01*
X63125000Y-34200000D02*
X58877002Y-34200000D01*
X63500000Y-33825000D02*
X63125000Y-34200000D01*
X63500000Y-33825000D02*
X63500000Y-36800000D01*
X36250000Y-34250000D02*
X34600000Y-32600000D01*
X40050000Y-34250000D02*
X36250000Y-34250000D01*
X38850000Y-33750000D02*
X38800000Y-33700000D01*
X40050000Y-33750000D02*
X38850000Y-33750000D01*
X43950000Y-36250000D02*
X44450000Y-36250000D01*
X44450000Y-36250000D02*
X44700000Y-36500000D01*
X44700000Y-36500000D02*
X44700000Y-37200000D01*
X44700000Y-37200000D02*
X43500000Y-38400000D01*
X43500000Y-38400000D02*
X39100000Y-38400000D01*
X39100000Y-38400000D02*
X37900000Y-37200000D01*
X37900000Y-37200000D02*
X35500000Y-37200000D01*
X35500000Y-37200000D02*
X33300000Y-35000000D01*
X45475000Y-35250000D02*
X45725000Y-35000000D01*
X43950000Y-35250000D02*
X45475000Y-35250000D01*
X55600000Y-45900000D02*
X56300000Y-45200000D01*
X56300000Y-43000000D02*
X56300000Y-45200000D01*
X57950000Y-33450000D02*
X58400000Y-33900000D01*
X57000000Y-33450000D02*
X57950000Y-33450000D01*
X55000000Y-47000000D02*
X55000000Y-43000000D01*
X64596000Y-46480239D02*
X64554181Y-46906740D01*
X64436058Y-47297983D01*
X64244190Y-47658835D01*
X63985885Y-47975549D01*
X63670985Y-48236056D01*
X63311481Y-48430440D01*
X62921068Y-48551292D01*
X62495698Y-48596000D01*
X61441763Y-48596000D01*
X63181931Y-46855833D01*
X63525000Y-46855833D01*
X63638315Y-46844672D01*
X63747275Y-46811620D01*
X63847694Y-46757945D01*
X63935711Y-46685711D01*
X64007945Y-46597694D01*
X64061620Y-46497275D01*
X64094672Y-46388315D01*
X64105833Y-46275000D01*
X64105833Y-45725000D01*
X64094672Y-45611685D01*
X64064256Y-45511415D01*
X64078378Y-45503867D01*
X64174764Y-45424764D01*
X64253867Y-45328378D01*
X64312646Y-45218411D01*
X64348841Y-45099090D01*
X64361063Y-44975000D01*
X64358000Y-44660250D01*
X64199750Y-44502000D01*
X63277000Y-44502000D01*
X63277000Y-44522000D01*
X63273000Y-44522000D01*
X63273000Y-44502000D01*
X63253000Y-44502000D01*
X63253000Y-44498000D01*
X63273000Y-44498000D01*
X63273000Y-44478000D01*
X63277000Y-44478000D01*
X63277000Y-44498000D01*
X64199750Y-44498000D01*
X64358000Y-44339750D01*
X64361063Y-44025000D01*
X64348841Y-43900910D01*
X64312646Y-43781589D01*
X64253867Y-43671622D01*
X64174764Y-43575236D01*
X64078378Y-43496133D01*
X63968411Y-43437354D01*
X63849090Y-43401159D01*
X63725000Y-43388937D01*
X63435250Y-43392000D01*
X63277002Y-43550248D01*
X63277002Y-43468436D01*
X63278807Y-43467888D01*
X63366364Y-43421088D01*
X63443108Y-43358106D01*
X63458892Y-43338873D01*
X64596000Y-42201766D01*
X64596000Y-46480239D01*
G04 #@! TA.AperFunction,Conductor*
D22*
G36*
X64596000Y-46480239D02*
G01*
X64554181Y-46906740D01*
X64436058Y-47297983D01*
X64244190Y-47658835D01*
X63985885Y-47975549D01*
X63670985Y-48236056D01*
X63311481Y-48430440D01*
X62921068Y-48551292D01*
X62495698Y-48596000D01*
X61441763Y-48596000D01*
X63181931Y-46855833D01*
X63525000Y-46855833D01*
X63638315Y-46844672D01*
X63747275Y-46811620D01*
X63847694Y-46757945D01*
X63935711Y-46685711D01*
X64007945Y-46597694D01*
X64061620Y-46497275D01*
X64094672Y-46388315D01*
X64105833Y-46275000D01*
X64105833Y-45725000D01*
X64094672Y-45611685D01*
X64064256Y-45511415D01*
X64078378Y-45503867D01*
X64174764Y-45424764D01*
X64253867Y-45328378D01*
X64312646Y-45218411D01*
X64348841Y-45099090D01*
X64361063Y-44975000D01*
X64358000Y-44660250D01*
X64199750Y-44502000D01*
X63277000Y-44502000D01*
X63277000Y-44522000D01*
X63273000Y-44522000D01*
X63273000Y-44502000D01*
X63253000Y-44502000D01*
X63253000Y-44498000D01*
X63273000Y-44498000D01*
X63273000Y-44478000D01*
X63277000Y-44478000D01*
X63277000Y-44498000D01*
X64199750Y-44498000D01*
X64358000Y-44339750D01*
X64361063Y-44025000D01*
X64348841Y-43900910D01*
X64312646Y-43781589D01*
X64253867Y-43671622D01*
X64174764Y-43575236D01*
X64078378Y-43496133D01*
X63968411Y-43437354D01*
X63849090Y-43401159D01*
X63725000Y-43388937D01*
X63435250Y-43392000D01*
X63277002Y-43550248D01*
X63277002Y-43468436D01*
X63278807Y-43467888D01*
X63366364Y-43421088D01*
X63443108Y-43358106D01*
X63458892Y-43338873D01*
X64596000Y-42201766D01*
X64596000Y-46480239D01*
G37*
G04 #@! TD.AperFunction*
D21*
X51189167Y-31875000D02*
X51196485Y-31949297D01*
X51218156Y-32020738D01*
X51253349Y-32086579D01*
X51300710Y-32144290D01*
X51358421Y-32191651D01*
X51424262Y-32226844D01*
X51495703Y-32248515D01*
X51570000Y-32255833D01*
X52037004Y-32255833D01*
X52525337Y-32744167D01*
X51570000Y-32744167D01*
X51495703Y-32751485D01*
X51424262Y-32773156D01*
X51358421Y-32808349D01*
X51300710Y-32855710D01*
X51253349Y-32913421D01*
X51218156Y-32979262D01*
X51196485Y-33050703D01*
X51189167Y-33125000D01*
X51189167Y-33775000D01*
X51189320Y-33776557D01*
X50810833Y-33398070D01*
X50810833Y-33331335D01*
X50879764Y-33274764D01*
X50958867Y-33178378D01*
X51017646Y-33068411D01*
X51053841Y-32949090D01*
X51066063Y-32825000D01*
X51063000Y-32660250D01*
X50904750Y-32502000D01*
X49902000Y-32502000D01*
X49902000Y-32522000D01*
X49898000Y-32522000D01*
X49898000Y-32502000D01*
X48895250Y-32502000D01*
X48737000Y-32660250D01*
X48733937Y-32825000D01*
X48746159Y-32949090D01*
X48782354Y-33068411D01*
X48841133Y-33178378D01*
X48920236Y-33274764D01*
X48989167Y-33331335D01*
X48989167Y-33775000D01*
X48996485Y-33849297D01*
X49018156Y-33920738D01*
X49053349Y-33986579D01*
X49100710Y-34044290D01*
X49158421Y-34091651D01*
X49224262Y-34126844D01*
X49295703Y-34148515D01*
X49370000Y-34155833D01*
X50143070Y-34155833D01*
X50726114Y-34738878D01*
X50741894Y-34758106D01*
X50818638Y-34821088D01*
X50906195Y-34867888D01*
X50965993Y-34886028D01*
X50908342Y-34933341D01*
X50773505Y-35097640D01*
X50673312Y-35285087D01*
X50611613Y-35488479D01*
X50596000Y-35647000D01*
X50596000Y-36552999D01*
X50611613Y-36711520D01*
X50649639Y-36836875D01*
X49473890Y-35661127D01*
X49458106Y-35641894D01*
X49381362Y-35578912D01*
X49293805Y-35532112D01*
X49198801Y-35503293D01*
X49124754Y-35496000D01*
X49100000Y-35493562D01*
X49075246Y-35496000D01*
X48358995Y-35496000D01*
X48361063Y-35475000D01*
X48358000Y-35160250D01*
X48199750Y-35002000D01*
X47277000Y-35002000D01*
X47277000Y-35949750D01*
X47327250Y-36000000D01*
X47277000Y-36050250D01*
X47277000Y-36998000D01*
X48199750Y-36998000D01*
X48358000Y-36839750D01*
X48361063Y-36525000D01*
X48358995Y-36504000D01*
X48891237Y-36504000D01*
X50826114Y-38438878D01*
X50841894Y-38458106D01*
X50918638Y-38521088D01*
X51006195Y-38567888D01*
X51101199Y-38596707D01*
X51175246Y-38604000D01*
X51175248Y-38604000D01*
X51199999Y-38606438D01*
X51224750Y-38604000D01*
X51612115Y-38604000D01*
X51625740Y-38613104D01*
X51731112Y-38656750D01*
X51842973Y-38679000D01*
X51957027Y-38679000D01*
X52068888Y-38656750D01*
X52174260Y-38613104D01*
X52269091Y-38549739D01*
X52296001Y-38522829D01*
X52296001Y-40685169D01*
X52250261Y-40730909D01*
X52186896Y-40825740D01*
X52143250Y-40931112D01*
X52121000Y-41042973D01*
X52121000Y-41157027D01*
X52143250Y-41268888D01*
X52186896Y-41374260D01*
X52250261Y-41469091D01*
X52330909Y-41549739D01*
X52425740Y-41613104D01*
X52531112Y-41656750D01*
X52614000Y-41673237D01*
X52591237Y-41696000D01*
X47787885Y-41696000D01*
X47774260Y-41686896D01*
X47668888Y-41643250D01*
X47557027Y-41621000D01*
X47442973Y-41621000D01*
X47331112Y-41643250D01*
X47225740Y-41686896D01*
X47130909Y-41750261D01*
X47050261Y-41830909D01*
X46986896Y-41925740D01*
X46943250Y-42031112D01*
X46921000Y-42142973D01*
X46921000Y-42257027D01*
X46943250Y-42368888D01*
X46986896Y-42474260D01*
X47050261Y-42569091D01*
X47130909Y-42649739D01*
X47225740Y-42713104D01*
X47331112Y-42756750D01*
X47442973Y-42779000D01*
X47557027Y-42779000D01*
X47668888Y-42756750D01*
X47774260Y-42713104D01*
X47787885Y-42704000D01*
X52775246Y-42704000D01*
X52800000Y-42706438D01*
X52898801Y-42696707D01*
X52993805Y-42667888D01*
X53081362Y-42621088D01*
X53158106Y-42558106D01*
X53173890Y-42538873D01*
X53652817Y-42059947D01*
X53668888Y-42056750D01*
X53774260Y-42013104D01*
X53869091Y-41949739D01*
X53949739Y-41869091D01*
X54013104Y-41774260D01*
X54056750Y-41668888D01*
X54079000Y-41557027D01*
X54079000Y-41442973D01*
X54056750Y-41331112D01*
X54013104Y-41225740D01*
X53949739Y-41130909D01*
X53869091Y-41050261D01*
X53774260Y-40986896D01*
X53668888Y-40943250D01*
X53557027Y-40921000D01*
X53442973Y-40921000D01*
X53331112Y-40943250D01*
X53304000Y-40954480D01*
X53304000Y-38250000D01*
X61513937Y-38250000D01*
X61526159Y-38374090D01*
X61562354Y-38493411D01*
X61621133Y-38603378D01*
X61700236Y-38699764D01*
X61796622Y-38778867D01*
X61906589Y-38837646D01*
X62025910Y-38873841D01*
X62150000Y-38886063D01*
X62839750Y-38883000D01*
X62998000Y-38724750D01*
X62998000Y-37802000D01*
X61675250Y-37802000D01*
X61517000Y-37960250D01*
X61513937Y-38250000D01*
X53304000Y-38250000D01*
X53304000Y-37404896D01*
X53485087Y-37501689D01*
X53688479Y-37563387D01*
X53847000Y-37579000D01*
X54553000Y-37579000D01*
X54711521Y-37563387D01*
X54914913Y-37501689D01*
X55102360Y-37401496D01*
X55266659Y-37266659D01*
X55401496Y-37102360D01*
X55501689Y-36914913D01*
X55563387Y-36711521D01*
X55563487Y-36710502D01*
X56183726Y-36710502D01*
X56192222Y-36758093D01*
X56267702Y-37008269D01*
X56390539Y-37238912D01*
X56556012Y-37441159D01*
X56757762Y-37607238D01*
X56988035Y-37730766D01*
X57237983Y-37806997D01*
X57498000Y-37833000D01*
X57798000Y-37833000D01*
X57798000Y-36502000D01*
X56325252Y-36502000D01*
X56183726Y-36710502D01*
X55563487Y-36710502D01*
X55584220Y-36500000D01*
X55563488Y-36289498D01*
X56183726Y-36289498D01*
X56325252Y-36498000D01*
X57798000Y-36498000D01*
X57798000Y-35167000D01*
X57498000Y-35167000D01*
X57237983Y-35193003D01*
X56988035Y-35269234D01*
X56757762Y-35392762D01*
X56556012Y-35558841D01*
X56390539Y-35761088D01*
X56267702Y-35991731D01*
X56192222Y-36241907D01*
X56183726Y-36289498D01*
X55563488Y-36289498D01*
X55563387Y-36288479D01*
X55501689Y-36085087D01*
X55401496Y-35897640D01*
X55266659Y-35733341D01*
X55102360Y-35598504D01*
X54914913Y-35498311D01*
X54711521Y-35436613D01*
X54553000Y-35421000D01*
X53847000Y-35421000D01*
X53688479Y-35436613D01*
X53485087Y-35498311D01*
X53304000Y-35595104D01*
X53304000Y-35024753D01*
X53306438Y-34999999D01*
X53296707Y-34901198D01*
X53273592Y-34825000D01*
X53267888Y-34806195D01*
X53221088Y-34718638D01*
X53158106Y-34641894D01*
X53138878Y-34626114D01*
X52665135Y-34152372D01*
X52704297Y-34148515D01*
X52775738Y-34126844D01*
X52841579Y-34091651D01*
X52899290Y-34044290D01*
X52946651Y-33986579D01*
X52964065Y-33954000D01*
X53836574Y-33954000D01*
X53902306Y-34007945D01*
X54002725Y-34061620D01*
X54111685Y-34094672D01*
X54225000Y-34105833D01*
X54775000Y-34105833D01*
X54888315Y-34094672D01*
X54997275Y-34061620D01*
X55097694Y-34007945D01*
X55185711Y-33935711D01*
X55206723Y-33910108D01*
X55210223Y-33921645D01*
X55232112Y-33993804D01*
X55278912Y-34081362D01*
X55341894Y-34158106D01*
X55361127Y-34173890D01*
X55951115Y-34763879D01*
X55966895Y-34783107D01*
X56043639Y-34846089D01*
X56131196Y-34892889D01*
X56197380Y-34912966D01*
X56226199Y-34921708D01*
X56325001Y-34931439D01*
X56349755Y-34929001D01*
X58627247Y-34929001D01*
X58652001Y-34931439D01*
X58750802Y-34921708D01*
X58845806Y-34892889D01*
X58933363Y-34846089D01*
X59010107Y-34783107D01*
X59025891Y-34763874D01*
X59085765Y-34704000D01*
X59899445Y-34704000D01*
X59722641Y-34798504D01*
X59558342Y-34933341D01*
X59423505Y-35097640D01*
X59323312Y-35285087D01*
X59261613Y-35488479D01*
X59246000Y-35647000D01*
X59246000Y-35829695D01*
X59209461Y-35761088D01*
X59043988Y-35558841D01*
X58842238Y-35392762D01*
X58611965Y-35269234D01*
X58362017Y-35193003D01*
X58102000Y-35167000D01*
X57802000Y-35167000D01*
X57802000Y-36498000D01*
X57822000Y-36498000D01*
X57822000Y-36502000D01*
X57802000Y-36502000D01*
X57802000Y-37833000D01*
X58102000Y-37833000D01*
X58362017Y-37806997D01*
X58611965Y-37730766D01*
X58842238Y-37607238D01*
X59043988Y-37441159D01*
X59209461Y-37238912D01*
X59332298Y-37008269D01*
X59347060Y-36959342D01*
X59423504Y-37102360D01*
X59558341Y-37266659D01*
X59722640Y-37401496D01*
X59910087Y-37501689D01*
X60113479Y-37563387D01*
X60325000Y-37584220D01*
X60536520Y-37563387D01*
X60739912Y-37501689D01*
X60927360Y-37401496D01*
X61091659Y-37266659D01*
X61226496Y-37102360D01*
X61326689Y-36914913D01*
X61388387Y-36711521D01*
X61404000Y-36553000D01*
X61404000Y-35647001D01*
X61388387Y-35488480D01*
X61326689Y-35285087D01*
X61226496Y-35097640D01*
X61091659Y-34933341D01*
X60927360Y-34798504D01*
X60750556Y-34704000D01*
X62996000Y-34704000D01*
X62996001Y-36512114D01*
X62986896Y-36525740D01*
X62943250Y-36631112D01*
X62921000Y-36742973D01*
X62921000Y-36798250D01*
X62839750Y-36717000D01*
X62150000Y-36713937D01*
X62025910Y-36726159D01*
X61906589Y-36762354D01*
X61796622Y-36821133D01*
X61700236Y-36900236D01*
X61621133Y-36996622D01*
X61562354Y-37106589D01*
X61526159Y-37225910D01*
X61513937Y-37350000D01*
X61517000Y-37639750D01*
X61675250Y-37798000D01*
X62998000Y-37798000D01*
X62998000Y-37778000D01*
X63002000Y-37778000D01*
X63002000Y-37798000D01*
X63022000Y-37798000D01*
X63022000Y-37802000D01*
X63002000Y-37802000D01*
X63002000Y-38724750D01*
X63160250Y-38883000D01*
X63850000Y-38886063D01*
X63896001Y-38881532D01*
X63896001Y-40373698D01*
X63850000Y-40369167D01*
X62150000Y-40369167D01*
X62075703Y-40376485D01*
X62004262Y-40398156D01*
X61938421Y-40433349D01*
X61880710Y-40480710D01*
X61833349Y-40538421D01*
X61798156Y-40604262D01*
X61776485Y-40675703D01*
X61769167Y-40750000D01*
X61769167Y-41650000D01*
X61775270Y-41711966D01*
X61647184Y-41840053D01*
X61631112Y-41843250D01*
X61525740Y-41886896D01*
X61430909Y-41950261D01*
X61350261Y-42030909D01*
X61286896Y-42125740D01*
X61243250Y-42231112D01*
X61221000Y-42342973D01*
X61221000Y-42457027D01*
X61228752Y-42496000D01*
X60787885Y-42496000D01*
X60774260Y-42486896D01*
X60668888Y-42443250D01*
X60557027Y-42421000D01*
X60530833Y-42421000D01*
X60530833Y-42150000D01*
X60523515Y-42075703D01*
X60501844Y-42004262D01*
X60466651Y-41938421D01*
X60419290Y-41880710D01*
X60361579Y-41833349D01*
X60295738Y-41798156D01*
X60224297Y-41776485D01*
X60150000Y-41769167D01*
X59250000Y-41769167D01*
X59175703Y-41776485D01*
X59104262Y-41798156D01*
X59038421Y-41833349D01*
X58980710Y-41880710D01*
X58933349Y-41938421D01*
X58898156Y-42004262D01*
X58876485Y-42075703D01*
X58869167Y-42150000D01*
X58869167Y-43850000D01*
X58876485Y-43924297D01*
X58898156Y-43995738D01*
X58933349Y-44061579D01*
X58980710Y-44119290D01*
X59038421Y-44166651D01*
X59104262Y-44201844D01*
X59175703Y-44223515D01*
X59250000Y-44230833D01*
X59321001Y-44230833D01*
X59321000Y-44732063D01*
X59302306Y-44742055D01*
X59214289Y-44814289D01*
X59142055Y-44902306D01*
X59088380Y-45002725D01*
X59055328Y-45111685D01*
X59044167Y-45225000D01*
X59044167Y-45775000D01*
X59055328Y-45888315D01*
X59071792Y-45942591D01*
X58971622Y-45996133D01*
X58875236Y-46075236D01*
X58860074Y-46093710D01*
X58911620Y-45997275D01*
X58944672Y-45888315D01*
X58955833Y-45775000D01*
X58955833Y-45225000D01*
X58944672Y-45111685D01*
X58911620Y-45002725D01*
X58857945Y-44902306D01*
X58785711Y-44814289D01*
X58697694Y-44742055D01*
X58597275Y-44688380D01*
X58488315Y-44655328D01*
X58375000Y-44644167D01*
X57975000Y-44644167D01*
X57861685Y-44655328D01*
X57752725Y-44688380D01*
X57652306Y-44742055D01*
X57564289Y-44814289D01*
X57492055Y-44902306D01*
X57438380Y-45002725D01*
X57405328Y-45111685D01*
X57394167Y-45225000D01*
X57394167Y-45775000D01*
X57405328Y-45888315D01*
X57438380Y-45997275D01*
X57492055Y-46097694D01*
X57564289Y-46185711D01*
X57650747Y-46256666D01*
X57571611Y-46321611D01*
X57496268Y-46413417D01*
X57440283Y-46518158D01*
X57405808Y-46631808D01*
X57394167Y-46750000D01*
X57394167Y-47250000D01*
X57405808Y-47368192D01*
X57440283Y-47481842D01*
X57496268Y-47586583D01*
X57571611Y-47678389D01*
X57663417Y-47753732D01*
X57671001Y-47757786D01*
X57671001Y-47996000D01*
X36808764Y-47996000D01*
X35059947Y-46247184D01*
X35056750Y-46231112D01*
X35013104Y-46125740D01*
X34949739Y-46030909D01*
X34869091Y-45950261D01*
X34774260Y-45886896D01*
X34668888Y-45843250D01*
X34557027Y-45821000D01*
X34442973Y-45821000D01*
X34331112Y-45843250D01*
X34225740Y-45886896D01*
X34130909Y-45950261D01*
X34050261Y-46030909D01*
X33986896Y-46125740D01*
X33943250Y-46231112D01*
X33921000Y-46342973D01*
X33921000Y-46457027D01*
X33943250Y-46568888D01*
X33986896Y-46674260D01*
X34050261Y-46769091D01*
X34130909Y-46849739D01*
X34225740Y-46913104D01*
X34331112Y-46956750D01*
X34347184Y-46959947D01*
X35983236Y-48596000D01*
X30425000Y-48596000D01*
X30425000Y-42942973D01*
X54421000Y-42942973D01*
X54421000Y-43057027D01*
X54443250Y-43168888D01*
X54486896Y-43274260D01*
X54496001Y-43287886D01*
X54496000Y-46712115D01*
X54486896Y-46725740D01*
X54443250Y-46831112D01*
X54421000Y-46942973D01*
X54421000Y-47057027D01*
X54443250Y-47168888D01*
X54486896Y-47274260D01*
X54550261Y-47369091D01*
X54630909Y-47449739D01*
X54725740Y-47513104D01*
X54831112Y-47556750D01*
X54942973Y-47579000D01*
X55057027Y-47579000D01*
X55168888Y-47556750D01*
X55274260Y-47513104D01*
X55369091Y-47449739D01*
X55449739Y-47369091D01*
X55513104Y-47274260D01*
X55556750Y-47168888D01*
X55579000Y-47057027D01*
X55579000Y-46942973D01*
X55556750Y-46831112D01*
X55513104Y-46725740D01*
X55504000Y-46712115D01*
X55504000Y-46471248D01*
X55542973Y-46479000D01*
X55657027Y-46479000D01*
X55768888Y-46456750D01*
X55874260Y-46413104D01*
X55969091Y-46349739D01*
X56049739Y-46269091D01*
X56113104Y-46174260D01*
X56156750Y-46068888D01*
X56159947Y-46052817D01*
X56638878Y-45573886D01*
X56658106Y-45558106D01*
X56721088Y-45481362D01*
X56767888Y-45393805D01*
X56796707Y-45298801D01*
X56804000Y-45224754D01*
X56804000Y-45224752D01*
X56806438Y-45200001D01*
X56804000Y-45175250D01*
X56804000Y-44225514D01*
X56824297Y-44223515D01*
X56895738Y-44201844D01*
X56961579Y-44166651D01*
X57019290Y-44119290D01*
X57066651Y-44061579D01*
X57101844Y-43995738D01*
X57123515Y-43924297D01*
X57130833Y-43850000D01*
X57130833Y-42150000D01*
X57123515Y-42075703D01*
X57101844Y-42004262D01*
X57066651Y-41938421D01*
X57019290Y-41880710D01*
X56961579Y-41833349D01*
X56895738Y-41798156D01*
X56824297Y-41776485D01*
X56750000Y-41769167D01*
X55850000Y-41769167D01*
X55775703Y-41776485D01*
X55704262Y-41798156D01*
X55638421Y-41833349D01*
X55580710Y-41880710D01*
X55533349Y-41938421D01*
X55498156Y-42004262D01*
X55476485Y-42075703D01*
X55469167Y-42150000D01*
X55469167Y-42659985D01*
X55449739Y-42630909D01*
X55369091Y-42550261D01*
X55274260Y-42486896D01*
X55168888Y-42443250D01*
X55057027Y-42421000D01*
X54942973Y-42421000D01*
X54831112Y-42443250D01*
X54725740Y-42486896D01*
X54630909Y-42550261D01*
X54550261Y-42630909D01*
X54486896Y-42725740D01*
X54443250Y-42831112D01*
X54421000Y-42942973D01*
X30425000Y-42942973D01*
X30425000Y-35294035D01*
X30506589Y-35337646D01*
X30625910Y-35373841D01*
X30750000Y-35386063D01*
X31339750Y-35383000D01*
X31498000Y-35224750D01*
X31498000Y-34002000D01*
X31478000Y-34002000D01*
X31478000Y-33998000D01*
X31498000Y-33998000D01*
X31498000Y-33978000D01*
X31502000Y-33978000D01*
X31502000Y-33998000D01*
X31522000Y-33998000D01*
X31522000Y-34002000D01*
X31502000Y-34002000D01*
X31502000Y-35224750D01*
X31660250Y-35383000D01*
X32250000Y-35386063D01*
X32374090Y-35373841D01*
X32493411Y-35337646D01*
X32603378Y-35278867D01*
X32699764Y-35199764D01*
X32739710Y-35151090D01*
X32743250Y-35168888D01*
X32786896Y-35274260D01*
X32850261Y-35369091D01*
X32930909Y-35449739D01*
X33025740Y-35513104D01*
X33131112Y-35556750D01*
X33147184Y-35559947D01*
X35008237Y-37421000D01*
X34942973Y-37421000D01*
X34831112Y-37443250D01*
X34725740Y-37486896D01*
X34630909Y-37550261D01*
X34550261Y-37630909D01*
X34486896Y-37725740D01*
X34443250Y-37831112D01*
X34421000Y-37942973D01*
X34421000Y-38057027D01*
X34443250Y-38168888D01*
X34486896Y-38274260D01*
X34496000Y-38287885D01*
X34496001Y-39569126D01*
X34328114Y-39681305D01*
X34181305Y-39828114D01*
X34065957Y-40000744D01*
X33986504Y-40192559D01*
X33946000Y-40396190D01*
X33946000Y-40603810D01*
X33986504Y-40807441D01*
X34065957Y-40999256D01*
X34181305Y-41171886D01*
X34328114Y-41318695D01*
X34500744Y-41434043D01*
X34692559Y-41513496D01*
X34896190Y-41554000D01*
X35103810Y-41554000D01*
X35307441Y-41513496D01*
X35499256Y-41434043D01*
X35671886Y-41318695D01*
X35818695Y-41171886D01*
X35934043Y-40999256D01*
X36000000Y-40840023D01*
X36065957Y-40999256D01*
X36181305Y-41171886D01*
X36328114Y-41318695D01*
X36500744Y-41434043D01*
X36692559Y-41513496D01*
X36896190Y-41554000D01*
X37103810Y-41554000D01*
X37307441Y-41513496D01*
X37499256Y-41434043D01*
X37671886Y-41318695D01*
X37818695Y-41171886D01*
X37853777Y-41119382D01*
X37885793Y-41185134D01*
X38040865Y-41389340D01*
X38232796Y-41559370D01*
X38454210Y-41688689D01*
X38696599Y-41772327D01*
X38793409Y-41791582D01*
X38998000Y-41649748D01*
X38998000Y-40502000D01*
X38978000Y-40502000D01*
X38978000Y-40498000D01*
X38998000Y-40498000D01*
X38998000Y-39350252D01*
X38793409Y-39208418D01*
X38696599Y-39227673D01*
X38454210Y-39311311D01*
X38232796Y-39440630D01*
X38040865Y-39610660D01*
X37885793Y-39814866D01*
X37853777Y-39880618D01*
X37818695Y-39828114D01*
X37671886Y-39681305D01*
X37504000Y-39569127D01*
X37504000Y-38429752D01*
X37506438Y-38405001D01*
X37502901Y-38369091D01*
X37496707Y-38306201D01*
X37467888Y-38211197D01*
X37421088Y-38123640D01*
X37358106Y-38046896D01*
X37338878Y-38031116D01*
X37154945Y-37847183D01*
X37151748Y-37831112D01*
X37108102Y-37725740D01*
X37093576Y-37704000D01*
X37691237Y-37704000D01*
X38726114Y-38738878D01*
X38741894Y-38758106D01*
X38818638Y-38821088D01*
X38906195Y-38867888D01*
X39001199Y-38896707D01*
X39075246Y-38904000D01*
X39075248Y-38904000D01*
X39099999Y-38906438D01*
X39124750Y-38904000D01*
X43475246Y-38904000D01*
X43500000Y-38906438D01*
X43598801Y-38896707D01*
X43598804Y-38896706D01*
X43693805Y-38867888D01*
X43781362Y-38821088D01*
X43858106Y-38758106D01*
X43873890Y-38738873D01*
X45009751Y-37603013D01*
X45071611Y-37678389D01*
X45092063Y-37695174D01*
X42791237Y-39996000D01*
X42055833Y-39996000D01*
X42055833Y-39825000D01*
X42048515Y-39750703D01*
X42026844Y-39679262D01*
X41991651Y-39613421D01*
X41944290Y-39555710D01*
X41886579Y-39508349D01*
X41820738Y-39473156D01*
X41749297Y-39451485D01*
X41675000Y-39444167D01*
X40325000Y-39444167D01*
X40250703Y-39451485D01*
X40179262Y-39473156D01*
X40113421Y-39508349D01*
X40055710Y-39555710D01*
X40008349Y-39613421D01*
X39988885Y-39649836D01*
X39959135Y-39610660D01*
X39767204Y-39440630D01*
X39545790Y-39311311D01*
X39303401Y-39227673D01*
X39206591Y-39208418D01*
X39002000Y-39350252D01*
X39002000Y-40498000D01*
X39022000Y-40498000D01*
X39022000Y-40502000D01*
X39002000Y-40502000D01*
X39002000Y-41649748D01*
X39206591Y-41791582D01*
X39303401Y-41772327D01*
X39545790Y-41688689D01*
X39767204Y-41559370D01*
X39959135Y-41389340D01*
X39988885Y-41350164D01*
X40008349Y-41386579D01*
X40055710Y-41444290D01*
X40113421Y-41491651D01*
X40179262Y-41526844D01*
X40250703Y-41548515D01*
X40325000Y-41555833D01*
X41675000Y-41555833D01*
X41749297Y-41548515D01*
X41820738Y-41526844D01*
X41886579Y-41491651D01*
X41944290Y-41444290D01*
X41991651Y-41386579D01*
X42026844Y-41320738D01*
X42048515Y-41249297D01*
X42055833Y-41175000D01*
X42055833Y-41004000D01*
X42975246Y-41004000D01*
X43000000Y-41006438D01*
X43072921Y-40999256D01*
X43098801Y-40996707D01*
X43193805Y-40967888D01*
X43281362Y-40921088D01*
X43358106Y-40858106D01*
X43373890Y-40838873D01*
X45852816Y-38359947D01*
X45868888Y-38356750D01*
X45974260Y-38313104D01*
X46069091Y-38249739D01*
X46149739Y-38169091D01*
X46213104Y-38074260D01*
X46256750Y-37968888D01*
X46279000Y-37857027D01*
X46279000Y-37796325D01*
X46296133Y-37828378D01*
X46375236Y-37924764D01*
X46471622Y-38003867D01*
X46581589Y-38062646D01*
X46700910Y-38098841D01*
X46825000Y-38111063D01*
X47114750Y-38108000D01*
X47273000Y-37949750D01*
X47273000Y-37002000D01*
X47277000Y-37002000D01*
X47277000Y-37949750D01*
X47435250Y-38108000D01*
X47725000Y-38111063D01*
X47849090Y-38098841D01*
X47968411Y-38062646D01*
X48078378Y-38003867D01*
X48174764Y-37924764D01*
X48253867Y-37828378D01*
X48312646Y-37718411D01*
X48348841Y-37599090D01*
X48361063Y-37475000D01*
X48358000Y-37160250D01*
X48199750Y-37002000D01*
X47277000Y-37002000D01*
X47273000Y-37002000D01*
X47253000Y-37002000D01*
X47253000Y-36998000D01*
X47273000Y-36998000D01*
X47273000Y-36050250D01*
X47222750Y-36000000D01*
X47273000Y-35949750D01*
X47273000Y-35002000D01*
X47253000Y-35002000D01*
X47253000Y-34998000D01*
X47273000Y-34998000D01*
X47273000Y-34050250D01*
X47222750Y-34000000D01*
X47273000Y-33949750D01*
X47273000Y-33002000D01*
X47277000Y-33002000D01*
X47277000Y-33949750D01*
X47327250Y-34000000D01*
X47277000Y-34050250D01*
X47277000Y-34998000D01*
X48199750Y-34998000D01*
X48358000Y-34839750D01*
X48361063Y-34525000D01*
X48348841Y-34400910D01*
X48312646Y-34281589D01*
X48253867Y-34171622D01*
X48174764Y-34075236D01*
X48083090Y-34000000D01*
X48174764Y-33924764D01*
X48253867Y-33828378D01*
X48312646Y-33718411D01*
X48348841Y-33599090D01*
X48361063Y-33475000D01*
X48358000Y-33160250D01*
X48199750Y-33002000D01*
X47277000Y-33002000D01*
X47273000Y-33002000D01*
X47253000Y-33002000D01*
X47253000Y-32998000D01*
X47273000Y-32998000D01*
X47273000Y-32050250D01*
X47277000Y-32050250D01*
X47277000Y-32998000D01*
X48199750Y-32998000D01*
X48358000Y-32839750D01*
X48361063Y-32525000D01*
X48348841Y-32400910D01*
X48312646Y-32281589D01*
X48253867Y-32171622D01*
X48174764Y-32075236D01*
X48078378Y-31996133D01*
X47968411Y-31937354D01*
X47849090Y-31901159D01*
X47725000Y-31888937D01*
X47435250Y-31892000D01*
X47277000Y-32050250D01*
X47273000Y-32050250D01*
X47114750Y-31892000D01*
X46825000Y-31888937D01*
X46700910Y-31901159D01*
X46581589Y-31937354D01*
X46471622Y-31996133D01*
X46375236Y-32075236D01*
X46296133Y-32171622D01*
X46262978Y-32233651D01*
X46181842Y-32190283D01*
X46068192Y-32155808D01*
X45950000Y-32144167D01*
X45500000Y-32144167D01*
X45381808Y-32155808D01*
X45268158Y-32190283D01*
X45163417Y-32246268D01*
X45071611Y-32321611D01*
X44996268Y-32413417D01*
X44940283Y-32518158D01*
X44905808Y-32631808D01*
X44894167Y-32750000D01*
X44894167Y-33250000D01*
X44905808Y-33368192D01*
X44940283Y-33481842D01*
X44996268Y-33586583D01*
X45003996Y-33596000D01*
X44748052Y-33596000D01*
X44747074Y-33586071D01*
X44721135Y-33500560D01*
X44679011Y-33421753D01*
X44622323Y-33352677D01*
X44553247Y-33295989D01*
X44474440Y-33253865D01*
X44388929Y-33227926D01*
X44300000Y-33219167D01*
X43780833Y-33219167D01*
X43780833Y-32700000D01*
X43772074Y-32611071D01*
X43746135Y-32525560D01*
X43704011Y-32446753D01*
X43647323Y-32377677D01*
X43578247Y-32320989D01*
X43499440Y-32278865D01*
X43413929Y-32252926D01*
X43325000Y-32244167D01*
X43175000Y-32244167D01*
X43086071Y-32252926D01*
X43000560Y-32278865D01*
X43000000Y-32279164D01*
X42999440Y-32278865D01*
X42913929Y-32252926D01*
X42825000Y-32244167D01*
X42675000Y-32244167D01*
X42586071Y-32252926D01*
X42500560Y-32278865D01*
X42500000Y-32279164D01*
X42499440Y-32278865D01*
X42413929Y-32252926D01*
X42325000Y-32244167D01*
X42175000Y-32244167D01*
X42086071Y-32252926D01*
X42000560Y-32278865D01*
X42000000Y-32279164D01*
X41999440Y-32278865D01*
X41913929Y-32252926D01*
X41825000Y-32244167D01*
X41675000Y-32244167D01*
X41586071Y-32252926D01*
X41500560Y-32278865D01*
X41500000Y-32279164D01*
X41499440Y-32278865D01*
X41413929Y-32252926D01*
X41413141Y-32252848D01*
X41352862Y-32178355D01*
X41257024Y-32098588D01*
X41147466Y-32039051D01*
X41028398Y-32002031D01*
X40910250Y-31992000D01*
X40752000Y-32150250D01*
X40752000Y-32531708D01*
X40748000Y-32544895D01*
X40748000Y-32150250D01*
X40589750Y-31992000D01*
X40471602Y-32002031D01*
X40352534Y-32039051D01*
X40242976Y-32098588D01*
X40147138Y-32178355D01*
X40068703Y-32275286D01*
X40010686Y-32385657D01*
X39975316Y-32505225D01*
X39963952Y-32629396D01*
X39967000Y-32889750D01*
X40125250Y-33048000D01*
X40719167Y-33048000D01*
X40719167Y-33052000D01*
X40125250Y-33052000D01*
X39967000Y-33210250D01*
X39966896Y-33219167D01*
X39700000Y-33219167D01*
X39611071Y-33227926D01*
X39551488Y-33246000D01*
X39162714Y-33246000D01*
X39074260Y-33186896D01*
X38968888Y-33143250D01*
X38857027Y-33121000D01*
X38742973Y-33121000D01*
X38631112Y-33143250D01*
X38525740Y-33186896D01*
X38430909Y-33250261D01*
X38350261Y-33330909D01*
X38286896Y-33425740D01*
X38243250Y-33531112D01*
X38221000Y-33642973D01*
X38221000Y-33746000D01*
X36458764Y-33746000D01*
X35159947Y-32447184D01*
X35156750Y-32431112D01*
X35113104Y-32325740D01*
X35049739Y-32230909D01*
X34969091Y-32150261D01*
X34874260Y-32086896D01*
X34768888Y-32043250D01*
X34657027Y-32021000D01*
X34542973Y-32021000D01*
X34431112Y-32043250D01*
X34355833Y-32074431D01*
X34355833Y-32000000D01*
X34352515Y-31966314D01*
X34739830Y-31579000D01*
X48260171Y-31579000D01*
X48620476Y-31939305D01*
X48638605Y-31961395D01*
X48726769Y-32033750D01*
X48747933Y-32045062D01*
X48746159Y-32050910D01*
X48733937Y-32175000D01*
X48737000Y-32339750D01*
X48895250Y-32498000D01*
X49898000Y-32498000D01*
X49898000Y-32478000D01*
X49902000Y-32478000D01*
X49902000Y-32498000D01*
X50904750Y-32498000D01*
X51063000Y-32339750D01*
X51066063Y-32175000D01*
X51053841Y-32050910D01*
X51017646Y-31931589D01*
X50958867Y-31821622D01*
X50931073Y-31787756D01*
X51189167Y-31529663D01*
X51189167Y-31875000D01*
G04 #@! TA.AperFunction,Conductor*
D22*
G36*
X51189167Y-31875000D02*
G01*
X51196485Y-31949297D01*
X51218156Y-32020738D01*
X51253349Y-32086579D01*
X51300710Y-32144290D01*
X51358421Y-32191651D01*
X51424262Y-32226844D01*
X51495703Y-32248515D01*
X51570000Y-32255833D01*
X52037004Y-32255833D01*
X52525337Y-32744167D01*
X51570000Y-32744167D01*
X51495703Y-32751485D01*
X51424262Y-32773156D01*
X51358421Y-32808349D01*
X51300710Y-32855710D01*
X51253349Y-32913421D01*
X51218156Y-32979262D01*
X51196485Y-33050703D01*
X51189167Y-33125000D01*
X51189167Y-33775000D01*
X51189320Y-33776557D01*
X50810833Y-33398070D01*
X50810833Y-33331335D01*
X50879764Y-33274764D01*
X50958867Y-33178378D01*
X51017646Y-33068411D01*
X51053841Y-32949090D01*
X51066063Y-32825000D01*
X51063000Y-32660250D01*
X50904750Y-32502000D01*
X49902000Y-32502000D01*
X49902000Y-32522000D01*
X49898000Y-32522000D01*
X49898000Y-32502000D01*
X48895250Y-32502000D01*
X48737000Y-32660250D01*
X48733937Y-32825000D01*
X48746159Y-32949090D01*
X48782354Y-33068411D01*
X48841133Y-33178378D01*
X48920236Y-33274764D01*
X48989167Y-33331335D01*
X48989167Y-33775000D01*
X48996485Y-33849297D01*
X49018156Y-33920738D01*
X49053349Y-33986579D01*
X49100710Y-34044290D01*
X49158421Y-34091651D01*
X49224262Y-34126844D01*
X49295703Y-34148515D01*
X49370000Y-34155833D01*
X50143070Y-34155833D01*
X50726114Y-34738878D01*
X50741894Y-34758106D01*
X50818638Y-34821088D01*
X50906195Y-34867888D01*
X50965993Y-34886028D01*
X50908342Y-34933341D01*
X50773505Y-35097640D01*
X50673312Y-35285087D01*
X50611613Y-35488479D01*
X50596000Y-35647000D01*
X50596000Y-36552999D01*
X50611613Y-36711520D01*
X50649639Y-36836875D01*
X49473890Y-35661127D01*
X49458106Y-35641894D01*
X49381362Y-35578912D01*
X49293805Y-35532112D01*
X49198801Y-35503293D01*
X49124754Y-35496000D01*
X49100000Y-35493562D01*
X49075246Y-35496000D01*
X48358995Y-35496000D01*
X48361063Y-35475000D01*
X48358000Y-35160250D01*
X48199750Y-35002000D01*
X47277000Y-35002000D01*
X47277000Y-35949750D01*
X47327250Y-36000000D01*
X47277000Y-36050250D01*
X47277000Y-36998000D01*
X48199750Y-36998000D01*
X48358000Y-36839750D01*
X48361063Y-36525000D01*
X48358995Y-36504000D01*
X48891237Y-36504000D01*
X50826114Y-38438878D01*
X50841894Y-38458106D01*
X50918638Y-38521088D01*
X51006195Y-38567888D01*
X51101199Y-38596707D01*
X51175246Y-38604000D01*
X51175248Y-38604000D01*
X51199999Y-38606438D01*
X51224750Y-38604000D01*
X51612115Y-38604000D01*
X51625740Y-38613104D01*
X51731112Y-38656750D01*
X51842973Y-38679000D01*
X51957027Y-38679000D01*
X52068888Y-38656750D01*
X52174260Y-38613104D01*
X52269091Y-38549739D01*
X52296001Y-38522829D01*
X52296001Y-40685169D01*
X52250261Y-40730909D01*
X52186896Y-40825740D01*
X52143250Y-40931112D01*
X52121000Y-41042973D01*
X52121000Y-41157027D01*
X52143250Y-41268888D01*
X52186896Y-41374260D01*
X52250261Y-41469091D01*
X52330909Y-41549739D01*
X52425740Y-41613104D01*
X52531112Y-41656750D01*
X52614000Y-41673237D01*
X52591237Y-41696000D01*
X47787885Y-41696000D01*
X47774260Y-41686896D01*
X47668888Y-41643250D01*
X47557027Y-41621000D01*
X47442973Y-41621000D01*
X47331112Y-41643250D01*
X47225740Y-41686896D01*
X47130909Y-41750261D01*
X47050261Y-41830909D01*
X46986896Y-41925740D01*
X46943250Y-42031112D01*
X46921000Y-42142973D01*
X46921000Y-42257027D01*
X46943250Y-42368888D01*
X46986896Y-42474260D01*
X47050261Y-42569091D01*
X47130909Y-42649739D01*
X47225740Y-42713104D01*
X47331112Y-42756750D01*
X47442973Y-42779000D01*
X47557027Y-42779000D01*
X47668888Y-42756750D01*
X47774260Y-42713104D01*
X47787885Y-42704000D01*
X52775246Y-42704000D01*
X52800000Y-42706438D01*
X52898801Y-42696707D01*
X52993805Y-42667888D01*
X53081362Y-42621088D01*
X53158106Y-42558106D01*
X53173890Y-42538873D01*
X53652817Y-42059947D01*
X53668888Y-42056750D01*
X53774260Y-42013104D01*
X53869091Y-41949739D01*
X53949739Y-41869091D01*
X54013104Y-41774260D01*
X54056750Y-41668888D01*
X54079000Y-41557027D01*
X54079000Y-41442973D01*
X54056750Y-41331112D01*
X54013104Y-41225740D01*
X53949739Y-41130909D01*
X53869091Y-41050261D01*
X53774260Y-40986896D01*
X53668888Y-40943250D01*
X53557027Y-40921000D01*
X53442973Y-40921000D01*
X53331112Y-40943250D01*
X53304000Y-40954480D01*
X53304000Y-38250000D01*
X61513937Y-38250000D01*
X61526159Y-38374090D01*
X61562354Y-38493411D01*
X61621133Y-38603378D01*
X61700236Y-38699764D01*
X61796622Y-38778867D01*
X61906589Y-38837646D01*
X62025910Y-38873841D01*
X62150000Y-38886063D01*
X62839750Y-38883000D01*
X62998000Y-38724750D01*
X62998000Y-37802000D01*
X61675250Y-37802000D01*
X61517000Y-37960250D01*
X61513937Y-38250000D01*
X53304000Y-38250000D01*
X53304000Y-37404896D01*
X53485087Y-37501689D01*
X53688479Y-37563387D01*
X53847000Y-37579000D01*
X54553000Y-37579000D01*
X54711521Y-37563387D01*
X54914913Y-37501689D01*
X55102360Y-37401496D01*
X55266659Y-37266659D01*
X55401496Y-37102360D01*
X55501689Y-36914913D01*
X55563387Y-36711521D01*
X55563487Y-36710502D01*
X56183726Y-36710502D01*
X56192222Y-36758093D01*
X56267702Y-37008269D01*
X56390539Y-37238912D01*
X56556012Y-37441159D01*
X56757762Y-37607238D01*
X56988035Y-37730766D01*
X57237983Y-37806997D01*
X57498000Y-37833000D01*
X57798000Y-37833000D01*
X57798000Y-36502000D01*
X56325252Y-36502000D01*
X56183726Y-36710502D01*
X55563487Y-36710502D01*
X55584220Y-36500000D01*
X55563488Y-36289498D01*
X56183726Y-36289498D01*
X56325252Y-36498000D01*
X57798000Y-36498000D01*
X57798000Y-35167000D01*
X57498000Y-35167000D01*
X57237983Y-35193003D01*
X56988035Y-35269234D01*
X56757762Y-35392762D01*
X56556012Y-35558841D01*
X56390539Y-35761088D01*
X56267702Y-35991731D01*
X56192222Y-36241907D01*
X56183726Y-36289498D01*
X55563488Y-36289498D01*
X55563387Y-36288479D01*
X55501689Y-36085087D01*
X55401496Y-35897640D01*
X55266659Y-35733341D01*
X55102360Y-35598504D01*
X54914913Y-35498311D01*
X54711521Y-35436613D01*
X54553000Y-35421000D01*
X53847000Y-35421000D01*
X53688479Y-35436613D01*
X53485087Y-35498311D01*
X53304000Y-35595104D01*
X53304000Y-35024753D01*
X53306438Y-34999999D01*
X53296707Y-34901198D01*
X53273592Y-34825000D01*
X53267888Y-34806195D01*
X53221088Y-34718638D01*
X53158106Y-34641894D01*
X53138878Y-34626114D01*
X52665135Y-34152372D01*
X52704297Y-34148515D01*
X52775738Y-34126844D01*
X52841579Y-34091651D01*
X52899290Y-34044290D01*
X52946651Y-33986579D01*
X52964065Y-33954000D01*
X53836574Y-33954000D01*
X53902306Y-34007945D01*
X54002725Y-34061620D01*
X54111685Y-34094672D01*
X54225000Y-34105833D01*
X54775000Y-34105833D01*
X54888315Y-34094672D01*
X54997275Y-34061620D01*
X55097694Y-34007945D01*
X55185711Y-33935711D01*
X55206723Y-33910108D01*
X55210223Y-33921645D01*
X55232112Y-33993804D01*
X55278912Y-34081362D01*
X55341894Y-34158106D01*
X55361127Y-34173890D01*
X55951115Y-34763879D01*
X55966895Y-34783107D01*
X56043639Y-34846089D01*
X56131196Y-34892889D01*
X56197380Y-34912966D01*
X56226199Y-34921708D01*
X56325001Y-34931439D01*
X56349755Y-34929001D01*
X58627247Y-34929001D01*
X58652001Y-34931439D01*
X58750802Y-34921708D01*
X58845806Y-34892889D01*
X58933363Y-34846089D01*
X59010107Y-34783107D01*
X59025891Y-34763874D01*
X59085765Y-34704000D01*
X59899445Y-34704000D01*
X59722641Y-34798504D01*
X59558342Y-34933341D01*
X59423505Y-35097640D01*
X59323312Y-35285087D01*
X59261613Y-35488479D01*
X59246000Y-35647000D01*
X59246000Y-35829695D01*
X59209461Y-35761088D01*
X59043988Y-35558841D01*
X58842238Y-35392762D01*
X58611965Y-35269234D01*
X58362017Y-35193003D01*
X58102000Y-35167000D01*
X57802000Y-35167000D01*
X57802000Y-36498000D01*
X57822000Y-36498000D01*
X57822000Y-36502000D01*
X57802000Y-36502000D01*
X57802000Y-37833000D01*
X58102000Y-37833000D01*
X58362017Y-37806997D01*
X58611965Y-37730766D01*
X58842238Y-37607238D01*
X59043988Y-37441159D01*
X59209461Y-37238912D01*
X59332298Y-37008269D01*
X59347060Y-36959342D01*
X59423504Y-37102360D01*
X59558341Y-37266659D01*
X59722640Y-37401496D01*
X59910087Y-37501689D01*
X60113479Y-37563387D01*
X60325000Y-37584220D01*
X60536520Y-37563387D01*
X60739912Y-37501689D01*
X60927360Y-37401496D01*
X61091659Y-37266659D01*
X61226496Y-37102360D01*
X61326689Y-36914913D01*
X61388387Y-36711521D01*
X61404000Y-36553000D01*
X61404000Y-35647001D01*
X61388387Y-35488480D01*
X61326689Y-35285087D01*
X61226496Y-35097640D01*
X61091659Y-34933341D01*
X60927360Y-34798504D01*
X60750556Y-34704000D01*
X62996000Y-34704000D01*
X62996001Y-36512114D01*
X62986896Y-36525740D01*
X62943250Y-36631112D01*
X62921000Y-36742973D01*
X62921000Y-36798250D01*
X62839750Y-36717000D01*
X62150000Y-36713937D01*
X62025910Y-36726159D01*
X61906589Y-36762354D01*
X61796622Y-36821133D01*
X61700236Y-36900236D01*
X61621133Y-36996622D01*
X61562354Y-37106589D01*
X61526159Y-37225910D01*
X61513937Y-37350000D01*
X61517000Y-37639750D01*
X61675250Y-37798000D01*
X62998000Y-37798000D01*
X62998000Y-37778000D01*
X63002000Y-37778000D01*
X63002000Y-37798000D01*
X63022000Y-37798000D01*
X63022000Y-37802000D01*
X63002000Y-37802000D01*
X63002000Y-38724750D01*
X63160250Y-38883000D01*
X63850000Y-38886063D01*
X63896001Y-38881532D01*
X63896001Y-40373698D01*
X63850000Y-40369167D01*
X62150000Y-40369167D01*
X62075703Y-40376485D01*
X62004262Y-40398156D01*
X61938421Y-40433349D01*
X61880710Y-40480710D01*
X61833349Y-40538421D01*
X61798156Y-40604262D01*
X61776485Y-40675703D01*
X61769167Y-40750000D01*
X61769167Y-41650000D01*
X61775270Y-41711966D01*
X61647184Y-41840053D01*
X61631112Y-41843250D01*
X61525740Y-41886896D01*
X61430909Y-41950261D01*
X61350261Y-42030909D01*
X61286896Y-42125740D01*
X61243250Y-42231112D01*
X61221000Y-42342973D01*
X61221000Y-42457027D01*
X61228752Y-42496000D01*
X60787885Y-42496000D01*
X60774260Y-42486896D01*
X60668888Y-42443250D01*
X60557027Y-42421000D01*
X60530833Y-42421000D01*
X60530833Y-42150000D01*
X60523515Y-42075703D01*
X60501844Y-42004262D01*
X60466651Y-41938421D01*
X60419290Y-41880710D01*
X60361579Y-41833349D01*
X60295738Y-41798156D01*
X60224297Y-41776485D01*
X60150000Y-41769167D01*
X59250000Y-41769167D01*
X59175703Y-41776485D01*
X59104262Y-41798156D01*
X59038421Y-41833349D01*
X58980710Y-41880710D01*
X58933349Y-41938421D01*
X58898156Y-42004262D01*
X58876485Y-42075703D01*
X58869167Y-42150000D01*
X58869167Y-43850000D01*
X58876485Y-43924297D01*
X58898156Y-43995738D01*
X58933349Y-44061579D01*
X58980710Y-44119290D01*
X59038421Y-44166651D01*
X59104262Y-44201844D01*
X59175703Y-44223515D01*
X59250000Y-44230833D01*
X59321001Y-44230833D01*
X59321000Y-44732063D01*
X59302306Y-44742055D01*
X59214289Y-44814289D01*
X59142055Y-44902306D01*
X59088380Y-45002725D01*
X59055328Y-45111685D01*
X59044167Y-45225000D01*
X59044167Y-45775000D01*
X59055328Y-45888315D01*
X59071792Y-45942591D01*
X58971622Y-45996133D01*
X58875236Y-46075236D01*
X58860074Y-46093710D01*
X58911620Y-45997275D01*
X58944672Y-45888315D01*
X58955833Y-45775000D01*
X58955833Y-45225000D01*
X58944672Y-45111685D01*
X58911620Y-45002725D01*
X58857945Y-44902306D01*
X58785711Y-44814289D01*
X58697694Y-44742055D01*
X58597275Y-44688380D01*
X58488315Y-44655328D01*
X58375000Y-44644167D01*
X57975000Y-44644167D01*
X57861685Y-44655328D01*
X57752725Y-44688380D01*
X57652306Y-44742055D01*
X57564289Y-44814289D01*
X57492055Y-44902306D01*
X57438380Y-45002725D01*
X57405328Y-45111685D01*
X57394167Y-45225000D01*
X57394167Y-45775000D01*
X57405328Y-45888315D01*
X57438380Y-45997275D01*
X57492055Y-46097694D01*
X57564289Y-46185711D01*
X57650747Y-46256666D01*
X57571611Y-46321611D01*
X57496268Y-46413417D01*
X57440283Y-46518158D01*
X57405808Y-46631808D01*
X57394167Y-46750000D01*
X57394167Y-47250000D01*
X57405808Y-47368192D01*
X57440283Y-47481842D01*
X57496268Y-47586583D01*
X57571611Y-47678389D01*
X57663417Y-47753732D01*
X57671001Y-47757786D01*
X57671001Y-47996000D01*
X36808764Y-47996000D01*
X35059947Y-46247184D01*
X35056750Y-46231112D01*
X35013104Y-46125740D01*
X34949739Y-46030909D01*
X34869091Y-45950261D01*
X34774260Y-45886896D01*
X34668888Y-45843250D01*
X34557027Y-45821000D01*
X34442973Y-45821000D01*
X34331112Y-45843250D01*
X34225740Y-45886896D01*
X34130909Y-45950261D01*
X34050261Y-46030909D01*
X33986896Y-46125740D01*
X33943250Y-46231112D01*
X33921000Y-46342973D01*
X33921000Y-46457027D01*
X33943250Y-46568888D01*
X33986896Y-46674260D01*
X34050261Y-46769091D01*
X34130909Y-46849739D01*
X34225740Y-46913104D01*
X34331112Y-46956750D01*
X34347184Y-46959947D01*
X35983236Y-48596000D01*
X30425000Y-48596000D01*
X30425000Y-42942973D01*
X54421000Y-42942973D01*
X54421000Y-43057027D01*
X54443250Y-43168888D01*
X54486896Y-43274260D01*
X54496001Y-43287886D01*
X54496000Y-46712115D01*
X54486896Y-46725740D01*
X54443250Y-46831112D01*
X54421000Y-46942973D01*
X54421000Y-47057027D01*
X54443250Y-47168888D01*
X54486896Y-47274260D01*
X54550261Y-47369091D01*
X54630909Y-47449739D01*
X54725740Y-47513104D01*
X54831112Y-47556750D01*
X54942973Y-47579000D01*
X55057027Y-47579000D01*
X55168888Y-47556750D01*
X55274260Y-47513104D01*
X55369091Y-47449739D01*
X55449739Y-47369091D01*
X55513104Y-47274260D01*
X55556750Y-47168888D01*
X55579000Y-47057027D01*
X55579000Y-46942973D01*
X55556750Y-46831112D01*
X55513104Y-46725740D01*
X55504000Y-46712115D01*
X55504000Y-46471248D01*
X55542973Y-46479000D01*
X55657027Y-46479000D01*
X55768888Y-46456750D01*
X55874260Y-46413104D01*
X55969091Y-46349739D01*
X56049739Y-46269091D01*
X56113104Y-46174260D01*
X56156750Y-46068888D01*
X56159947Y-46052817D01*
X56638878Y-45573886D01*
X56658106Y-45558106D01*
X56721088Y-45481362D01*
X56767888Y-45393805D01*
X56796707Y-45298801D01*
X56804000Y-45224754D01*
X56804000Y-45224752D01*
X56806438Y-45200001D01*
X56804000Y-45175250D01*
X56804000Y-44225514D01*
X56824297Y-44223515D01*
X56895738Y-44201844D01*
X56961579Y-44166651D01*
X57019290Y-44119290D01*
X57066651Y-44061579D01*
X57101844Y-43995738D01*
X57123515Y-43924297D01*
X57130833Y-43850000D01*
X57130833Y-42150000D01*
X57123515Y-42075703D01*
X57101844Y-42004262D01*
X57066651Y-41938421D01*
X57019290Y-41880710D01*
X56961579Y-41833349D01*
X56895738Y-41798156D01*
X56824297Y-41776485D01*
X56750000Y-41769167D01*
X55850000Y-41769167D01*
X55775703Y-41776485D01*
X55704262Y-41798156D01*
X55638421Y-41833349D01*
X55580710Y-41880710D01*
X55533349Y-41938421D01*
X55498156Y-42004262D01*
X55476485Y-42075703D01*
X55469167Y-42150000D01*
X55469167Y-42659985D01*
X55449739Y-42630909D01*
X55369091Y-42550261D01*
X55274260Y-42486896D01*
X55168888Y-42443250D01*
X55057027Y-42421000D01*
X54942973Y-42421000D01*
X54831112Y-42443250D01*
X54725740Y-42486896D01*
X54630909Y-42550261D01*
X54550261Y-42630909D01*
X54486896Y-42725740D01*
X54443250Y-42831112D01*
X54421000Y-42942973D01*
X30425000Y-42942973D01*
X30425000Y-35294035D01*
X30506589Y-35337646D01*
X30625910Y-35373841D01*
X30750000Y-35386063D01*
X31339750Y-35383000D01*
X31498000Y-35224750D01*
X31498000Y-34002000D01*
X31478000Y-34002000D01*
X31478000Y-33998000D01*
X31498000Y-33998000D01*
X31498000Y-33978000D01*
X31502000Y-33978000D01*
X31502000Y-33998000D01*
X31522000Y-33998000D01*
X31522000Y-34002000D01*
X31502000Y-34002000D01*
X31502000Y-35224750D01*
X31660250Y-35383000D01*
X32250000Y-35386063D01*
X32374090Y-35373841D01*
X32493411Y-35337646D01*
X32603378Y-35278867D01*
X32699764Y-35199764D01*
X32739710Y-35151090D01*
X32743250Y-35168888D01*
X32786896Y-35274260D01*
X32850261Y-35369091D01*
X32930909Y-35449739D01*
X33025740Y-35513104D01*
X33131112Y-35556750D01*
X33147184Y-35559947D01*
X35008237Y-37421000D01*
X34942973Y-37421000D01*
X34831112Y-37443250D01*
X34725740Y-37486896D01*
X34630909Y-37550261D01*
X34550261Y-37630909D01*
X34486896Y-37725740D01*
X34443250Y-37831112D01*
X34421000Y-37942973D01*
X34421000Y-38057027D01*
X34443250Y-38168888D01*
X34486896Y-38274260D01*
X34496000Y-38287885D01*
X34496001Y-39569126D01*
X34328114Y-39681305D01*
X34181305Y-39828114D01*
X34065957Y-40000744D01*
X33986504Y-40192559D01*
X33946000Y-40396190D01*
X33946000Y-40603810D01*
X33986504Y-40807441D01*
X34065957Y-40999256D01*
X34181305Y-41171886D01*
X34328114Y-41318695D01*
X34500744Y-41434043D01*
X34692559Y-41513496D01*
X34896190Y-41554000D01*
X35103810Y-41554000D01*
X35307441Y-41513496D01*
X35499256Y-41434043D01*
X35671886Y-41318695D01*
X35818695Y-41171886D01*
X35934043Y-40999256D01*
X36000000Y-40840023D01*
X36065957Y-40999256D01*
X36181305Y-41171886D01*
X36328114Y-41318695D01*
X36500744Y-41434043D01*
X36692559Y-41513496D01*
X36896190Y-41554000D01*
X37103810Y-41554000D01*
X37307441Y-41513496D01*
X37499256Y-41434043D01*
X37671886Y-41318695D01*
X37818695Y-41171886D01*
X37853777Y-41119382D01*
X37885793Y-41185134D01*
X38040865Y-41389340D01*
X38232796Y-41559370D01*
X38454210Y-41688689D01*
X38696599Y-41772327D01*
X38793409Y-41791582D01*
X38998000Y-41649748D01*
X38998000Y-40502000D01*
X38978000Y-40502000D01*
X38978000Y-40498000D01*
X38998000Y-40498000D01*
X38998000Y-39350252D01*
X38793409Y-39208418D01*
X38696599Y-39227673D01*
X38454210Y-39311311D01*
X38232796Y-39440630D01*
X38040865Y-39610660D01*
X37885793Y-39814866D01*
X37853777Y-39880618D01*
X37818695Y-39828114D01*
X37671886Y-39681305D01*
X37504000Y-39569127D01*
X37504000Y-38429752D01*
X37506438Y-38405001D01*
X37502901Y-38369091D01*
X37496707Y-38306201D01*
X37467888Y-38211197D01*
X37421088Y-38123640D01*
X37358106Y-38046896D01*
X37338878Y-38031116D01*
X37154945Y-37847183D01*
X37151748Y-37831112D01*
X37108102Y-37725740D01*
X37093576Y-37704000D01*
X37691237Y-37704000D01*
X38726114Y-38738878D01*
X38741894Y-38758106D01*
X38818638Y-38821088D01*
X38906195Y-38867888D01*
X39001199Y-38896707D01*
X39075246Y-38904000D01*
X39075248Y-38904000D01*
X39099999Y-38906438D01*
X39124750Y-38904000D01*
X43475246Y-38904000D01*
X43500000Y-38906438D01*
X43598801Y-38896707D01*
X43598804Y-38896706D01*
X43693805Y-38867888D01*
X43781362Y-38821088D01*
X43858106Y-38758106D01*
X43873890Y-38738873D01*
X45009751Y-37603013D01*
X45071611Y-37678389D01*
X45092063Y-37695174D01*
X42791237Y-39996000D01*
X42055833Y-39996000D01*
X42055833Y-39825000D01*
X42048515Y-39750703D01*
X42026844Y-39679262D01*
X41991651Y-39613421D01*
X41944290Y-39555710D01*
X41886579Y-39508349D01*
X41820738Y-39473156D01*
X41749297Y-39451485D01*
X41675000Y-39444167D01*
X40325000Y-39444167D01*
X40250703Y-39451485D01*
X40179262Y-39473156D01*
X40113421Y-39508349D01*
X40055710Y-39555710D01*
X40008349Y-39613421D01*
X39988885Y-39649836D01*
X39959135Y-39610660D01*
X39767204Y-39440630D01*
X39545790Y-39311311D01*
X39303401Y-39227673D01*
X39206591Y-39208418D01*
X39002000Y-39350252D01*
X39002000Y-40498000D01*
X39022000Y-40498000D01*
X39022000Y-40502000D01*
X39002000Y-40502000D01*
X39002000Y-41649748D01*
X39206591Y-41791582D01*
X39303401Y-41772327D01*
X39545790Y-41688689D01*
X39767204Y-41559370D01*
X39959135Y-41389340D01*
X39988885Y-41350164D01*
X40008349Y-41386579D01*
X40055710Y-41444290D01*
X40113421Y-41491651D01*
X40179262Y-41526844D01*
X40250703Y-41548515D01*
X40325000Y-41555833D01*
X41675000Y-41555833D01*
X41749297Y-41548515D01*
X41820738Y-41526844D01*
X41886579Y-41491651D01*
X41944290Y-41444290D01*
X41991651Y-41386579D01*
X42026844Y-41320738D01*
X42048515Y-41249297D01*
X42055833Y-41175000D01*
X42055833Y-41004000D01*
X42975246Y-41004000D01*
X43000000Y-41006438D01*
X43072921Y-40999256D01*
X43098801Y-40996707D01*
X43193805Y-40967888D01*
X43281362Y-40921088D01*
X43358106Y-40858106D01*
X43373890Y-40838873D01*
X45852816Y-38359947D01*
X45868888Y-38356750D01*
X45974260Y-38313104D01*
X46069091Y-38249739D01*
X46149739Y-38169091D01*
X46213104Y-38074260D01*
X46256750Y-37968888D01*
X46279000Y-37857027D01*
X46279000Y-37796325D01*
X46296133Y-37828378D01*
X46375236Y-37924764D01*
X46471622Y-38003867D01*
X46581589Y-38062646D01*
X46700910Y-38098841D01*
X46825000Y-38111063D01*
X47114750Y-38108000D01*
X47273000Y-37949750D01*
X47273000Y-37002000D01*
X47277000Y-37002000D01*
X47277000Y-37949750D01*
X47435250Y-38108000D01*
X47725000Y-38111063D01*
X47849090Y-38098841D01*
X47968411Y-38062646D01*
X48078378Y-38003867D01*
X48174764Y-37924764D01*
X48253867Y-37828378D01*
X48312646Y-37718411D01*
X48348841Y-37599090D01*
X48361063Y-37475000D01*
X48358000Y-37160250D01*
X48199750Y-37002000D01*
X47277000Y-37002000D01*
X47273000Y-37002000D01*
X47253000Y-37002000D01*
X47253000Y-36998000D01*
X47273000Y-36998000D01*
X47273000Y-36050250D01*
X47222750Y-36000000D01*
X47273000Y-35949750D01*
X47273000Y-35002000D01*
X47253000Y-35002000D01*
X47253000Y-34998000D01*
X47273000Y-34998000D01*
X47273000Y-34050250D01*
X47222750Y-34000000D01*
X47273000Y-33949750D01*
X47273000Y-33002000D01*
X47277000Y-33002000D01*
X47277000Y-33949750D01*
X47327250Y-34000000D01*
X47277000Y-34050250D01*
X47277000Y-34998000D01*
X48199750Y-34998000D01*
X48358000Y-34839750D01*
X48361063Y-34525000D01*
X48348841Y-34400910D01*
X48312646Y-34281589D01*
X48253867Y-34171622D01*
X48174764Y-34075236D01*
X48083090Y-34000000D01*
X48174764Y-33924764D01*
X48253867Y-33828378D01*
X48312646Y-33718411D01*
X48348841Y-33599090D01*
X48361063Y-33475000D01*
X48358000Y-33160250D01*
X48199750Y-33002000D01*
X47277000Y-33002000D01*
X47273000Y-33002000D01*
X47253000Y-33002000D01*
X47253000Y-32998000D01*
X47273000Y-32998000D01*
X47273000Y-32050250D01*
X47277000Y-32050250D01*
X47277000Y-32998000D01*
X48199750Y-32998000D01*
X48358000Y-32839750D01*
X48361063Y-32525000D01*
X48348841Y-32400910D01*
X48312646Y-32281589D01*
X48253867Y-32171622D01*
X48174764Y-32075236D01*
X48078378Y-31996133D01*
X47968411Y-31937354D01*
X47849090Y-31901159D01*
X47725000Y-31888937D01*
X47435250Y-31892000D01*
X47277000Y-32050250D01*
X47273000Y-32050250D01*
X47114750Y-31892000D01*
X46825000Y-31888937D01*
X46700910Y-31901159D01*
X46581589Y-31937354D01*
X46471622Y-31996133D01*
X46375236Y-32075236D01*
X46296133Y-32171622D01*
X46262978Y-32233651D01*
X46181842Y-32190283D01*
X46068192Y-32155808D01*
X45950000Y-32144167D01*
X45500000Y-32144167D01*
X45381808Y-32155808D01*
X45268158Y-32190283D01*
X45163417Y-32246268D01*
X45071611Y-32321611D01*
X44996268Y-32413417D01*
X44940283Y-32518158D01*
X44905808Y-32631808D01*
X44894167Y-32750000D01*
X44894167Y-33250000D01*
X44905808Y-33368192D01*
X44940283Y-33481842D01*
X44996268Y-33586583D01*
X45003996Y-33596000D01*
X44748052Y-33596000D01*
X44747074Y-33586071D01*
X44721135Y-33500560D01*
X44679011Y-33421753D01*
X44622323Y-33352677D01*
X44553247Y-33295989D01*
X44474440Y-33253865D01*
X44388929Y-33227926D01*
X44300000Y-33219167D01*
X43780833Y-33219167D01*
X43780833Y-32700000D01*
X43772074Y-32611071D01*
X43746135Y-32525560D01*
X43704011Y-32446753D01*
X43647323Y-32377677D01*
X43578247Y-32320989D01*
X43499440Y-32278865D01*
X43413929Y-32252926D01*
X43325000Y-32244167D01*
X43175000Y-32244167D01*
X43086071Y-32252926D01*
X43000560Y-32278865D01*
X43000000Y-32279164D01*
X42999440Y-32278865D01*
X42913929Y-32252926D01*
X42825000Y-32244167D01*
X42675000Y-32244167D01*
X42586071Y-32252926D01*
X42500560Y-32278865D01*
X42500000Y-32279164D01*
X42499440Y-32278865D01*
X42413929Y-32252926D01*
X42325000Y-32244167D01*
X42175000Y-32244167D01*
X42086071Y-32252926D01*
X42000560Y-32278865D01*
X42000000Y-32279164D01*
X41999440Y-32278865D01*
X41913929Y-32252926D01*
X41825000Y-32244167D01*
X41675000Y-32244167D01*
X41586071Y-32252926D01*
X41500560Y-32278865D01*
X41500000Y-32279164D01*
X41499440Y-32278865D01*
X41413929Y-32252926D01*
X41413141Y-32252848D01*
X41352862Y-32178355D01*
X41257024Y-32098588D01*
X41147466Y-32039051D01*
X41028398Y-32002031D01*
X40910250Y-31992000D01*
X40752000Y-32150250D01*
X40752000Y-32531708D01*
X40748000Y-32544895D01*
X40748000Y-32150250D01*
X40589750Y-31992000D01*
X40471602Y-32002031D01*
X40352534Y-32039051D01*
X40242976Y-32098588D01*
X40147138Y-32178355D01*
X40068703Y-32275286D01*
X40010686Y-32385657D01*
X39975316Y-32505225D01*
X39963952Y-32629396D01*
X39967000Y-32889750D01*
X40125250Y-33048000D01*
X40719167Y-33048000D01*
X40719167Y-33052000D01*
X40125250Y-33052000D01*
X39967000Y-33210250D01*
X39966896Y-33219167D01*
X39700000Y-33219167D01*
X39611071Y-33227926D01*
X39551488Y-33246000D01*
X39162714Y-33246000D01*
X39074260Y-33186896D01*
X38968888Y-33143250D01*
X38857027Y-33121000D01*
X38742973Y-33121000D01*
X38631112Y-33143250D01*
X38525740Y-33186896D01*
X38430909Y-33250261D01*
X38350261Y-33330909D01*
X38286896Y-33425740D01*
X38243250Y-33531112D01*
X38221000Y-33642973D01*
X38221000Y-33746000D01*
X36458764Y-33746000D01*
X35159947Y-32447184D01*
X35156750Y-32431112D01*
X35113104Y-32325740D01*
X35049739Y-32230909D01*
X34969091Y-32150261D01*
X34874260Y-32086896D01*
X34768888Y-32043250D01*
X34657027Y-32021000D01*
X34542973Y-32021000D01*
X34431112Y-32043250D01*
X34355833Y-32074431D01*
X34355833Y-32000000D01*
X34352515Y-31966314D01*
X34739830Y-31579000D01*
X48260171Y-31579000D01*
X48620476Y-31939305D01*
X48638605Y-31961395D01*
X48726769Y-32033750D01*
X48747933Y-32045062D01*
X48746159Y-32050910D01*
X48733937Y-32175000D01*
X48737000Y-32339750D01*
X48895250Y-32498000D01*
X49898000Y-32498000D01*
X49898000Y-32478000D01*
X49902000Y-32478000D01*
X49902000Y-32498000D01*
X50904750Y-32498000D01*
X51063000Y-32339750D01*
X51066063Y-32175000D01*
X51053841Y-32050910D01*
X51017646Y-31931589D01*
X50958867Y-31821622D01*
X50931073Y-31787756D01*
X51189167Y-31529663D01*
X51189167Y-31875000D01*
G37*
G04 #@! TD.AperFunction*
D21*
X61221000Y-43582027D02*
X61243250Y-43693888D01*
X61246542Y-43701837D01*
X61163417Y-43746268D01*
X61071611Y-43821611D01*
X60996268Y-43913417D01*
X60940283Y-44018158D01*
X60905808Y-44131808D01*
X60894167Y-44250000D01*
X60894167Y-44750000D01*
X60905808Y-44868192D01*
X60940283Y-44981842D01*
X60996268Y-45086583D01*
X61071611Y-45178389D01*
X61150747Y-45243334D01*
X61064289Y-45314289D01*
X60992055Y-45402306D01*
X60938380Y-45502725D01*
X60905328Y-45611685D01*
X60894167Y-45725000D01*
X60894167Y-46275000D01*
X60905328Y-46388315D01*
X60938380Y-46497275D01*
X60992055Y-46597694D01*
X61064289Y-46685711D01*
X61152306Y-46757945D01*
X61252725Y-46811620D01*
X61361685Y-46844672D01*
X61475000Y-46855833D01*
X61756403Y-46855833D01*
X60616237Y-47996000D01*
X60587964Y-47996000D01*
X60674764Y-47924764D01*
X60753867Y-47828378D01*
X60812646Y-47718411D01*
X60848841Y-47599090D01*
X60861063Y-47475000D01*
X60858000Y-47160250D01*
X60699750Y-47002000D01*
X59777000Y-47002000D01*
X59777000Y-47022000D01*
X59773000Y-47022000D01*
X59773000Y-47002000D01*
X59753000Y-47002000D01*
X59753000Y-46998000D01*
X59773000Y-46998000D01*
X59773000Y-46978000D01*
X59777000Y-46978000D01*
X59777000Y-46998000D01*
X60699750Y-46998000D01*
X60858000Y-46839750D01*
X60861063Y-46525000D01*
X60848841Y-46400910D01*
X60812646Y-46281589D01*
X60753867Y-46171622D01*
X60674764Y-46075236D01*
X60578378Y-45996133D01*
X60564256Y-45988585D01*
X60594672Y-45888315D01*
X60605833Y-45775000D01*
X60605833Y-45225000D01*
X60594672Y-45111685D01*
X60561620Y-45002725D01*
X60507945Y-44902306D01*
X60435711Y-44814289D01*
X60347694Y-44742055D01*
X60329000Y-44732063D01*
X60329000Y-44184065D01*
X60361579Y-44166651D01*
X60419290Y-44119290D01*
X60466651Y-44061579D01*
X60501844Y-43995738D01*
X60523515Y-43924297D01*
X60530833Y-43850000D01*
X60530833Y-43579000D01*
X60557027Y-43579000D01*
X60668888Y-43556750D01*
X60774260Y-43513104D01*
X60787885Y-43504000D01*
X61221000Y-43504000D01*
X61221000Y-43582027D01*
G04 #@! TA.AperFunction,Conductor*
D22*
G36*
X61221000Y-43582027D02*
G01*
X61243250Y-43693888D01*
X61246542Y-43701837D01*
X61163417Y-43746268D01*
X61071611Y-43821611D01*
X60996268Y-43913417D01*
X60940283Y-44018158D01*
X60905808Y-44131808D01*
X60894167Y-44250000D01*
X60894167Y-44750000D01*
X60905808Y-44868192D01*
X60940283Y-44981842D01*
X60996268Y-45086583D01*
X61071611Y-45178389D01*
X61150747Y-45243334D01*
X61064289Y-45314289D01*
X60992055Y-45402306D01*
X60938380Y-45502725D01*
X60905328Y-45611685D01*
X60894167Y-45725000D01*
X60894167Y-46275000D01*
X60905328Y-46388315D01*
X60938380Y-46497275D01*
X60992055Y-46597694D01*
X61064289Y-46685711D01*
X61152306Y-46757945D01*
X61252725Y-46811620D01*
X61361685Y-46844672D01*
X61475000Y-46855833D01*
X61756403Y-46855833D01*
X60616237Y-47996000D01*
X60587964Y-47996000D01*
X60674764Y-47924764D01*
X60753867Y-47828378D01*
X60812646Y-47718411D01*
X60848841Y-47599090D01*
X60861063Y-47475000D01*
X60858000Y-47160250D01*
X60699750Y-47002000D01*
X59777000Y-47002000D01*
X59777000Y-47022000D01*
X59773000Y-47022000D01*
X59773000Y-47002000D01*
X59753000Y-47002000D01*
X59753000Y-46998000D01*
X59773000Y-46998000D01*
X59773000Y-46978000D01*
X59777000Y-46978000D01*
X59777000Y-46998000D01*
X60699750Y-46998000D01*
X60858000Y-46839750D01*
X60861063Y-46525000D01*
X60848841Y-46400910D01*
X60812646Y-46281589D01*
X60753867Y-46171622D01*
X60674764Y-46075236D01*
X60578378Y-45996133D01*
X60564256Y-45988585D01*
X60594672Y-45888315D01*
X60605833Y-45775000D01*
X60605833Y-45225000D01*
X60594672Y-45111685D01*
X60561620Y-45002725D01*
X60507945Y-44902306D01*
X60435711Y-44814289D01*
X60347694Y-44742055D01*
X60329000Y-44732063D01*
X60329000Y-44184065D01*
X60361579Y-44166651D01*
X60419290Y-44119290D01*
X60466651Y-44061579D01*
X60501844Y-43995738D01*
X60523515Y-43924297D01*
X60530833Y-43850000D01*
X60530833Y-43579000D01*
X60557027Y-43579000D01*
X60668888Y-43556750D01*
X60774260Y-43513104D01*
X60787885Y-43504000D01*
X61221000Y-43504000D01*
X61221000Y-43582027D01*
G37*
G04 #@! TD.AperFunction*
D21*
X39244167Y-36325000D02*
X39252926Y-36413929D01*
X39278865Y-36499440D01*
X39320989Y-36578247D01*
X39377677Y-36647323D01*
X39446753Y-36704011D01*
X39525560Y-36746135D01*
X39611071Y-36772074D01*
X39700000Y-36780833D01*
X39966896Y-36780833D01*
X39967000Y-36789750D01*
X40125250Y-36948000D01*
X40719167Y-36948000D01*
X40719167Y-36952000D01*
X40125250Y-36952000D01*
X39967000Y-37110250D01*
X39963952Y-37370604D01*
X39975316Y-37494775D01*
X40010686Y-37614343D01*
X40068703Y-37724714D01*
X40147138Y-37821645D01*
X40236474Y-37896000D01*
X39308764Y-37896000D01*
X38273890Y-36861127D01*
X38269545Y-36855833D01*
X38500000Y-36855833D01*
X38618192Y-36844192D01*
X38731842Y-36809717D01*
X38836583Y-36753732D01*
X38928389Y-36678389D01*
X39003732Y-36586583D01*
X39059717Y-36481842D01*
X39094192Y-36368192D01*
X39105439Y-36254000D01*
X39244167Y-36254000D01*
X39244167Y-36325000D01*
G04 #@! TA.AperFunction,Conductor*
D22*
G36*
X39244167Y-36325000D02*
G01*
X39252926Y-36413929D01*
X39278865Y-36499440D01*
X39320989Y-36578247D01*
X39377677Y-36647323D01*
X39446753Y-36704011D01*
X39525560Y-36746135D01*
X39611071Y-36772074D01*
X39700000Y-36780833D01*
X39966896Y-36780833D01*
X39967000Y-36789750D01*
X40125250Y-36948000D01*
X40719167Y-36948000D01*
X40719167Y-36952000D01*
X40125250Y-36952000D01*
X39967000Y-37110250D01*
X39963952Y-37370604D01*
X39975316Y-37494775D01*
X40010686Y-37614343D01*
X40068703Y-37724714D01*
X40147138Y-37821645D01*
X40236474Y-37896000D01*
X39308764Y-37896000D01*
X38273890Y-36861127D01*
X38269545Y-36855833D01*
X38500000Y-36855833D01*
X38618192Y-36844192D01*
X38731842Y-36809717D01*
X38836583Y-36753732D01*
X38928389Y-36678389D01*
X39003732Y-36586583D01*
X39059717Y-36481842D01*
X39094192Y-36368192D01*
X39105439Y-36254000D01*
X39244167Y-36254000D01*
X39244167Y-36325000D01*
G37*
G04 #@! TD.AperFunction*
D21*
X35876114Y-34588878D02*
X35891894Y-34608106D01*
X35968638Y-34671088D01*
X36056195Y-34717888D01*
X36151199Y-34746707D01*
X36225246Y-34754000D01*
X36225248Y-34754000D01*
X36249999Y-34756438D01*
X36274750Y-34754000D01*
X39244167Y-34754000D01*
X39244167Y-34825000D01*
X39252926Y-34913929D01*
X39278865Y-34999440D01*
X39279164Y-35000000D01*
X39278865Y-35000560D01*
X39252926Y-35086071D01*
X39244167Y-35175000D01*
X39244167Y-35246000D01*
X38836082Y-35246000D01*
X38731842Y-35190283D01*
X38618192Y-35155808D01*
X38500000Y-35144167D01*
X38050000Y-35144167D01*
X37931808Y-35155808D01*
X37818158Y-35190283D01*
X37737022Y-35233651D01*
X37703867Y-35171622D01*
X37624764Y-35075236D01*
X37528378Y-34996133D01*
X37418411Y-34937354D01*
X37299090Y-34901159D01*
X37175000Y-34888937D01*
X36885250Y-34892000D01*
X36727000Y-35050250D01*
X36727000Y-35998000D01*
X36747000Y-35998000D01*
X36747000Y-36002000D01*
X36727000Y-36002000D01*
X36727000Y-36022000D01*
X36723000Y-36022000D01*
X36723000Y-36002000D01*
X35800250Y-36002000D01*
X35642000Y-36160250D01*
X35638937Y-36475000D01*
X35651159Y-36599090D01*
X35668274Y-36655511D01*
X34537763Y-35525000D01*
X35638937Y-35525000D01*
X35642000Y-35839750D01*
X35800250Y-35998000D01*
X36723000Y-35998000D01*
X36723000Y-35050250D01*
X36564750Y-34892000D01*
X36275000Y-34888937D01*
X36150910Y-34901159D01*
X36031589Y-34937354D01*
X35921622Y-34996133D01*
X35825236Y-35075236D01*
X35746133Y-35171622D01*
X35687354Y-35281589D01*
X35651159Y-35400910D01*
X35638937Y-35525000D01*
X34537763Y-35525000D01*
X33872832Y-34860069D01*
X33975000Y-34861063D01*
X34099090Y-34848841D01*
X34218411Y-34812646D01*
X34328378Y-34753867D01*
X34424764Y-34674764D01*
X34503867Y-34578378D01*
X34562646Y-34468411D01*
X34598841Y-34349090D01*
X34611063Y-34225000D01*
X34608000Y-33935250D01*
X34449750Y-33777000D01*
X33502000Y-33777000D01*
X33502000Y-33797000D01*
X33498000Y-33797000D01*
X33498000Y-33777000D01*
X33478000Y-33777000D01*
X33478000Y-33773000D01*
X33498000Y-33773000D01*
X33498000Y-33753000D01*
X33502000Y-33753000D01*
X33502000Y-33773000D01*
X34449750Y-33773000D01*
X34608000Y-33614750D01*
X34611063Y-33325000D01*
X34610935Y-33323698D01*
X35876114Y-34588878D01*
G04 #@! TA.AperFunction,Conductor*
D22*
G36*
X35876114Y-34588878D02*
G01*
X35891894Y-34608106D01*
X35968638Y-34671088D01*
X36056195Y-34717888D01*
X36151199Y-34746707D01*
X36225246Y-34754000D01*
X36225248Y-34754000D01*
X36249999Y-34756438D01*
X36274750Y-34754000D01*
X39244167Y-34754000D01*
X39244167Y-34825000D01*
X39252926Y-34913929D01*
X39278865Y-34999440D01*
X39279164Y-35000000D01*
X39278865Y-35000560D01*
X39252926Y-35086071D01*
X39244167Y-35175000D01*
X39244167Y-35246000D01*
X38836082Y-35246000D01*
X38731842Y-35190283D01*
X38618192Y-35155808D01*
X38500000Y-35144167D01*
X38050000Y-35144167D01*
X37931808Y-35155808D01*
X37818158Y-35190283D01*
X37737022Y-35233651D01*
X37703867Y-35171622D01*
X37624764Y-35075236D01*
X37528378Y-34996133D01*
X37418411Y-34937354D01*
X37299090Y-34901159D01*
X37175000Y-34888937D01*
X36885250Y-34892000D01*
X36727000Y-35050250D01*
X36727000Y-35998000D01*
X36747000Y-35998000D01*
X36747000Y-36002000D01*
X36727000Y-36002000D01*
X36727000Y-36022000D01*
X36723000Y-36022000D01*
X36723000Y-36002000D01*
X35800250Y-36002000D01*
X35642000Y-36160250D01*
X35638937Y-36475000D01*
X35651159Y-36599090D01*
X35668274Y-36655511D01*
X34537763Y-35525000D01*
X35638937Y-35525000D01*
X35642000Y-35839750D01*
X35800250Y-35998000D01*
X36723000Y-35998000D01*
X36723000Y-35050250D01*
X36564750Y-34892000D01*
X36275000Y-34888937D01*
X36150910Y-34901159D01*
X36031589Y-34937354D01*
X35921622Y-34996133D01*
X35825236Y-35075236D01*
X35746133Y-35171622D01*
X35687354Y-35281589D01*
X35651159Y-35400910D01*
X35638937Y-35525000D01*
X34537763Y-35525000D01*
X33872832Y-34860069D01*
X33975000Y-34861063D01*
X34099090Y-34848841D01*
X34218411Y-34812646D01*
X34328378Y-34753867D01*
X34424764Y-34674764D01*
X34503867Y-34578378D01*
X34562646Y-34468411D01*
X34598841Y-34349090D01*
X34611063Y-34225000D01*
X34608000Y-33935250D01*
X34449750Y-33777000D01*
X33502000Y-33777000D01*
X33502000Y-33797000D01*
X33498000Y-33797000D01*
X33498000Y-33777000D01*
X33478000Y-33777000D01*
X33478000Y-33773000D01*
X33498000Y-33773000D01*
X33498000Y-33753000D01*
X33502000Y-33753000D01*
X33502000Y-33773000D01*
X34449750Y-33773000D01*
X34608000Y-33614750D01*
X34611063Y-33325000D01*
X34610935Y-33323698D01*
X35876114Y-34588878D01*
G37*
G04 #@! TD.AperFunction*
D21*
X45173147Y-35758933D02*
X45143250Y-35831112D01*
X45121000Y-35942973D01*
X45121000Y-36057027D01*
X45143250Y-36168888D01*
X45173147Y-36241067D01*
X45163417Y-36246268D01*
X45144260Y-36261990D01*
X45121088Y-36218638D01*
X45058106Y-36141894D01*
X45038873Y-36126110D01*
X44984496Y-36071733D01*
X44997969Y-36028398D01*
X45008000Y-35910250D01*
X44851750Y-35754000D01*
X45163918Y-35754000D01*
X45173147Y-35758933D01*
G04 #@! TA.AperFunction,Conductor*
D22*
G36*
X45173147Y-35758933D02*
G01*
X45143250Y-35831112D01*
X45121000Y-35942973D01*
X45121000Y-36057027D01*
X45143250Y-36168888D01*
X45173147Y-36241067D01*
X45163417Y-36246268D01*
X45144260Y-36261990D01*
X45121088Y-36218638D01*
X45058106Y-36141894D01*
X45038873Y-36126110D01*
X44984496Y-36071733D01*
X44997969Y-36028398D01*
X45008000Y-35910250D01*
X44851750Y-35754000D01*
X45163918Y-35754000D01*
X45173147Y-35758933D01*
G37*
G04 #@! TD.AperFunction*
D21*
X44894561Y-34746000D02*
X44851750Y-34746000D01*
X44899238Y-34698512D01*
X44894561Y-34746000D01*
G04 #@! TA.AperFunction,Conductor*
D22*
G36*
X44894561Y-34746000D02*
G01*
X44851750Y-34746000D01*
X44899238Y-34698512D01*
X44894561Y-34746000D01*
G37*
G04 #@! TD.AperFunction*
D21*
X62250740Y-32238104D02*
X62356112Y-32281750D01*
X62467973Y-32304000D01*
X62582027Y-32304000D01*
X62644167Y-32291640D01*
X62644167Y-32375000D01*
X62655328Y-32488315D01*
X62688380Y-32597275D01*
X62742055Y-32697694D01*
X62814289Y-32785711D01*
X62902306Y-32857945D01*
X63002725Y-32911620D01*
X63111685Y-32944672D01*
X63225000Y-32955833D01*
X63568070Y-32955833D01*
X63656403Y-33044167D01*
X63225000Y-33044167D01*
X63111685Y-33055328D01*
X63002725Y-33088380D01*
X62902306Y-33142055D01*
X62814289Y-33214289D01*
X62742055Y-33302306D01*
X62688380Y-33402725D01*
X62655328Y-33511685D01*
X62644167Y-33625000D01*
X62644167Y-33696000D01*
X62110756Y-33696000D01*
X62108000Y-33435250D01*
X61949750Y-33277000D01*
X61002000Y-33277000D01*
X61002000Y-33297000D01*
X60998000Y-33297000D01*
X60998000Y-33277000D01*
X60978000Y-33277000D01*
X60978000Y-33273000D01*
X60998000Y-33273000D01*
X60998000Y-33253000D01*
X61002000Y-33253000D01*
X61002000Y-33273000D01*
X61949750Y-33273000D01*
X62108000Y-33114750D01*
X62111063Y-32825000D01*
X62098841Y-32700910D01*
X62062646Y-32581589D01*
X62003867Y-32471622D01*
X61924764Y-32375236D01*
X61828378Y-32296133D01*
X61766349Y-32262978D01*
X61784511Y-32229000D01*
X62237115Y-32229000D01*
X62250740Y-32238104D01*
G04 #@! TA.AperFunction,Conductor*
D22*
G36*
X62250740Y-32238104D02*
G01*
X62356112Y-32281750D01*
X62467973Y-32304000D01*
X62582027Y-32304000D01*
X62644167Y-32291640D01*
X62644167Y-32375000D01*
X62655328Y-32488315D01*
X62688380Y-32597275D01*
X62742055Y-32697694D01*
X62814289Y-32785711D01*
X62902306Y-32857945D01*
X63002725Y-32911620D01*
X63111685Y-32944672D01*
X63225000Y-32955833D01*
X63568070Y-32955833D01*
X63656403Y-33044167D01*
X63225000Y-33044167D01*
X63111685Y-33055328D01*
X63002725Y-33088380D01*
X62902306Y-33142055D01*
X62814289Y-33214289D01*
X62742055Y-33302306D01*
X62688380Y-33402725D01*
X62655328Y-33511685D01*
X62644167Y-33625000D01*
X62644167Y-33696000D01*
X62110756Y-33696000D01*
X62108000Y-33435250D01*
X61949750Y-33277000D01*
X61002000Y-33277000D01*
X61002000Y-33297000D01*
X60998000Y-33297000D01*
X60998000Y-33277000D01*
X60978000Y-33277000D01*
X60978000Y-33273000D01*
X60998000Y-33273000D01*
X60998000Y-33253000D01*
X61002000Y-33253000D01*
X61002000Y-33273000D01*
X61949750Y-33273000D01*
X62108000Y-33114750D01*
X62111063Y-32825000D01*
X62098841Y-32700910D01*
X62062646Y-32581589D01*
X62003867Y-32471622D01*
X61924764Y-32375236D01*
X61828378Y-32296133D01*
X61766349Y-32262978D01*
X61784511Y-32229000D01*
X62237115Y-32229000D01*
X62250740Y-32238104D01*
G37*
G04 #@! TD.AperFunction*
D21*
X62906740Y-30445819D02*
X63297986Y-30563943D01*
X63658835Y-30755810D01*
X63975547Y-31014113D01*
X64236056Y-31329014D01*
X64430438Y-31688515D01*
X64551292Y-32078932D01*
X64596001Y-32504312D01*
X64596001Y-32558237D01*
X64355833Y-32318069D01*
X64355833Y-31975000D01*
X64344672Y-31861685D01*
X64311620Y-31752725D01*
X64257945Y-31652306D01*
X64185711Y-31564289D01*
X64097694Y-31492055D01*
X63997275Y-31438380D01*
X63888315Y-31405328D01*
X63775000Y-31394167D01*
X63431930Y-31394167D01*
X63423890Y-31386127D01*
X63408106Y-31366894D01*
X63331362Y-31303912D01*
X63243805Y-31257112D01*
X63148801Y-31228293D01*
X63074754Y-31221000D01*
X63050000Y-31218562D01*
X63025246Y-31221000D01*
X62812885Y-31221000D01*
X62799260Y-31211896D01*
X62693888Y-31168250D01*
X62582027Y-31146000D01*
X62467973Y-31146000D01*
X62356112Y-31168250D01*
X62250740Y-31211896D01*
X62237115Y-31221000D01*
X61784511Y-31221000D01*
X61753732Y-31163417D01*
X61678389Y-31071611D01*
X61586583Y-30996268D01*
X61481842Y-30940283D01*
X61368192Y-30905808D01*
X61250000Y-30894167D01*
X60750000Y-30894167D01*
X60631808Y-30905808D01*
X60518158Y-30940283D01*
X60413417Y-30996268D01*
X60321611Y-31071611D01*
X60246268Y-31163417D01*
X60190283Y-31268158D01*
X60155808Y-31381808D01*
X60144167Y-31500000D01*
X60144167Y-31950000D01*
X60155808Y-32068192D01*
X60190283Y-32181842D01*
X60233651Y-32262978D01*
X60171622Y-32296133D01*
X60075236Y-32375236D01*
X59996133Y-32471622D01*
X59982035Y-32497998D01*
X59924752Y-32497998D01*
X60083000Y-32339750D01*
X60086063Y-32100000D01*
X60073841Y-31975910D01*
X60037646Y-31856589D01*
X59978867Y-31746622D01*
X59899764Y-31650236D01*
X59803378Y-31571133D01*
X59693411Y-31512354D01*
X59574090Y-31476159D01*
X59450000Y-31463937D01*
X59160250Y-31467000D01*
X59002000Y-31625250D01*
X59002000Y-32498000D01*
X59022000Y-32498000D01*
X59022000Y-32502000D01*
X59002000Y-32502000D01*
X59002000Y-33374750D01*
X59160250Y-33533000D01*
X59450000Y-33536063D01*
X59574090Y-33523841D01*
X59693411Y-33487646D01*
X59803378Y-33428867D01*
X59899764Y-33349764D01*
X59959479Y-33277002D01*
X60050248Y-33277002D01*
X59892000Y-33435250D01*
X59889244Y-33696000D01*
X58942206Y-33696000D01*
X58913104Y-33625740D01*
X58849739Y-33530909D01*
X58845790Y-33526960D01*
X58998000Y-33374750D01*
X58998000Y-32502000D01*
X58075250Y-32502000D01*
X57917000Y-32660250D01*
X57913937Y-32900000D01*
X57918468Y-32946000D01*
X57814505Y-32946000D01*
X57801844Y-32904262D01*
X57766651Y-32838421D01*
X57719290Y-32780710D01*
X57661579Y-32733349D01*
X57595738Y-32698156D01*
X57524297Y-32676485D01*
X57450000Y-32669167D01*
X56550000Y-32669167D01*
X56475703Y-32676485D01*
X56404262Y-32698156D01*
X56338421Y-32733349D01*
X56280710Y-32780710D01*
X56233349Y-32838421D01*
X56204000Y-32893329D01*
X56204000Y-32687885D01*
X56213104Y-32674260D01*
X56256750Y-32568888D01*
X56279000Y-32457027D01*
X56279000Y-32342973D01*
X56256750Y-32231112D01*
X56213104Y-32125740D01*
X56149739Y-32030909D01*
X56069091Y-31950261D01*
X55974260Y-31886896D01*
X55868888Y-31843250D01*
X55757027Y-31821000D01*
X55642973Y-31821000D01*
X55601916Y-31829166D01*
X55449750Y-31677000D01*
X54502000Y-31677000D01*
X54502000Y-31697000D01*
X54498000Y-31697000D01*
X54498000Y-31677000D01*
X53550250Y-31677000D01*
X53392000Y-31835250D01*
X53390260Y-31971430D01*
X53010833Y-31592004D01*
X53010833Y-31279000D01*
X53388988Y-31279000D01*
X53392000Y-31514750D01*
X53550250Y-31673000D01*
X54498000Y-31673000D01*
X54498000Y-31653000D01*
X54502000Y-31653000D01*
X54502000Y-31673000D01*
X55449750Y-31673000D01*
X55608000Y-31514750D01*
X55611012Y-31279000D01*
X56169167Y-31279000D01*
X56169167Y-31950000D01*
X56176485Y-32024297D01*
X56198156Y-32095738D01*
X56233349Y-32161579D01*
X56280710Y-32219290D01*
X56338421Y-32266651D01*
X56404262Y-32301844D01*
X56475703Y-32323515D01*
X56550000Y-32330833D01*
X57450000Y-32330833D01*
X57524297Y-32323515D01*
X57595738Y-32301844D01*
X57661579Y-32266651D01*
X57719290Y-32219290D01*
X57766651Y-32161579D01*
X57799565Y-32100000D01*
X57913937Y-32100000D01*
X57917000Y-32339750D01*
X58075250Y-32498000D01*
X58998000Y-32498000D01*
X58998000Y-31625250D01*
X58839750Y-31467000D01*
X58550000Y-31463937D01*
X58425910Y-31476159D01*
X58306589Y-31512354D01*
X58196622Y-31571133D01*
X58100236Y-31650236D01*
X58021133Y-31746622D01*
X57962354Y-31856589D01*
X57926159Y-31975910D01*
X57913937Y-32100000D01*
X57799565Y-32100000D01*
X57801844Y-32095738D01*
X57823515Y-32024297D01*
X57830833Y-31950000D01*
X57830833Y-31150000D01*
X57823515Y-31075703D01*
X57801844Y-31004262D01*
X57766651Y-30938421D01*
X57719290Y-30880710D01*
X57661579Y-30833349D01*
X57595738Y-30798156D01*
X57579000Y-30793079D01*
X57579000Y-30728439D01*
X57581801Y-30700000D01*
X57579000Y-30671561D01*
X57579000Y-30642973D01*
X57573423Y-30614934D01*
X57570622Y-30586496D01*
X57562328Y-30559153D01*
X57556750Y-30531112D01*
X57545808Y-30504695D01*
X57537514Y-30477354D01*
X57524047Y-30452159D01*
X57513104Y-30425740D01*
X57498578Y-30404000D01*
X62480240Y-30404000D01*
X62906740Y-30445819D01*
G04 #@! TA.AperFunction,Conductor*
D22*
G36*
X62906740Y-30445819D02*
G01*
X63297986Y-30563943D01*
X63658835Y-30755810D01*
X63975547Y-31014113D01*
X64236056Y-31329014D01*
X64430438Y-31688515D01*
X64551292Y-32078932D01*
X64596001Y-32504312D01*
X64596001Y-32558237D01*
X64355833Y-32318069D01*
X64355833Y-31975000D01*
X64344672Y-31861685D01*
X64311620Y-31752725D01*
X64257945Y-31652306D01*
X64185711Y-31564289D01*
X64097694Y-31492055D01*
X63997275Y-31438380D01*
X63888315Y-31405328D01*
X63775000Y-31394167D01*
X63431930Y-31394167D01*
X63423890Y-31386127D01*
X63408106Y-31366894D01*
X63331362Y-31303912D01*
X63243805Y-31257112D01*
X63148801Y-31228293D01*
X63074754Y-31221000D01*
X63050000Y-31218562D01*
X63025246Y-31221000D01*
X62812885Y-31221000D01*
X62799260Y-31211896D01*
X62693888Y-31168250D01*
X62582027Y-31146000D01*
X62467973Y-31146000D01*
X62356112Y-31168250D01*
X62250740Y-31211896D01*
X62237115Y-31221000D01*
X61784511Y-31221000D01*
X61753732Y-31163417D01*
X61678389Y-31071611D01*
X61586583Y-30996268D01*
X61481842Y-30940283D01*
X61368192Y-30905808D01*
X61250000Y-30894167D01*
X60750000Y-30894167D01*
X60631808Y-30905808D01*
X60518158Y-30940283D01*
X60413417Y-30996268D01*
X60321611Y-31071611D01*
X60246268Y-31163417D01*
X60190283Y-31268158D01*
X60155808Y-31381808D01*
X60144167Y-31500000D01*
X60144167Y-31950000D01*
X60155808Y-32068192D01*
X60190283Y-32181842D01*
X60233651Y-32262978D01*
X60171622Y-32296133D01*
X60075236Y-32375236D01*
X59996133Y-32471622D01*
X59982035Y-32497998D01*
X59924752Y-32497998D01*
X60083000Y-32339750D01*
X60086063Y-32100000D01*
X60073841Y-31975910D01*
X60037646Y-31856589D01*
X59978867Y-31746622D01*
X59899764Y-31650236D01*
X59803378Y-31571133D01*
X59693411Y-31512354D01*
X59574090Y-31476159D01*
X59450000Y-31463937D01*
X59160250Y-31467000D01*
X59002000Y-31625250D01*
X59002000Y-32498000D01*
X59022000Y-32498000D01*
X59022000Y-32502000D01*
X59002000Y-32502000D01*
X59002000Y-33374750D01*
X59160250Y-33533000D01*
X59450000Y-33536063D01*
X59574090Y-33523841D01*
X59693411Y-33487646D01*
X59803378Y-33428867D01*
X59899764Y-33349764D01*
X59959479Y-33277002D01*
X60050248Y-33277002D01*
X59892000Y-33435250D01*
X59889244Y-33696000D01*
X58942206Y-33696000D01*
X58913104Y-33625740D01*
X58849739Y-33530909D01*
X58845790Y-33526960D01*
X58998000Y-33374750D01*
X58998000Y-32502000D01*
X58075250Y-32502000D01*
X57917000Y-32660250D01*
X57913937Y-32900000D01*
X57918468Y-32946000D01*
X57814505Y-32946000D01*
X57801844Y-32904262D01*
X57766651Y-32838421D01*
X57719290Y-32780710D01*
X57661579Y-32733349D01*
X57595738Y-32698156D01*
X57524297Y-32676485D01*
X57450000Y-32669167D01*
X56550000Y-32669167D01*
X56475703Y-32676485D01*
X56404262Y-32698156D01*
X56338421Y-32733349D01*
X56280710Y-32780710D01*
X56233349Y-32838421D01*
X56204000Y-32893329D01*
X56204000Y-32687885D01*
X56213104Y-32674260D01*
X56256750Y-32568888D01*
X56279000Y-32457027D01*
X56279000Y-32342973D01*
X56256750Y-32231112D01*
X56213104Y-32125740D01*
X56149739Y-32030909D01*
X56069091Y-31950261D01*
X55974260Y-31886896D01*
X55868888Y-31843250D01*
X55757027Y-31821000D01*
X55642973Y-31821000D01*
X55601916Y-31829166D01*
X55449750Y-31677000D01*
X54502000Y-31677000D01*
X54502000Y-31697000D01*
X54498000Y-31697000D01*
X54498000Y-31677000D01*
X53550250Y-31677000D01*
X53392000Y-31835250D01*
X53390260Y-31971430D01*
X53010833Y-31592004D01*
X53010833Y-31279000D01*
X53388988Y-31279000D01*
X53392000Y-31514750D01*
X53550250Y-31673000D01*
X54498000Y-31673000D01*
X54498000Y-31653000D01*
X54502000Y-31653000D01*
X54502000Y-31673000D01*
X55449750Y-31673000D01*
X55608000Y-31514750D01*
X55611012Y-31279000D01*
X56169167Y-31279000D01*
X56169167Y-31950000D01*
X56176485Y-32024297D01*
X56198156Y-32095738D01*
X56233349Y-32161579D01*
X56280710Y-32219290D01*
X56338421Y-32266651D01*
X56404262Y-32301844D01*
X56475703Y-32323515D01*
X56550000Y-32330833D01*
X57450000Y-32330833D01*
X57524297Y-32323515D01*
X57595738Y-32301844D01*
X57661579Y-32266651D01*
X57719290Y-32219290D01*
X57766651Y-32161579D01*
X57799565Y-32100000D01*
X57913937Y-32100000D01*
X57917000Y-32339750D01*
X58075250Y-32498000D01*
X58998000Y-32498000D01*
X58998000Y-31625250D01*
X58839750Y-31467000D01*
X58550000Y-31463937D01*
X58425910Y-31476159D01*
X58306589Y-31512354D01*
X58196622Y-31571133D01*
X58100236Y-31650236D01*
X58021133Y-31746622D01*
X57962354Y-31856589D01*
X57926159Y-31975910D01*
X57913937Y-32100000D01*
X57799565Y-32100000D01*
X57801844Y-32095738D01*
X57823515Y-32024297D01*
X57830833Y-31950000D01*
X57830833Y-31150000D01*
X57823515Y-31075703D01*
X57801844Y-31004262D01*
X57766651Y-30938421D01*
X57719290Y-30880710D01*
X57661579Y-30833349D01*
X57595738Y-30798156D01*
X57579000Y-30793079D01*
X57579000Y-30728439D01*
X57581801Y-30700000D01*
X57579000Y-30671561D01*
X57579000Y-30642973D01*
X57573423Y-30614934D01*
X57570622Y-30586496D01*
X57562328Y-30559153D01*
X57556750Y-30531112D01*
X57545808Y-30504695D01*
X57537514Y-30477354D01*
X57524047Y-30452159D01*
X57513104Y-30425740D01*
X57498578Y-30404000D01*
X62480240Y-30404000D01*
X62906740Y-30445819D01*
G37*
G04 #@! TD.AperFunction*
M02*
